<?xml version="1.0" encoding="UTF-8" standalone="no"?><!DOCTYPE svg PUBLIC "-//W3C//DTD SVG 1.1//EN" "http://www.w3.org/Graphics/SVG/1.1/DTD/svg11.dtd"><svg width="100%" height="100%" viewBox="0 0 4134 591" version="1.1" xmlns="http://www.w3.org/2000/svg" xmlns:xlink="http://www.w3.org/1999/xlink" xml:space="preserve" xmlns:serif="http://www.serif.com/" style="fill-rule:evenodd;clip-rule:evenodd;stroke-linecap:round;stroke-linejoin:round;stroke-miterlimit:1.5;"><path d="M4074.803,0c15.662,-0 30.683,6.222 41.758,17.297c11.075,11.075 17.297,26.096 17.297,41.758c-0,113.15 0,359.291 -0,472.441c-0,15.662 -6.222,30.683 -17.297,41.758c-11.075,11.075 -26.096,17.297 -41.758,17.297c-466.355,0 -3549.393,0 -4015.748,0c-15.662,0 -30.683,-6.222 -41.758,-17.297c-11.075,-11.075 -17.297,-26.096 -17.297,-41.758c0,-113.15 -0,-359.291 0,-472.441c0,-15.662 6.222,-30.683 17.297,-41.758c11.075,-11.075 26.096,-17.297 41.758,-17.297c466.355,-0 3549.393,-0 4015.748,-0Z" style="fill:#edece6;"/><g><path d="M2396.418,249.548c13.046,-0 23.622,10.576 23.622,23.622l0,129.921c-0,13.046 -10.576,23.622 -23.622,23.622l-661.417,-0c-13.046,0 -23.622,-10.576 -23.622,-23.622c0,-33.907 0,-96.014 0,-129.921c0,-13.046 10.576,-23.622 23.622,-23.622c107.925,-0 553.493,-0 661.417,-0Z" style="fill:#6a5c4d;stroke:#1c1a19;stroke-width:8.86px;"/><path d="M1802.83,339.031l0,14.533c0,2.399 0.133,3.899 0.398,4.498c0.265,0.6 0.784,1.125 1.557,1.574c0.773,0.45 1.817,0.675 3.132,0.675l1.557,0l0,1.28l-24.533,0l0,-1.28l1.557,0c1.361,0 2.457,-0.242 3.287,-0.727c0.6,-0.323 1.061,-0.877 1.384,-1.661c0.254,-0.554 0.381,-2.007 0.381,-4.36l0,-30.866c0,-2.399 -0.127,-3.899 -0.381,-4.498c-0.254,-0.6 -0.767,-1.125 -1.54,-1.574c-0.773,-0.45 -1.817,-0.675 -3.132,-0.675l-1.557,0l0,-1.28l24.533,0l0,1.28l-1.557,0c-1.361,0 -2.457,0.242 -3.287,0.727c-0.6,0.323 -1.073,0.877 -1.419,1.661c-0.254,0.554 -0.381,2.007 -0.381,4.36l0,13.287l16.575,0l0,-13.287c0,-2.399 -0.127,-3.899 -0.381,-4.498c-0.254,-0.6 -0.773,-1.125 -1.557,-1.574c-0.784,-0.45 -1.834,-0.675 -3.149,-0.675l-1.523,0l0,-1.28l24.499,0l0,1.28l-1.523,0c-1.384,0 -2.48,0.242 -3.287,0.727c-0.6,0.323 -1.073,0.877 -1.419,1.661c-0.254,0.554 -0.381,2.007 -0.381,4.36l0,30.866c0,2.399 0.127,3.899 0.381,4.498c0.254,0.6 0.773,1.125 1.557,1.574c0.784,0.45 1.834,0.675 3.149,0.675l1.523,0l0,1.28l-24.499,0l0,-1.28l1.523,0c1.384,0 2.48,-0.242 3.287,-0.727c0.6,-0.323 1.073,-0.877 1.419,-1.661c0.254,-0.554 0.381,-2.007 0.381,-4.36l0,-14.533l-16.575,0Z" style="fill:#fff;fill-rule:nonzero;"/><path d="M1862.36,356.816c-3.945,3.483 -7.486,5.225 -10.623,5.225c-1.845,0 -3.38,-0.606 -4.602,-1.817c-1.223,-1.211 -1.834,-2.728 -1.834,-4.55c0,-2.468 1.061,-4.689 3.183,-6.661c2.122,-1.972 6.748,-4.596 13.876,-7.872l0,-3.253c0,-2.445 -0.133,-3.985 -0.398,-4.619c-0.265,-0.634 -0.767,-1.188 -1.505,-1.661c-0.738,-0.473 -1.569,-0.709 -2.491,-0.709c-1.499,0 -2.734,0.334 -3.702,1.003c-0.6,0.415 -0.9,0.9 -0.9,1.453c0,0.484 0.323,1.084 0.969,1.799c0.877,0.992 1.315,1.949 1.315,2.872c0,1.13 -0.421,2.093 -1.263,2.889c-0.842,0.796 -1.944,1.194 -3.305,1.194c-1.453,0 -2.67,-0.438 -3.651,-1.315c-0.98,-0.877 -1.471,-1.903 -1.471,-3.08c0,-1.661 0.657,-3.247 1.972,-4.758c1.315,-1.511 3.149,-2.67 5.502,-3.478c2.353,-0.807 4.798,-1.211 7.336,-1.211c3.068,0 5.496,0.652 7.284,1.955c1.788,1.303 2.947,2.716 3.478,4.239c0.323,0.969 0.484,3.195 0.484,6.678l0,12.561c0,1.476 0.058,2.405 0.173,2.786c0.115,0.381 0.288,0.663 0.519,0.848c0.231,0.185 0.496,0.277 0.796,0.277c0.6,0 1.211,-0.427 1.834,-1.28l1.038,0.83c-1.153,1.707 -2.347,2.947 -3.581,3.72c-1.234,0.773 -2.636,1.159 -4.204,1.159c-1.845,0 -3.287,-0.433 -4.325,-1.298c-1.038,-0.865 -1.672,-2.174 -1.903,-3.927Zm0,-2.526l0,-10.831c-2.791,1.638 -4.867,3.391 -6.228,5.26c-0.9,1.246 -1.35,2.503 -1.35,3.772c0,1.061 0.381,1.995 1.142,2.803c0.577,0.623 1.384,0.934 2.422,0.934c1.153,0 2.491,-0.646 4.014,-1.938Z" style="fill:#fff;fill-rule:nonzero;"/><path d="M1896.7,329.238l0,4.187c1.661,-1.799 3.253,-3.108 4.775,-3.927c1.523,-0.819 3.16,-1.228 4.914,-1.228c2.099,0 3.841,0.582 5.225,1.747c1.384,1.165 2.307,2.612 2.768,4.343c0.369,1.315 0.554,3.841 0.554,7.578l0,12.595c0,2.491 0.225,4.043 0.675,4.654c0.45,0.611 1.39,0.998 2.82,1.159l0,1.246l-16.367,0l0,-1.246c1.223,-0.161 2.099,-0.669 2.63,-1.523c0.369,-0.577 0.554,-2.007 0.554,-4.291l0,-14.395c0,-2.653 -0.104,-4.325 -0.311,-5.017c-0.208,-0.692 -0.559,-1.228 -1.055,-1.609c-0.496,-0.381 -1.044,-0.571 -1.644,-0.571c-1.984,0 -3.829,1.419 -5.536,4.256l0,17.336c0,2.422 0.225,3.956 0.675,4.602c0.45,0.646 1.286,1.05 2.509,1.211l0,1.246l-16.367,0l0,-1.246c1.361,-0.138 2.33,-0.577 2.907,-1.315c0.392,-0.508 0.588,-2.007 0.588,-4.498l0,-18.27c0,-2.445 -0.225,-3.968 -0.675,-4.568c-0.45,-0.6 -1.39,-0.992 -2.82,-1.176l0,-1.28l13.184,0Z" style="fill:#fff;fill-rule:nonzero;"/><path d="M1952.943,361.591l-28.167,0l0,-0.761l17.786,-29.481l-5.19,0c-2.238,0 -3.841,0.202 -4.81,0.606c-0.969,0.404 -1.753,1.05 -2.353,1.938c-0.6,0.888 -1.223,2.474 -1.869,4.758l-1.211,0l0,-9.412l27.232,0l0,0.934l-17.647,29.205l2.215,0c4.429,0 7.624,-0.634 9.585,-1.903c1.961,-1.269 3.437,-3.587 4.429,-6.955l0.969,0l-0.969,11.073Z" style="fill:#fff;fill-rule:nonzero;"/><path d="M1969.22,313.563c1.499,0 2.768,0.525 3.806,1.574c1.038,1.05 1.557,2.313 1.557,3.789c0,1.476 -0.525,2.734 -1.574,3.772c-1.05,1.038 -2.313,1.557 -3.789,1.557c-1.476,0 -2.734,-0.519 -3.772,-1.557c-1.038,-1.038 -1.557,-2.295 -1.557,-3.772c0,-1.476 0.519,-2.739 1.557,-3.789c1.038,-1.05 2.295,-1.574 3.772,-1.574Zm4.844,15.675l0,25.641c0,2.284 0.265,3.743 0.796,4.377c0.531,0.634 1.569,0.998 3.114,1.09l0,1.246l-17.474,0l0,-1.246c1.43,-0.046 2.491,-0.461 3.183,-1.246c0.461,-0.531 0.692,-1.938 0.692,-4.222l0,-18.893c0,-2.284 -0.265,-3.743 -0.796,-4.377c-0.531,-0.634 -1.557,-0.998 -3.08,-1.09l0,-1.28l13.564,0Z" style="fill:#fff;fill-rule:nonzero;"/><path d="M2031.173,313.598l0,16.54l-1.28,0c-1.546,-4.521 -3.864,-7.959 -6.955,-10.312c-3.091,-2.353 -6.471,-3.529 -10.139,-3.529c-3.506,0 -6.425,0.986 -8.754,2.959c-2.33,1.972 -3.979,4.723 -4.948,8.253c-0.969,3.529 -1.453,7.151 -1.453,10.865c0,4.498 0.531,8.443 1.592,11.834c1.061,3.391 2.774,5.882 5.138,7.474c2.365,1.592 5.173,2.388 8.426,2.388c1.13,0 2.29,-0.121 3.478,-0.363c1.188,-0.242 2.405,-0.594 3.651,-1.055l0,-9.758c0,-1.845 -0.127,-3.039 -0.381,-3.581c-0.254,-0.542 -0.779,-1.032 -1.574,-1.471c-0.796,-0.438 -1.759,-0.657 -2.889,-0.657l-1.211,0l0,-1.28l22.803,0l0,1.28c-1.73,0.115 -2.935,0.352 -3.616,0.709c-0.681,0.358 -1.205,0.952 -1.574,1.782c-0.208,0.438 -0.311,1.511 -0.311,3.218l0,9.758c-2.999,1.338 -6.119,2.347 -9.36,3.028c-3.241,0.681 -6.603,1.021 -10.087,1.021c-4.452,0 -8.149,-0.606 -11.09,-1.817c-2.941,-1.211 -5.536,-2.803 -7.786,-4.775c-2.249,-1.972 -4.008,-4.193 -5.277,-6.661c-1.615,-3.183 -2.422,-6.748 -2.422,-10.692c0,-7.059 2.48,-13.022 7.44,-17.89c4.96,-4.867 11.2,-7.301 18.72,-7.301c2.33,0 4.429,0.185 6.298,0.554c1.015,0.185 2.659,0.709 4.931,1.574c2.272,0.865 3.616,1.298 4.031,1.298c0.646,0 1.246,-0.236 1.799,-0.709c0.554,-0.473 1.061,-1.367 1.523,-2.682l1.28,0Z" style="fill:#fff;fill-rule:nonzero;"/><path d="M2070.737,344.256l-17.751,0c0.208,4.291 1.35,7.682 3.426,10.173c1.592,1.915 3.506,2.872 5.744,2.872c1.384,0 2.641,-0.386 3.772,-1.159c1.13,-0.773 2.341,-2.163 3.633,-4.17l1.176,0.761c-1.753,3.576 -3.691,6.107 -5.813,7.595c-2.122,1.488 -4.579,2.232 -7.37,2.232c-4.798,0 -8.432,-1.845 -10.9,-5.536c-1.984,-2.976 -2.976,-6.667 -2.976,-11.073c0,-5.398 1.459,-9.694 4.377,-12.889c2.918,-3.195 6.338,-4.792 10.26,-4.792c3.276,0 6.119,1.344 8.53,4.031c2.411,2.687 3.708,6.673 3.893,11.955Zm-8.512,-2.318c0,-3.714 -0.202,-6.263 -0.606,-7.647c-0.404,-1.384 -1.032,-2.434 -1.886,-3.149c-0.484,-0.415 -1.13,-0.623 -1.938,-0.623c-1.2,0 -2.18,0.588 -2.941,1.765c-1.361,2.053 -2.042,4.867 -2.042,8.443l0,1.211l9.412,0Z" style="fill:#fff;fill-rule:nonzero;"/><path d="M2091.547,329.238l0,4.187c1.661,-1.799 3.253,-3.108 4.775,-3.927c1.523,-0.819 3.16,-1.228 4.914,-1.228c2.099,0 3.841,0.582 5.225,1.747c1.384,1.165 2.307,2.612 2.768,4.343c0.369,1.315 0.554,3.841 0.554,7.578l0,12.595c0,2.491 0.225,4.043 0.675,4.654c0.45,0.611 1.39,0.998 2.82,1.159l0,1.246l-16.367,0l0,-1.246c1.223,-0.161 2.099,-0.669 2.63,-1.523c0.369,-0.577 0.554,-2.007 0.554,-4.291l0,-14.395c0,-2.653 -0.104,-4.325 -0.311,-5.017c-0.208,-0.692 -0.559,-1.228 -1.055,-1.609c-0.496,-0.381 -1.044,-0.571 -1.644,-0.571c-1.984,0 -3.829,1.419 -5.536,4.256l0,17.336c0,2.422 0.225,3.956 0.675,4.602c0.45,0.646 1.286,1.05 2.509,1.211l0,1.246l-16.367,0l0,-1.246c1.361,-0.138 2.33,-0.577 2.907,-1.315c0.392,-0.508 0.588,-2.007 0.588,-4.498l0,-18.27c0,-2.445 -0.225,-3.968 -0.675,-4.568c-0.45,-0.6 -1.39,-0.992 -2.82,-1.176l0,-1.28l13.184,0Z" style="fill:#fff;fill-rule:nonzero;"/><path d="M2173.929,345.605l12.734,-30.935l19.101,0l0,1.28l-1.523,0c-1.384,0 -2.491,0.242 -3.322,0.727c-0.577,0.323 -1.038,0.865 -1.384,1.626c-0.254,0.554 -0.381,1.995 -0.381,4.325l0,30.935c0,2.399 0.127,3.899 0.381,4.498c0.254,0.6 0.773,1.125 1.557,1.574c0.784,0.45 1.834,0.675 3.149,0.675l1.523,0l0,1.28l-24.499,0l0,-1.28l1.523,0c1.384,0 2.491,-0.242 3.322,-0.727c0.577,-0.323 1.038,-0.877 1.384,-1.661c0.254,-0.554 0.381,-2.007 0.381,-4.36l0,-34.776l-17.993,42.803l-0.83,0l-18.27,-42.492l0,33.045c0,2.307 0.058,3.726 0.173,4.256c0.3,1.153 0.952,2.093 1.955,2.82c1.003,0.727 2.578,1.09 4.723,1.09l0,1.28l-16.056,0l0,-1.28l0.484,0c1.038,0.023 2.007,-0.144 2.907,-0.502c0.9,-0.358 1.58,-0.836 2.042,-1.436c0.461,-0.6 0.819,-1.442 1.073,-2.526c0.046,-0.254 0.069,-1.43 0.069,-3.529l0,-29.689c0,-2.376 -0.127,-3.858 -0.381,-4.446c-0.254,-0.588 -0.773,-1.107 -1.557,-1.557c-0.784,-0.45 -1.834,-0.675 -3.149,-0.675l-1.488,0l0,-1.28l19.17,0l13.184,30.935Z" style="fill:#fff;fill-rule:nonzero;"/><path d="M2228.234,328.269c2.814,0 5.433,0.727 7.855,2.18c2.422,1.453 4.262,3.518 5.519,6.194c1.257,2.676 1.886,5.606 1.886,8.789c0,4.591 -1.165,8.432 -3.495,11.523c-2.814,3.737 -6.701,5.606 -11.661,5.606c-4.867,0 -8.616,-1.707 -11.246,-5.121c-2.63,-3.414 -3.945,-7.37 -3.945,-11.869c0,-4.637 1.344,-8.679 4.031,-12.128c2.687,-3.449 6.373,-5.173 11.056,-5.173Zm0.138,2.457c-1.176,0 -2.186,0.444 -3.028,1.332c-0.842,0.888 -1.396,2.641 -1.661,5.26c-0.265,2.618 -0.398,6.257 -0.398,10.917c0,2.468 0.161,4.775 0.484,6.921c0.254,1.638 0.796,2.884 1.626,3.737c0.83,0.854 1.776,1.28 2.837,1.28c1.038,0 1.903,-0.288 2.595,-0.865c0.9,-0.784 1.499,-1.88 1.799,-3.287c0.461,-2.191 0.692,-6.621 0.692,-13.287c0,-3.922 -0.219,-6.615 -0.657,-8.08c-0.438,-1.465 -1.084,-2.532 -1.938,-3.201c-0.6,-0.484 -1.384,-0.727 -2.353,-0.727Z" style="fill:#fff;fill-rule:nonzero;"/><path d="M2283.405,314.67l0,37.232c0,2.514 0.069,4.002 0.208,4.464c0.185,0.761 0.536,1.326 1.055,1.696c0.519,0.369 1.424,0.6 2.716,0.692l0,1.142l-13.668,2.664l0,-5.121c-1.638,1.984 -3.097,3.333 -4.377,4.049c-1.28,0.715 -2.728,1.073 -4.343,1.073c-4.129,0 -7.393,-1.845 -9.793,-5.536c-1.938,-2.999 -2.907,-6.678 -2.907,-11.038c0,-3.483 0.6,-6.603 1.799,-9.36c1.2,-2.757 2.843,-4.839 4.931,-6.246c2.088,-1.407 4.331,-2.111 6.73,-2.111c1.546,0 2.918,0.3 4.118,0.9c1.2,0.6 2.48,1.649 3.841,3.149l0,-9.758c0,-2.468 -0.104,-3.956 -0.311,-4.464c-0.277,-0.669 -0.692,-1.165 -1.246,-1.488c-0.554,-0.323 -1.592,-0.484 -3.114,-0.484l0,-1.453l14.36,0Zm-9.689,21.938c-1.707,-3.276 -3.795,-4.914 -6.263,-4.914c-0.854,0 -1.557,0.231 -2.111,0.692c-0.854,0.715 -1.551,1.972 -2.093,3.772c-0.542,1.799 -0.813,4.556 -0.813,8.27c0,4.083 0.3,7.105 0.9,9.066c0.6,1.961 1.419,3.38 2.457,4.256c0.531,0.438 1.257,0.657 2.18,0.657c2.03,0 3.945,-1.592 5.744,-4.775l0,-17.024Z" style="fill:#fff;fill-rule:nonzero;"/><path d="M2322.312,344.256l-17.751,0c0.208,4.291 1.35,7.682 3.426,10.173c1.592,1.915 3.506,2.872 5.744,2.872c1.384,0 2.641,-0.386 3.772,-1.159c1.13,-0.773 2.341,-2.163 3.633,-4.17l1.176,0.761c-1.753,3.576 -3.691,6.107 -5.813,7.595c-2.122,1.488 -4.579,2.232 -7.37,2.232c-4.798,0 -8.432,-1.845 -10.9,-5.536c-1.984,-2.976 -2.976,-6.667 -2.976,-11.073c0,-5.398 1.459,-9.694 4.377,-12.889c2.918,-3.195 6.338,-4.792 10.26,-4.792c3.276,0 6.119,1.344 8.53,4.031c2.411,2.687 3.708,6.673 3.893,11.955Zm-8.512,-2.318c0,-3.714 -0.202,-6.263 -0.606,-7.647c-0.404,-1.384 -1.032,-2.434 -1.886,-3.149c-0.484,-0.415 -1.13,-0.623 -1.938,-0.623c-1.2,0 -2.18,0.588 -2.941,1.765c-1.361,2.053 -2.042,4.867 -2.042,8.443l0,1.211l9.412,0Z" style="fill:#fff;fill-rule:nonzero;"/><path d="M2342.568,314.67l0,40.208c0,2.284 0.265,3.743 0.796,4.377c0.531,0.634 1.569,0.998 3.114,1.09l0,1.246l-17.474,0l0,-1.246c1.43,-0.046 2.491,-0.461 3.183,-1.246c0.461,-0.531 0.692,-1.938 0.692,-4.222l0,-33.495c0,-2.261 -0.265,-3.708 -0.796,-4.343c-0.531,-0.634 -1.557,-0.998 -3.08,-1.09l0,-1.28l13.564,0Z" style="fill:#fff;fill-rule:nonzero;"/><path d="M893.248,183.619l-12.526,0l-15.883,-21.938c-1.176,0.046 -2.134,0.069 -2.872,0.069c-0.3,0 -0.623,-0.006 -0.969,-0.017c-0.346,-0.012 -0.704,-0.029 -1.073,-0.052l0,13.633c0,2.953 0.323,4.787 0.969,5.502c0.877,1.015 2.191,1.523 3.945,1.523l1.834,0l0,1.28l-20.104,0l0,-1.28l1.765,0c1.984,0 3.403,-0.646 4.256,-1.938c0.484,-0.715 0.727,-2.411 0.727,-5.087l0,-30.312c0,-2.953 -0.323,-4.787 -0.969,-5.502c-0.9,-1.015 -2.238,-1.523 -4.014,-1.523l-1.765,0l0,-1.28l17.094,0c4.983,0 8.656,0.363 11.021,1.09c2.365,0.727 4.371,2.065 6.021,4.014c1.649,1.949 2.474,4.273 2.474,6.972c0,2.884 -0.94,5.386 -2.82,7.509c-1.88,2.122 -4.792,3.622 -8.737,4.498l9.689,13.46c2.215,3.091 4.118,5.144 5.709,6.159c1.592,1.015 3.668,1.661 6.228,1.938l0,1.28Zm-33.322,-24.118c0.438,0 1.73,0.035 1.938,0.035c4.475,0 7.849,-0.969 10.121,-2.907c2.272,-1.938 3.408,-4.406 3.408,-7.405c0,-2.93 -0.917,-5.312 -2.751,-7.145c-1.834,-1.834 -4.262,-2.751 -7.284,-2.751c-1.338,0 -3.149,0.219 -5.433,0.657l0,19.516Z" style="fill:#1c1a19;fill-rule:nonzero;"/><path d="M903.712,163.861c-0.023,4.706 1.119,8.397 3.426,11.073c2.307,2.676 5.017,4.014 8.132,4.014c2.076,0 3.881,-0.571 5.415,-1.713c1.534,-1.142 2.82,-3.097 3.858,-5.865l1.073,0.692c-0.484,3.16 -1.892,6.038 -4.222,8.633c-2.33,2.595 -5.248,3.893 -8.754,3.893c-3.806,0 -7.065,-1.482 -9.775,-4.446c-2.711,-2.964 -4.066,-6.949 -4.066,-11.955c0,-5.421 1.39,-9.648 4.17,-12.682c2.78,-3.033 6.269,-4.55 10.467,-4.55c3.553,0 6.471,1.171 8.754,3.512c2.284,2.341 3.426,5.473 3.426,9.395l-21.903,0Zm0,-2.007l14.672,0c-0.115,-2.03 -0.358,-3.46 -0.727,-4.291c-0.577,-1.292 -1.436,-2.307 -2.578,-3.045c-1.142,-0.738 -2.336,-1.107 -3.581,-1.107c-1.915,0 -3.628,0.744 -5.138,2.232c-1.511,1.488 -2.393,3.558 -2.647,6.211Z" style="fill:#1c1a19;fill-rule:nonzero;"/><path d="M945.768,154.414l0,20.831c0,2.953 0.323,4.821 0.969,5.606c0.854,1.015 1.995,1.523 3.426,1.523l2.872,0l0,1.246l-18.928,0l0,-1.246l1.419,0c0.923,0 1.765,-0.231 2.526,-0.692c0.761,-0.461 1.286,-1.084 1.574,-1.869c0.288,-0.784 0.433,-2.307 0.433,-4.568l0,-20.831l-6.159,0l0,-2.491l6.159,0l0,-2.076c0,-3.16 0.508,-5.836 1.523,-8.028c1.015,-2.191 2.566,-3.962 4.654,-5.312c2.088,-1.35 4.435,-2.024 7.042,-2.024c2.422,0 4.648,0.784 6.678,2.353c1.338,1.038 2.007,2.203 2.007,3.495c0,0.692 -0.3,1.344 -0.9,1.955c-0.6,0.611 -1.246,0.917 -1.938,0.917c-0.531,0 -1.09,-0.19 -1.678,-0.571c-0.588,-0.381 -1.309,-1.2 -2.163,-2.457c-0.854,-1.257 -1.638,-2.105 -2.353,-2.543c-0.715,-0.438 -1.511,-0.657 -2.388,-0.657c-1.061,0 -1.961,0.283 -2.699,0.848c-0.738,0.565 -1.269,1.442 -1.592,2.63c-0.323,1.188 -0.484,4.25 -0.484,9.187l0,2.284l8.166,0l0,2.491l-8.166,0Z" style="fill:#1c1a19;fill-rule:nonzero;"/><path d="M965.852,163.861c-0.023,4.706 1.119,8.397 3.426,11.073c2.307,2.676 5.017,4.014 8.132,4.014c2.076,0 3.881,-0.571 5.415,-1.713c1.534,-1.142 2.82,-3.097 3.858,-5.865l1.073,0.692c-0.484,3.16 -1.892,6.038 -4.222,8.633c-2.33,2.595 -5.248,3.893 -8.754,3.893c-3.806,0 -7.065,-1.482 -9.775,-4.446c-2.711,-2.964 -4.066,-6.949 -4.066,-11.955c0,-5.421 1.39,-9.648 4.17,-12.682c2.78,-3.033 6.269,-4.55 10.467,-4.55c3.553,0 6.471,1.171 8.754,3.512c2.284,2.341 3.426,5.473 3.426,9.395l-21.903,0Zm0,-2.007l14.672,0c-0.115,-2.03 -0.358,-3.46 -0.727,-4.291c-0.577,-1.292 -1.436,-2.307 -2.578,-3.045c-1.142,-0.738 -2.336,-1.107 -3.581,-1.107c-1.915,0 -3.628,0.744 -5.138,2.232c-1.511,1.488 -2.393,3.558 -2.647,6.211Z" style="fill:#1c1a19;fill-rule:nonzero;"/><path d="M1004.793,150.988l0,7.128c2.653,-4.752 5.375,-7.128 8.166,-7.128c1.269,0 2.318,0.386 3.149,1.159c0.83,0.773 1.246,1.667 1.246,2.682c0,0.9 -0.3,1.661 -0.9,2.284c-0.6,0.623 -1.315,0.934 -2.145,0.934c-0.807,0 -1.713,-0.398 -2.716,-1.194c-1.003,-0.796 -1.747,-1.194 -2.232,-1.194c-0.415,0 -0.865,0.231 -1.35,0.692c-1.038,0.946 -2.111,2.503 -3.218,4.671l0,15.191c0,1.753 0.219,3.08 0.657,3.979c0.3,0.623 0.83,1.142 1.592,1.557c0.761,0.415 1.857,0.623 3.287,0.623l0,1.246l-16.229,0l0,-1.246c1.615,0 2.814,-0.254 3.599,-0.761c0.577,-0.369 0.98,-0.957 1.211,-1.765c0.115,-0.392 0.173,-1.511 0.173,-3.356l0,-12.284c0,-3.691 -0.075,-5.888 -0.225,-6.592c-0.15,-0.704 -0.427,-1.217 -0.83,-1.54c-0.404,-0.323 -0.905,-0.484 -1.505,-0.484c-0.715,0 -1.523,0.173 -2.422,0.519l-0.346,-1.246l9.585,-3.875l1.453,0Z" style="fill:#1c1a19;fill-rule:nonzero;"/><path d="M1027.991,163.861c-0.023,4.706 1.119,8.397 3.426,11.073c2.307,2.676 5.017,4.014 8.132,4.014c2.076,0 3.881,-0.571 5.415,-1.713c1.534,-1.142 2.82,-3.097 3.858,-5.865l1.073,0.692c-0.484,3.16 -1.892,6.038 -4.222,8.633c-2.33,2.595 -5.248,3.893 -8.754,3.893c-3.806,0 -7.065,-1.482 -9.775,-4.446c-2.711,-2.964 -4.066,-6.949 -4.066,-11.955c0,-5.421 1.39,-9.648 4.17,-12.682c2.78,-3.033 6.269,-4.55 10.467,-4.55c3.553,0 6.471,1.171 8.754,3.512c2.284,2.341 3.426,5.473 3.426,9.395l-21.903,0Zm0,-2.007l14.672,0c-0.115,-2.03 -0.358,-3.46 -0.727,-4.291c-0.577,-1.292 -1.436,-2.307 -2.578,-3.045c-1.142,-0.738 -2.336,-1.107 -3.581,-1.107c-1.915,0 -3.628,0.744 -5.138,2.232c-1.511,1.488 -2.393,3.558 -2.647,6.211Z" style="fill:#1c1a19;fill-rule:nonzero;"/><path d="M1066.898,157.701c3.714,-4.475 7.255,-6.713 10.623,-6.713c1.73,0 3.218,0.433 4.464,1.298c1.246,0.865 2.238,2.29 2.976,4.273c0.508,1.384 0.761,3.506 0.761,6.367l0,13.53c0,2.007 0.161,3.368 0.484,4.083c0.254,0.577 0.663,1.027 1.228,1.35c0.565,0.323 1.609,0.484 3.132,0.484l0,1.246l-15.675,0l0,-1.246l0.657,0c1.476,0 2.509,-0.225 3.097,-0.675c0.588,-0.45 0.998,-1.113 1.228,-1.99c0.092,-0.346 0.138,-1.43 0.138,-3.253l0,-12.976c0,-2.884 -0.375,-4.977 -1.125,-6.28c-0.75,-1.303 -2.013,-1.955 -3.789,-1.955c-2.745,0 -5.479,1.499 -8.201,4.498l0,16.713c0,2.145 0.127,3.472 0.381,3.979c0.323,0.669 0.767,1.159 1.332,1.471c0.565,0.311 1.713,0.467 3.443,0.467l0,1.246l-15.675,0l0,-1.246l0.692,0c1.615,0 2.705,-0.409 3.27,-1.228c0.565,-0.819 0.848,-2.382 0.848,-4.689l0,-11.765c0,-3.806 -0.087,-6.125 -0.26,-6.955c-0.173,-0.83 -0.438,-1.396 -0.796,-1.696c-0.358,-0.3 -0.836,-0.45 -1.436,-0.45c-0.646,0 -1.419,0.173 -2.318,0.519l-0.519,-1.246l9.55,-3.875l1.488,0l0,6.713Z" style="fill:#1c1a19;fill-rule:nonzero;"/><path d="M1123.556,171.577c-0.854,4.175 -2.526,7.388 -5.017,9.637c-2.491,2.249 -5.248,3.374 -8.27,3.374c-3.599,0 -6.736,-1.511 -9.412,-4.533c-2.676,-3.022 -4.014,-7.105 -4.014,-12.249c0,-4.983 1.482,-9.031 4.446,-12.146c2.964,-3.114 6.523,-4.671 10.675,-4.671c3.114,0 5.675,0.825 7.682,2.474c2.007,1.649 3.01,3.362 3.01,5.138c0,0.877 -0.283,1.586 -0.848,2.128c-0.565,0.542 -1.355,0.813 -2.37,0.813c-1.361,0 -2.388,-0.438 -3.08,-1.315c-0.392,-0.484 -0.652,-1.407 -0.779,-2.768c-0.127,-1.361 -0.594,-2.399 -1.401,-3.114c-0.807,-0.692 -1.926,-1.038 -3.356,-1.038c-2.307,0 -4.164,0.854 -5.571,2.561c-1.869,2.261 -2.803,5.248 -2.803,8.962c0,3.783 0.929,7.122 2.786,10.017c1.857,2.895 4.366,4.343 7.526,4.343c2.261,0 4.291,-0.773 6.09,-2.318c1.269,-1.061 2.503,-2.987 3.702,-5.779l1.003,0.484Z" style="fill:#1c1a19;fill-rule:nonzero;"/><path d="M1136.962,163.861c-0.023,4.706 1.119,8.397 3.426,11.073c2.307,2.676 5.017,4.014 8.132,4.014c2.076,0 3.881,-0.571 5.415,-1.713c1.534,-1.142 2.82,-3.097 3.858,-5.865l1.073,0.692c-0.484,3.16 -1.892,6.038 -4.222,8.633c-2.33,2.595 -5.248,3.893 -8.754,3.893c-3.806,0 -7.065,-1.482 -9.775,-4.446c-2.711,-2.964 -4.066,-6.949 -4.066,-11.955c0,-5.421 1.39,-9.648 4.17,-12.682c2.78,-3.033 6.269,-4.55 10.467,-4.55c3.553,0 6.471,1.171 8.754,3.512c2.284,2.341 3.426,5.473 3.426,9.395l-21.903,0Zm0,-2.007l14.672,0c-0.115,-2.03 -0.358,-3.46 -0.727,-4.291c-0.577,-1.292 -1.436,-2.307 -2.578,-3.045c-1.142,-0.738 -2.336,-1.107 -3.581,-1.107c-1.915,0 -3.628,0.744 -5.138,2.232c-1.511,1.488 -2.393,3.558 -2.647,6.211Z" style="fill:#1c1a19;fill-rule:nonzero;"/><path d="M3011.118,135.521l1.211,14.81l-1.211,0c-1.223,-3.691 -2.803,-6.471 -4.741,-8.339c-2.791,-2.699 -6.378,-4.049 -10.761,-4.049c-5.975,0 -10.519,2.365 -13.633,7.094c-2.607,3.991 -3.91,8.743 -3.91,14.256c0,4.475 0.865,8.558 2.595,12.249c1.73,3.691 3.997,6.396 6.799,8.114c2.803,1.719 5.681,2.578 8.633,2.578c1.73,0 3.403,-0.219 5.017,-0.657c1.615,-0.438 3.172,-1.084 4.671,-1.938l0,-13.564c0,-2.353 -0.179,-3.893 -0.536,-4.619c-0.358,-0.727 -0.911,-1.28 -1.661,-1.661c-0.75,-0.381 -2.07,-0.571 -3.962,-0.571l0,-1.315l18.166,0l0,1.315l-0.865,0c-1.799,0 -3.033,0.6 -3.702,1.799c-0.461,0.854 -0.692,2.538 -0.692,5.052l0,14.36c-2.653,1.43 -5.271,2.48 -7.855,3.149c-2.584,0.669 -5.456,1.003 -8.616,1.003c-9.066,0 -15.952,-2.907 -20.658,-8.72c-3.529,-4.36 -5.294,-9.389 -5.294,-15.087c0,-4.129 0.992,-8.085 2.976,-11.869c2.353,-4.498 5.583,-7.959 9.689,-10.381c3.437,-2.007 7.497,-3.01 12.18,-3.01c1.707,0 3.258,0.138 4.654,0.415c1.396,0.277 3.374,0.888 5.934,1.834c1.292,0.484 2.157,0.727 2.595,0.727c0.438,0 0.813,-0.202 1.125,-0.606c0.311,-0.404 0.502,-1.194 0.571,-2.37l1.28,0Z" style="fill:#1c1a19;fill-rule:nonzero;"/><path d="M3029.887,163.757c-0.023,4.706 1.119,8.397 3.426,11.073c2.307,2.676 5.017,4.014 8.132,4.014c2.076,0 3.881,-0.571 5.415,-1.713c1.534,-1.142 2.82,-3.097 3.858,-5.865l1.073,0.692c-0.484,3.16 -1.892,6.038 -4.222,8.633c-2.33,2.595 -5.248,3.893 -8.754,3.893c-3.806,0 -7.065,-1.482 -9.775,-4.446c-2.711,-2.964 -4.066,-6.949 -4.066,-11.955c0,-5.421 1.39,-9.648 4.17,-12.682c2.78,-3.033 6.269,-4.55 10.467,-4.55c3.553,0 6.471,1.171 8.754,3.512c2.284,2.341 3.426,5.473 3.426,9.395l-21.903,0Zm0,-2.007l14.672,0c-0.115,-2.03 -0.358,-3.46 -0.727,-4.291c-0.577,-1.292 -1.436,-2.307 -2.578,-3.045c-1.142,-0.738 -2.336,-1.107 -3.581,-1.107c-1.915,0 -3.628,0.744 -5.138,2.232c-1.511,1.488 -2.393,3.558 -2.647,6.211Z" style="fill:#1c1a19;fill-rule:nonzero;"/><path d="M3068.794,157.598c3.714,-4.475 7.255,-6.713 10.623,-6.713c1.73,0 3.218,0.433 4.464,1.298c1.246,0.865 2.238,2.29 2.976,4.273c0.508,1.384 0.761,3.506 0.761,6.367l0,13.53c0,2.007 0.161,3.368 0.484,4.083c0.254,0.577 0.663,1.027 1.228,1.35c0.565,0.323 1.609,0.484 3.132,0.484l0,1.246l-15.675,0l0,-1.246l0.657,0c1.476,0 2.509,-0.225 3.097,-0.675c0.588,-0.45 0.998,-1.113 1.228,-1.99c0.092,-0.346 0.138,-1.43 0.138,-3.253l0,-12.976c0,-2.884 -0.375,-4.977 -1.125,-6.28c-0.75,-1.303 -2.013,-1.955 -3.789,-1.955c-2.745,0 -5.479,1.499 -8.201,4.498l0,16.713c0,2.145 0.127,3.472 0.381,3.979c0.323,0.669 0.767,1.159 1.332,1.471c0.565,0.311 1.713,0.467 3.443,0.467l0,1.246l-15.675,0l0,-1.246l0.692,0c1.615,0 2.705,-0.409 3.27,-1.228c0.565,-0.819 0.848,-2.382 0.848,-4.689l0,-11.765c0,-3.806 -0.087,-6.125 -0.26,-6.955c-0.173,-0.83 -0.438,-1.396 -0.796,-1.696c-0.358,-0.3 -0.836,-0.45 -1.436,-0.45c-0.646,0 -1.419,0.173 -2.318,0.519l-0.519,-1.246l9.55,-3.875l1.488,0l0,6.713Z" style="fill:#1c1a19;fill-rule:nonzero;"/><path d="M3103.86,163.757c-0.023,4.706 1.119,8.397 3.426,11.073c2.307,2.676 5.017,4.014 8.132,4.014c2.076,0 3.881,-0.571 5.415,-1.713c1.534,-1.142 2.82,-3.097 3.858,-5.865l1.073,0.692c-0.484,3.16 -1.892,6.038 -4.222,8.633c-2.33,2.595 -5.248,3.893 -8.754,3.893c-3.806,0 -7.065,-1.482 -9.775,-4.446c-2.711,-2.964 -4.066,-6.949 -4.066,-11.955c0,-5.421 1.39,-9.648 4.17,-12.682c2.78,-3.033 6.269,-4.55 10.467,-4.55c3.553,0 6.471,1.171 8.754,3.512c2.284,2.341 3.426,5.473 3.426,9.395l-21.903,0Zm0,-2.007l14.672,0c-0.115,-2.03 -0.358,-3.46 -0.727,-4.291c-0.577,-1.292 -1.436,-2.307 -2.578,-3.045c-1.142,-0.738 -2.336,-1.107 -3.581,-1.107c-1.915,0 -3.628,0.744 -5.138,2.232c-1.511,1.488 -2.393,3.558 -2.647,6.211Z" style="fill:#1c1a19;fill-rule:nonzero;"/><path d="M3142.802,150.885l0,7.128c2.653,-4.752 5.375,-7.128 8.166,-7.128c1.269,0 2.318,0.386 3.149,1.159c0.83,0.773 1.246,1.667 1.246,2.682c0,0.9 -0.3,1.661 -0.9,2.284c-0.6,0.623 -1.315,0.934 -2.145,0.934c-0.807,0 -1.713,-0.398 -2.716,-1.194c-1.003,-0.796 -1.747,-1.194 -2.232,-1.194c-0.415,0 -0.865,0.231 -1.35,0.692c-1.038,0.946 -2.111,2.503 -3.218,4.671l0,15.191c0,1.753 0.219,3.08 0.657,3.979c0.3,0.623 0.83,1.142 1.592,1.557c0.761,0.415 1.857,0.623 3.287,0.623l0,1.246l-16.229,0l0,-1.246c1.615,0 2.814,-0.254 3.599,-0.761c0.577,-0.369 0.98,-0.957 1.211,-1.765c0.115,-0.392 0.173,-1.511 0.173,-3.356l0,-12.284c0,-3.691 -0.075,-5.888 -0.225,-6.592c-0.15,-0.704 -0.427,-1.217 -0.83,-1.54c-0.404,-0.323 -0.905,-0.484 -1.505,-0.484c-0.715,0 -1.523,0.173 -2.422,0.519l-0.346,-1.246l9.585,-3.875l1.453,0Z" style="fill:#1c1a19;fill-rule:nonzero;"/><path d="M3178.63,178.947c-3.253,2.514 -5.294,3.968 -6.125,4.36c-1.246,0.577 -2.572,0.865 -3.979,0.865c-2.191,0 -3.997,-0.75 -5.415,-2.249c-1.419,-1.499 -2.128,-3.472 -2.128,-5.917c0,-1.546 0.346,-2.884 1.038,-4.014c0.946,-1.569 2.589,-3.045 4.931,-4.429c2.341,-1.384 6.234,-3.068 11.678,-5.052l0,-1.246c0,-3.16 -0.502,-5.329 -1.505,-6.505c-1.003,-1.176 -2.463,-1.765 -4.377,-1.765c-1.453,0 -2.607,0.392 -3.46,1.176c-0.877,0.784 -1.315,1.684 -1.315,2.699l0.069,2.007c0,1.061 -0.271,1.88 -0.813,2.457c-0.542,0.577 -1.251,0.865 -2.128,0.865c-0.854,0 -1.551,-0.3 -2.093,-0.9c-0.542,-0.6 -0.813,-1.419 -0.813,-2.457c0,-1.984 1.015,-3.806 3.045,-5.467c2.03,-1.661 4.879,-2.491 8.547,-2.491c2.814,0 5.121,0.473 6.921,1.419c1.361,0.715 2.365,1.834 3.01,3.356c0.415,0.992 0.623,3.022 0.623,6.09l0,10.761c0,3.022 0.058,4.873 0.173,5.554c0.115,0.681 0.306,1.136 0.571,1.367c0.265,0.231 0.571,0.346 0.917,0.346c0.369,0 0.692,-0.081 0.969,-0.242c0.484,-0.3 1.419,-1.142 2.803,-2.526l0,1.938c-2.584,3.46 -5.052,5.19 -7.405,5.19c-1.13,0 -2.03,-0.392 -2.699,-1.176c-0.669,-0.784 -1.015,-2.122 -1.038,-4.014Zm0,-2.249l0,-12.076c-3.483,1.384 -5.732,2.365 -6.748,2.941c-1.822,1.015 -3.126,2.076 -3.91,3.183c-0.784,1.107 -1.176,2.318 -1.176,3.633c0,1.661 0.496,3.039 1.488,4.135c0.992,1.096 2.134,1.644 3.426,1.644c1.753,0 4.06,-1.153 6.921,-3.46Z" style="fill:#1c1a19;fill-rule:nonzero;"/><path d="M3204.872,141.404l0,10.415l7.405,0l0,2.422l-7.405,0l0,20.554c0,2.053 0.294,3.437 0.882,4.152c0.588,0.715 1.344,1.073 2.266,1.073c0.761,0 1.499,-0.236 2.215,-0.709c0.715,-0.473 1.269,-1.171 1.661,-2.093l1.35,0c-0.807,2.261 -1.949,3.962 -3.426,5.104c-1.476,1.142 -2.999,1.713 -4.568,1.713c-1.061,0 -2.099,-0.294 -3.114,-0.882c-1.015,-0.588 -1.765,-1.43 -2.249,-2.526c-0.484,-1.096 -0.727,-2.786 -0.727,-5.069l0,-21.315l-5.017,0l0,-1.142c1.269,-0.508 2.566,-1.367 3.893,-2.578c1.326,-1.211 2.509,-2.647 3.547,-4.308c0.531,-0.877 1.269,-2.48 2.215,-4.81l1.073,0Z" style="fill:#1c1a19;fill-rule:nonzero;"/><path d="M3224.229,163.757c-0.023,4.706 1.119,8.397 3.426,11.073c2.307,2.676 5.017,4.014 8.132,4.014c2.076,0 3.881,-0.571 5.415,-1.713c1.534,-1.142 2.82,-3.097 3.858,-5.865l1.073,0.692c-0.484,3.16 -1.892,6.038 -4.222,8.633c-2.33,2.595 -5.248,3.893 -8.754,3.893c-3.806,0 -7.065,-1.482 -9.775,-4.446c-2.711,-2.964 -4.066,-6.949 -4.066,-11.955c0,-5.421 1.39,-9.648 4.17,-12.682c2.78,-3.033 6.269,-4.55 10.467,-4.55c3.553,0 6.471,1.171 8.754,3.512c2.284,2.341 3.426,5.473 3.426,9.395l-21.903,0Zm0,-2.007l14.672,0c-0.115,-2.03 -0.358,-3.46 -0.727,-4.291c-0.577,-1.292 -1.436,-2.307 -2.578,-3.045c-1.142,-0.738 -2.336,-1.107 -3.581,-1.107c-1.915,0 -3.628,0.744 -5.138,2.232c-1.511,1.488 -2.393,3.558 -2.647,6.211Z" style="fill:#1c1a19;fill-rule:nonzero;"/><path d="M3276.285,179.951c-1.546,1.615 -3.057,2.774 -4.533,3.478c-1.476,0.704 -3.068,1.055 -4.775,1.055c-3.46,0 -6.482,-1.448 -9.066,-4.343c-2.584,-2.895 -3.875,-6.615 -3.875,-11.159c0,-4.544 1.43,-8.703 4.291,-12.474c2.86,-3.772 6.54,-5.658 11.038,-5.658c2.791,0 5.098,0.888 6.921,2.664l0,-5.848c0,-3.622 -0.087,-5.848 -0.26,-6.678c-0.173,-0.83 -0.444,-1.396 -0.813,-1.696c-0.369,-0.3 -0.83,-0.45 -1.384,-0.45c-0.6,0 -1.396,0.185 -2.388,0.554l-0.45,-1.211l9.447,-3.875l1.557,0l0,36.644c0,3.714 0.087,5.98 0.26,6.799c0.173,0.819 0.45,1.39 0.83,1.713c0.381,0.323 0.825,0.484 1.332,0.484c0.623,0 1.453,-0.196 2.491,-0.588l0.381,1.211l-9.412,3.91l-1.592,0l0,-4.533Zm0,-2.422l0,-16.332c-0.138,-1.569 -0.554,-2.999 -1.246,-4.291c-0.692,-1.292 -1.609,-2.266 -2.751,-2.924c-1.142,-0.657 -2.255,-0.986 -3.339,-0.986c-2.03,0 -3.841,0.911 -5.433,2.734c-2.099,2.399 -3.149,5.906 -3.149,10.519c0,4.66 1.015,8.23 3.045,10.71c2.03,2.48 4.291,3.72 6.782,3.72c2.099,0 4.129,-1.05 6.09,-3.149Z" style="fill:#1c1a19;fill-rule:nonzero;"/><path d="M1633.713,318.2l13.287,19.931l-13.287,19.931" style="fill:none;stroke:#1c1a19;stroke-width:8.86px;stroke-linejoin:miter;stroke-miterlimit:10;"/><path d="M1179.883,338.131l467.118,0" style="fill:none;stroke:#1c1a19;stroke-width:8.86px;"/><path d="M2932.926,318.2l13.287,19.931l-13.287,19.931" style="fill:none;stroke:#1c1a19;stroke-width:8.86px;stroke-linejoin:miter;stroke-miterlimit:10;"/><path d="M2479.095,338.131l467.118,0" style="fill:none;stroke:#1c1a19;stroke-width:8.86px;"/><g><path d="M1097.205,220.021c13.046,0 23.622,10.576 23.622,23.622c0,45.26 0,143.716 -0,188.976c-0,13.046 -10.576,23.622 -23.622,23.622c-45.26,0 -143.716,0 -188.976,0c-13.046,-0 -23.622,-10.576 -23.622,-23.622c0,-45.26 0,-143.716 -0,-188.976c0,-13.046 10.576,-23.622 23.622,-23.622c45.26,0 143.716,0 188.976,0Z" style="fill:#fff;stroke:#1c1a19;stroke-width:8.86px;"/><path d="M976.961,403.853l18.409,0l0.807,-0.161l0.646,-0.323l0.484,-0.323l0.484,-2.584l0,-40.37l-70.405,0l0,-3.553l70.405,0l0,-22.607l10.012,1.776l20.831,-19.862l-65.56,0l0,-3.553l68.951,0l2.261,-2.261l0.323,0.484l3.068,-2.584l9.527,7.912l-4.36,2.584l-5.975,2.422l-10.335,7.105l-11.949,7.428l-5.652,3.23l-0.807,0.484l0,17.44l52.158,0l8.72,-8.72l10.335,8.72l0,3.553l-71.212,0l0,40.37l-0.161,2.099l-0.323,2.261l-0.646,1.938l-1.13,2.099l-1.453,1.776l-1.776,1.292l-1.938,1.13l-2.099,0.807l-2.099,0.323l-2.261,0.161l0,-5.329l-17.278,-2.584l0,-2.584Zm-32.619,-109.321l-0.323,5.006l-0.646,4.683l-0.969,4.198l-1.453,3.875l-1.776,3.553l-2.261,3.23l-2.584,2.745l-3.875,0.969l-3.391,-1.938l-0.969,-3.875l1.938,-3.391l1.776,-1.292l1.776,-1.776l1.776,-2.261l1.615,-2.745l1.453,-3.23l1.292,-4.037l1.13,-4.36l0.969,-4.844l0.807,-5.49l0.807,-5.975l1.615,-0.161l0.807,6.136l0.323,4.521l53.611,0l0,-26.16l10.335,1.776l2.584,1.776l-2.584,1.453l0,21.154l56.518,0l0.323,-0.484l0.161,-0.161l4.683,-3.714l9.527,7.751l-4.36,2.584l-2.907,1.292l-4.198,5.813l-6.621,7.912l-8.235,8.881l-1.292,-0.969l1.938,-3.714l7.59,-16.148l2.261,-5.652l-119.171,0l0,3.068Z" style="fill:#1c1a19;fill-rule:nonzero;"/></g><g><path d="M3223.19,220.021c13.046,0 23.622,10.576 23.622,23.622c-0,45.26 -0,143.716 -0,188.976c-0,13.046 -10.576,23.622 -23.622,23.622c-45.26,0 -143.716,0 -188.976,0c-13.046,-0 -23.622,-10.576 -23.622,-23.622l0,-188.976c0,-13.046 10.576,-23.622 23.622,-23.622l188.976,0Z" style="fill:#fff;stroke:#1c1a19;stroke-width:8.86px;"/><path d="M3068.954,325.051l0.807,-9.689l126.115,0l-46.183,25.352l49.574,0l-0.969,9.689l-55.226,0l-2.907,36.171l-53.127,0l0.807,-9.689l19.539,0l2.099,-26.483l-54.903,0l0.807,-9.689l55.549,0l28.582,-15.663l-70.566,0Zm-10.981,-13.403l1.453,-17.44l56.195,0l0.484,-4.521l31.004,0l-0.484,4.521l56.195,0l-1.453,17.44l-29.712,0l0.646,-7.751l-83.969,0l-0.646,7.751l-29.712,0Z" style="fill:#1c1a19;fill-rule:nonzero;"/></g><path d="M1364.76,253.631l0,16.54l-1.28,0c-1.546,-4.521 -3.864,-7.959 -6.955,-10.312c-3.091,-2.353 -6.471,-3.529 -10.139,-3.529c-3.506,0 -6.425,0.986 -8.754,2.959c-2.33,1.972 -3.979,4.723 -4.948,8.253c-0.969,3.529 -1.453,7.151 -1.453,10.865c0,4.498 0.531,8.443 1.592,11.834c1.061,3.391 2.774,5.882 5.138,7.474c2.365,1.592 5.173,2.388 8.426,2.388c1.13,0 2.29,-0.121 3.478,-0.363c1.188,-0.242 2.405,-0.594 3.651,-1.055l0,-9.758c0,-1.845 -0.127,-3.039 -0.381,-3.581c-0.254,-0.542 -0.779,-1.032 -1.574,-1.471c-0.796,-0.438 -1.759,-0.657 -2.889,-0.657l-1.211,0l0,-1.28l22.803,0l0,1.28c-1.73,0.115 -2.935,0.352 -3.616,0.709c-0.681,0.358 -1.205,0.952 -1.574,1.782c-0.208,0.438 -0.311,1.511 -0.311,3.218l0,9.758c-2.999,1.338 -6.119,2.347 -9.36,3.028c-3.241,0.681 -6.603,1.021 -10.087,1.021c-4.452,0 -8.149,-0.606 -11.09,-1.817c-2.941,-1.211 -5.536,-2.803 -7.786,-4.775c-2.249,-1.972 -4.008,-4.193 -5.277,-6.661c-1.615,-3.183 -2.422,-6.748 -2.422,-10.692c0,-7.059 2.48,-13.022 7.44,-17.89c4.96,-4.867 11.2,-7.301 18.72,-7.301c2.33,0 4.429,0.185 6.298,0.554c1.015,0.185 2.659,0.709 4.931,1.574c2.272,0.865 3.616,1.298 4.031,1.298c0.646,0 1.246,-0.236 1.799,-0.709c0.554,-0.473 1.061,-1.367 1.523,-2.682l1.28,0Z" style="fill:#1c1a19;fill-rule:nonzero;"/><path d="M1408.165,269.272l0,25.329c0,2.468 0.231,4.008 0.692,4.619c0.461,0.611 1.396,0.998 2.803,1.159l0,1.246l-13.184,0l0,-4.325c-1.546,1.845 -3.091,3.189 -4.637,4.031c-1.546,0.842 -3.276,1.263 -5.19,1.263c-1.822,0 -3.443,-0.559 -4.862,-1.678c-1.419,-1.119 -2.37,-2.428 -2.855,-3.927c-0.484,-1.499 -0.727,-4.118 -0.727,-7.855l0,-12.838c0,-2.445 -0.225,-3.968 -0.675,-4.568c-0.45,-0.6 -1.39,-0.992 -2.82,-1.176l0,-1.28l13.184,0l0,22.111c0,2.307 0.11,3.795 0.329,4.464c0.219,0.669 0.565,1.176 1.038,1.523c0.473,0.346 1.021,0.519 1.644,0.519c0.83,0 1.58,-0.219 2.249,-0.657c0.923,-0.6 2.03,-1.811 3.322,-3.633l0,-17.301c0,-2.445 -0.225,-3.968 -0.675,-4.568c-0.45,-0.6 -1.39,-0.992 -2.82,-1.176l0,-1.28l13.184,0Z" style="fill:#1c1a19;fill-rule:nonzero;"/><path d="M1427.66,253.597c1.499,0 2.768,0.525 3.806,1.574c1.038,1.05 1.557,2.313 1.557,3.789c0,1.476 -0.525,2.734 -1.574,3.772c-1.05,1.038 -2.313,1.557 -3.789,1.557c-1.476,0 -2.734,-0.519 -3.772,-1.557c-1.038,-1.038 -1.557,-2.295 -1.557,-3.772c0,-1.476 0.519,-2.739 1.557,-3.789c1.038,-1.05 2.295,-1.574 3.772,-1.574Zm4.844,15.675l0,25.641c0,2.284 0.265,3.743 0.796,4.377c0.531,0.634 1.569,0.998 3.114,1.09l0,1.246l-17.474,0l0,-1.246c1.43,-0.046 2.491,-0.461 3.183,-1.246c0.461,-0.531 0.692,-1.938 0.692,-4.222l0,-18.893c0,-2.284 -0.265,-3.743 -0.796,-4.377c-0.531,-0.634 -1.557,-0.998 -3.08,-1.09l0,-1.28l13.564,0Z" style="fill:#1c1a19;fill-rule:nonzero;"/><path d="M1474.561,254.704l0,37.232c0,2.514 0.069,4.002 0.208,4.464c0.185,0.761 0.536,1.326 1.055,1.696c0.519,0.369 1.424,0.6 2.716,0.692l0,1.142l-13.668,2.664l0,-5.121c-1.638,1.984 -3.097,3.333 -4.377,4.049c-1.28,0.715 -2.728,1.073 -4.343,1.073c-4.129,0 -7.393,-1.845 -9.793,-5.536c-1.938,-2.999 -2.907,-6.678 -2.907,-11.038c0,-3.483 0.6,-6.603 1.799,-9.36c1.2,-2.757 2.843,-4.839 4.931,-6.246c2.088,-1.407 4.331,-2.111 6.73,-2.111c1.546,0 2.918,0.3 4.118,0.9c1.2,0.6 2.48,1.649 3.841,3.149l0,-9.758c0,-2.468 -0.104,-3.956 -0.311,-4.464c-0.277,-0.669 -0.692,-1.165 -1.246,-1.488c-0.554,-0.323 -1.592,-0.484 -3.114,-0.484l0,-1.453l14.36,0Zm-9.689,21.938c-1.707,-3.276 -3.795,-4.914 -6.263,-4.914c-0.854,0 -1.557,0.231 -2.111,0.692c-0.854,0.715 -1.551,1.972 -2.093,3.772c-0.542,1.799 -0.813,4.556 -0.813,8.27c0,4.083 0.3,7.105 0.9,9.066c0.6,1.961 1.419,3.38 2.457,4.256c0.531,0.438 1.257,0.657 2.18,0.657c2.03,0 3.945,-1.592 5.744,-4.775l0,-17.024Z" style="fill:#1c1a19;fill-rule:nonzero;"/><path d="M1513.468,284.289l-17.751,0c0.208,4.291 1.35,7.682 3.426,10.173c1.592,1.915 3.506,2.872 5.744,2.872c1.384,0 2.641,-0.386 3.772,-1.159c1.13,-0.773 2.341,-2.163 3.633,-4.17l1.176,0.761c-1.753,3.576 -3.691,6.107 -5.813,7.595c-2.122,1.488 -4.579,2.232 -7.37,2.232c-4.798,0 -8.432,-1.845 -10.9,-5.536c-1.984,-2.976 -2.976,-6.667 -2.976,-11.073c0,-5.398 1.459,-9.694 4.377,-12.889c2.918,-3.195 6.338,-4.792 10.26,-4.792c3.276,0 6.119,1.344 8.53,4.031c2.411,2.687 3.708,6.673 3.893,11.955Zm-8.512,-2.318c0,-3.714 -0.202,-6.263 -0.606,-7.647c-0.404,-1.384 -1.032,-2.434 -1.886,-3.149c-0.484,-0.415 -1.13,-0.623 -1.938,-0.623c-1.2,0 -2.18,0.588 -2.941,1.765c-1.361,2.053 -2.042,4.867 -2.042,8.443l0,1.211l9.412,0Z" style="fill:#1c1a19;fill-rule:nonzero;"/><path d="M2611.511,253.631l0,16.54l-1.28,0c-1.546,-4.521 -3.864,-7.959 -6.955,-10.312c-3.091,-2.353 -6.471,-3.529 -10.139,-3.529c-3.506,0 -6.425,0.986 -8.754,2.959c-2.33,1.972 -3.979,4.723 -4.948,8.253c-0.969,3.529 -1.453,7.151 -1.453,10.865c0,4.498 0.531,8.443 1.592,11.834c1.061,3.391 2.774,5.882 5.138,7.474c2.365,1.592 5.173,2.388 8.426,2.388c1.13,0 2.29,-0.121 3.478,-0.363c1.188,-0.242 2.405,-0.594 3.651,-1.055l0,-9.758c0,-1.845 -0.127,-3.039 -0.381,-3.581c-0.254,-0.542 -0.779,-1.032 -1.574,-1.471c-0.796,-0.438 -1.759,-0.657 -2.889,-0.657l-1.211,0l0,-1.28l22.803,0l0,1.28c-1.73,0.115 -2.935,0.352 -3.616,0.709c-0.681,0.358 -1.205,0.952 -1.574,1.782c-0.208,0.438 -0.311,1.511 -0.311,3.218l0,9.758c-2.999,1.338 -6.119,2.347 -9.36,3.028c-3.241,0.681 -6.603,1.021 -10.087,1.021c-4.452,0 -8.149,-0.606 -11.09,-1.817c-2.941,-1.211 -5.536,-2.803 -7.786,-4.775c-2.249,-1.972 -4.008,-4.193 -5.277,-6.661c-1.615,-3.183 -2.422,-6.748 -2.422,-10.692c0,-7.059 2.48,-13.022 7.44,-17.89c4.96,-4.867 11.2,-7.301 18.72,-7.301c2.33,0 4.429,0.185 6.298,0.554c1.015,0.185 2.659,0.709 4.931,1.574c2.272,0.865 3.616,1.298 4.031,1.298c0.646,0 1.246,-0.236 1.799,-0.709c0.554,-0.473 1.061,-1.367 1.523,-2.682l1.28,0Z" style="fill:#1c1a19;fill-rule:nonzero;"/><path d="M2651.076,284.289l-17.751,0c0.208,4.291 1.35,7.682 3.426,10.173c1.592,1.915 3.506,2.872 5.744,2.872c1.384,0 2.641,-0.386 3.772,-1.159c1.13,-0.773 2.341,-2.163 3.633,-4.17l1.176,0.761c-1.753,3.576 -3.691,6.107 -5.813,7.595c-2.122,1.488 -4.579,2.232 -7.37,2.232c-4.798,0 -8.432,-1.845 -10.9,-5.536c-1.984,-2.976 -2.976,-6.667 -2.976,-11.073c0,-5.398 1.459,-9.694 4.377,-12.889c2.918,-3.195 6.338,-4.792 10.26,-4.792c3.276,0 6.119,1.344 8.53,4.031c2.411,2.687 3.708,6.673 3.893,11.955Zm-8.512,-2.318c0,-3.714 -0.202,-6.263 -0.606,-7.647c-0.404,-1.384 -1.032,-2.434 -1.886,-3.149c-0.484,-0.415 -1.13,-0.623 -1.938,-0.623c-1.2,0 -2.18,0.588 -2.941,1.765c-1.361,2.053 -2.042,4.867 -2.042,8.443l0,1.211l9.412,0Z" style="fill:#1c1a19;fill-rule:nonzero;"/><path d="M2671.886,269.272l0,4.187c1.661,-1.799 3.253,-3.108 4.775,-3.927c1.523,-0.819 3.16,-1.228 4.914,-1.228c2.099,0 3.841,0.582 5.225,1.747c1.384,1.165 2.307,2.612 2.768,4.343c0.369,1.315 0.554,3.841 0.554,7.578l0,12.595c0,2.491 0.225,4.043 0.675,4.654c0.45,0.611 1.39,0.998 2.82,1.159l0,1.246l-16.367,0l0,-1.246c1.223,-0.161 2.099,-0.669 2.63,-1.523c0.369,-0.577 0.554,-2.007 0.554,-4.291l0,-14.395c0,-2.653 -0.104,-4.325 -0.311,-5.017c-0.208,-0.692 -0.559,-1.228 -1.055,-1.609c-0.496,-0.381 -1.044,-0.571 -1.644,-0.571c-1.984,0 -3.829,1.419 -5.536,4.256l0,17.336c0,2.422 0.225,3.956 0.675,4.602c0.45,0.646 1.286,1.05 2.509,1.211l0,1.246l-16.367,0l0,-1.246c1.361,-0.138 2.33,-0.577 2.907,-1.315c0.392,-0.508 0.588,-2.007 0.588,-4.498l0,-18.27c0,-2.445 -0.225,-3.968 -0.675,-4.568c-0.45,-0.6 -1.39,-0.992 -2.82,-1.176l0,-1.28l13.184,0Z" style="fill:#1c1a19;fill-rule:nonzero;"/><path d="M2729.029,284.289l-17.751,0c0.208,4.291 1.35,7.682 3.426,10.173c1.592,1.915 3.506,2.872 5.744,2.872c1.384,0 2.641,-0.386 3.772,-1.159c1.13,-0.773 2.341,-2.163 3.633,-4.17l1.176,0.761c-1.753,3.576 -3.691,6.107 -5.813,7.595c-2.122,1.488 -4.579,2.232 -7.37,2.232c-4.798,0 -8.432,-1.845 -10.9,-5.536c-1.984,-2.976 -2.976,-6.667 -2.976,-11.073c0,-5.398 1.459,-9.694 4.377,-12.889c2.918,-3.195 6.338,-4.792 10.26,-4.792c3.276,0 6.119,1.344 8.53,4.031c2.411,2.687 3.708,6.673 3.893,11.955Zm-8.512,-2.318c0,-3.714 -0.202,-6.263 -0.606,-7.647c-0.404,-1.384 -1.032,-2.434 -1.886,-3.149c-0.484,-0.415 -1.13,-0.623 -1.938,-0.623c-1.2,0 -2.18,0.588 -2.941,1.765c-1.361,2.053 -2.042,4.867 -2.042,8.443l0,1.211l9.412,0Z" style="fill:#1c1a19;fill-rule:nonzero;"/><path d="M2750.046,269.272l0,7.336c2.145,-3.345 4.025,-5.565 5.64,-6.661c1.615,-1.096 3.172,-1.644 4.671,-1.644c1.292,0 2.324,0.398 3.097,1.194c0.773,0.796 1.159,1.92 1.159,3.374c0,1.546 -0.375,2.745 -1.125,3.599c-0.75,0.854 -1.655,1.28 -2.716,1.28c-1.223,0 -2.284,-0.392 -3.183,-1.176c-0.9,-0.784 -1.43,-1.223 -1.592,-1.315c-0.231,-0.138 -0.496,-0.208 -0.796,-0.208c-0.669,0 -1.303,0.254 -1.903,0.761c-0.946,0.784 -1.661,1.903 -2.145,3.356c-0.738,2.238 -1.107,4.706 -1.107,7.405l0,7.44l0.035,1.938c0,1.315 0.081,2.157 0.242,2.526c0.277,0.623 0.686,1.078 1.228,1.367c0.542,0.288 1.459,0.467 2.751,0.536l0,1.246l-17.474,0l0,-1.246c1.407,-0.115 2.359,-0.502 2.855,-1.159c0.496,-0.657 0.744,-2.393 0.744,-5.208l0,-17.89c0,-1.845 -0.092,-3.022 -0.277,-3.529c-0.231,-0.646 -0.565,-1.119 -1.003,-1.419c-0.438,-0.3 -1.211,-0.508 -2.318,-0.623l0,-1.28l13.218,0Z" style="fill:#1c1a19;fill-rule:nonzero;"/><path d="M2789.473,296.85c-3.945,3.483 -7.486,5.225 -10.623,5.225c-1.845,0 -3.38,-0.606 -4.602,-1.817c-1.223,-1.211 -1.834,-2.728 -1.834,-4.55c0,-2.468 1.061,-4.689 3.183,-6.661c2.122,-1.972 6.748,-4.596 13.876,-7.872l0,-3.253c0,-2.445 -0.133,-3.985 -0.398,-4.619c-0.265,-0.634 -0.767,-1.188 -1.505,-1.661c-0.738,-0.473 -1.569,-0.709 -2.491,-0.709c-1.499,0 -2.734,0.334 -3.702,1.003c-0.6,0.415 -0.9,0.9 -0.9,1.453c0,0.484 0.323,1.084 0.969,1.799c0.877,0.992 1.315,1.949 1.315,2.872c0,1.13 -0.421,2.093 -1.263,2.889c-0.842,0.796 -1.944,1.194 -3.305,1.194c-1.453,0 -2.67,-0.438 -3.651,-1.315c-0.98,-0.877 -1.471,-1.903 -1.471,-3.08c0,-1.661 0.657,-3.247 1.972,-4.758c1.315,-1.511 3.149,-2.67 5.502,-3.478c2.353,-0.807 4.798,-1.211 7.336,-1.211c3.068,0 5.496,0.652 7.284,1.955c1.788,1.303 2.947,2.716 3.478,4.239c0.323,0.969 0.484,3.195 0.484,6.678l0,12.561c0,1.476 0.058,2.405 0.173,2.786c0.115,0.381 0.288,0.663 0.519,0.848c0.231,0.185 0.496,0.277 0.796,0.277c0.6,0 1.211,-0.427 1.834,-1.28l1.038,0.83c-1.153,1.707 -2.347,2.947 -3.581,3.72c-1.234,0.773 -2.636,1.159 -4.204,1.159c-1.845,0 -3.287,-0.433 -4.325,-1.298c-1.038,-0.865 -1.672,-2.174 -1.903,-3.927Zm0,-2.526l0,-10.831c-2.791,1.638 -4.867,3.391 -6.228,5.26c-0.9,1.246 -1.35,2.503 -1.35,3.772c0,1.061 0.381,1.995 1.142,2.803c0.577,0.623 1.384,0.934 2.422,0.934c1.153,0 2.491,-0.646 4.014,-1.938Z" style="fill:#1c1a19;fill-rule:nonzero;"/><path d="M2823.432,257.438l0,11.834l7.682,0l0,3.426l-7.682,0l0,19.966c0,1.869 0.087,3.074 0.26,3.616c0.173,0.542 0.479,0.98 0.917,1.315c0.438,0.334 0.842,0.502 1.211,0.502c1.499,0 2.918,-1.142 4.256,-3.426l1.038,0.761c-1.869,4.429 -4.902,6.644 -9.1,6.644c-2.053,0 -3.789,-0.571 -5.208,-1.713c-1.419,-1.142 -2.324,-2.416 -2.716,-3.824c-0.231,-0.784 -0.346,-2.907 -0.346,-6.367l0,-17.474l-4.222,0l0,-1.211c2.907,-2.053 5.381,-4.21 7.422,-6.471c2.042,-2.261 3.824,-4.787 5.346,-7.578l1.142,0Z" style="fill:#1c1a19;fill-rule:nonzero;"/><path d="M2865.142,284.289l-17.751,0c0.208,4.291 1.35,7.682 3.426,10.173c1.592,1.915 3.506,2.872 5.744,2.872c1.384,0 2.641,-0.386 3.772,-1.159c1.13,-0.773 2.341,-2.163 3.633,-4.17l1.176,0.761c-1.753,3.576 -3.691,6.107 -5.813,7.595c-2.122,1.488 -4.579,2.232 -7.37,2.232c-4.798,0 -8.432,-1.845 -10.9,-5.536c-1.984,-2.976 -2.976,-6.667 -2.976,-11.073c0,-5.398 1.459,-9.694 4.377,-12.889c2.918,-3.195 6.338,-4.792 10.26,-4.792c3.276,0 6.119,1.344 8.53,4.031c2.411,2.687 3.708,6.673 3.893,11.955Zm-8.512,-2.318c0,-3.714 -0.202,-6.263 -0.606,-7.647c-0.404,-1.384 -1.032,-2.434 -1.886,-3.149c-0.484,-0.415 -1.13,-0.623 -1.938,-0.623c-1.2,0 -2.18,0.588 -2.941,1.765c-1.361,2.053 -2.042,4.867 -2.042,8.443l0,1.211l9.412,0Z" style="fill:#1c1a19;fill-rule:nonzero;"/></g></svg>