<?xml version="1.0" encoding="UTF-8" standalone="no"?><!DOCTYPE svg PUBLIC "-//W3C//DTD SVG 1.1//EN" "http://www.w3.org/Graphics/SVG/1.1/DTD/svg11.dtd"><svg width="100%" height="100%" viewBox="0 0 4134 709" version="1.1" xmlns="http://www.w3.org/2000/svg" xmlns:xlink="http://www.w3.org/1999/xlink" xml:space="preserve" xmlns:serif="http://www.serif.com/" style="fill-rule:evenodd;clip-rule:evenodd;stroke-linecap:round;stroke-miterlimit:13;"><g><path d="M4074.803,0c15.662,-0 30.683,6.222 41.758,17.297c11.075,11.075 17.297,26.096 17.297,41.758c0,133.463 0,457.088 0,590.551c0,15.662 -6.222,30.683 -17.297,41.758c-11.075,11.075 -26.096,17.297 -41.758,17.297l-4015.748,0c-15.662,0 -30.683,-6.222 -41.758,-17.297c-11.075,-11.075 -17.297,-26.096 -17.297,-41.758l0,-590.551c-0,-15.662 6.222,-30.683 17.297,-41.758c11.075,-11.075 26.096,-17.297 41.758,-17.297l4015.748,-0Z" style="fill:#edece6;"/><g><path d="M2018.42,343.937c-1.732,-8.346 -3.622,-14.291 -5.669,-17.835c-2.047,-3.543 -6.299,-8.622 -12.756,-15.236l2.598,-3.78c12.913,2.835 22.677,5.709 29.291,8.622c6.614,2.913 9.921,6.654 9.921,11.22c0,2.362 -0.827,5.197 -2.48,8.504c-1.654,3.307 -4.37,6.142 -8.15,8.504l62.598,0l9.449,-8.031c0.63,-0.472 1.26,-0.709 1.89,-0.709c1.575,0 4.567,2.126 8.976,6.378c4.409,4.252 8.228,8.031 11.457,11.339c3.228,3.307 4.843,6.024 4.843,8.15c0,2.126 -1.732,3.189 -5.197,3.189c-8.504,0.157 -14.961,1.22 -19.37,3.189c-4.409,1.969 -11.181,7.047 -20.315,15.236l-4.961,-2.362c6.299,-9.291 11.417,-18.898 15.354,-28.819l-141.496,0c0.315,13.701 -1.732,23.622 -6.142,29.764c-4.409,6.142 -9.764,9.213 -16.063,9.213c-3.465,0 -6.299,-0.866 -8.504,-2.598c-2.205,-1.732 -3.307,-3.504 -3.307,-5.315c0,-1.811 1.969,-4.606 5.906,-8.386c8.031,-7.717 13.465,-14.449 16.299,-20.197c2.835,-5.748 4.567,-12.323 5.197,-19.724l5.669,0c0.472,3.307 0.709,6.535 0.709,9.685l64.252,0Zm15.827,101.811l0,50.315c0,9.606 -0.315,15.984 -0.945,19.134c-0.63,3.15 -1.85,5.866 -3.661,8.15c-1.811,2.283 -5.984,4.724 -12.52,7.323c-6.535,2.598 -10.512,3.898 -11.929,3.898c-1.417,0 -2.283,-1.102 -2.598,-3.307c-0.63,-5.197 -3.622,-9.764 -8.976,-13.701c-5.354,-3.937 -13.071,-7.638 -23.15,-11.102l0,-4.724c16.693,2.992 27.323,4.488 31.89,4.488c4.567,0 7.362,-0.866 8.386,-2.598c1.024,-1.732 1.535,-5.118 1.535,-10.157l0,-47.717l-87.165,0c-4.252,0 -7.559,0.551 -9.921,1.654l-4.252,-10.866c3.307,0.787 7.244,1.181 11.811,1.181l89.528,0c0,-10.079 -0.315,-18.11 -0.945,-24.094c8.819,1.575 15.354,3.386 19.606,5.433c6.299,-7.087 13.701,-16.535 22.205,-28.346l-86.457,0c-4.252,0 -7.559,0.551 -9.921,1.654l-4.252,-9.921c3.307,0.787 7.244,1.181 11.811,1.181l92.598,0l7.795,-7.559c1.26,-1.26 2.283,-1.89 3.071,-1.89c1.26,0 5.433,3.11 12.52,9.331c7.087,6.22 10.63,10 10.63,11.339c0,1.339 -1.024,2.008 -3.071,2.008l-4.961,-0.472c-3.622,0 -8.386,1.811 -14.291,5.433c-5.906,3.622 -17.362,11.732 -34.37,24.331l0,11.575l59.055,0l10.866,-15.827c1.26,-1.732 2.402,-2.598 3.425,-2.598c1.024,0 2.559,0.827 4.606,2.48c2.047,1.654 5.118,4.449 9.213,8.386c4.094,3.937 7.008,6.929 8.74,8.976c1.732,2.047 2.598,3.661 2.598,4.843c0,1.181 -1.496,1.772 -4.488,1.772l-94.016,0Z" style="fill:#1c1a19;fill-rule:nonzero;"/><path d="M2263.38,444.094l-49.37,0c-4.252,0 -7.559,0.551 -9.921,1.654l-5.197,-10.63c3.307,0.787 7.244,1.181 11.811,1.181l52.677,0l0,-53.386l-45.591,0c-11.496,22.835 -25.669,43.543 -42.52,62.126l-5.906,-3.071c20.315,-32.283 34.331,-70.945 42.047,-115.984c7.717,2.52 14.37,5 19.961,7.441c5.591,2.441 8.976,4.134 10.157,5.079c1.181,0.945 1.772,1.969 1.772,3.071c0,1.102 -1.496,1.969 -4.488,2.598c-2.992,0.63 -5.118,2.598 -6.378,5.906l-10.63,24.567l41.575,0l0,-44.409c0,-8.031 -0.157,-15.433 -0.472,-22.205c4.882,0.787 11.85,2.638 20.906,5.551c9.055,2.913 13.583,5.354 13.583,7.323c0,1.969 -3.937,4.055 -11.811,6.26l0,47.48l43.937,0l9.449,-13.937c1.89,-2.835 3.543,-4.252 4.961,-4.252c1.417,0 6.457,3.504 15.118,10.512c8.661,7.008 12.992,11.693 12.992,14.055c0,1.26 -1.417,1.89 -4.252,1.89l-82.205,0l0,53.386l34.252,0l9.449,-13.937c1.89,-2.677 3.819,-4.016 5.787,-4.016c1.969,0 6.969,3.543 15,10.63c8.031,7.087 12.047,11.378 12.047,12.874c0,1.496 -1.654,2.244 -4.961,2.244l-71.575,0l0,66.378l52.677,0l9.685,-14.646c2.047,-2.992 3.74,-4.488 5.079,-4.488c1.339,0 3.189,0.945 5.551,2.835c2.362,1.89 6.063,5.079 11.102,9.567c5.039,4.488 8.346,7.598 9.921,9.331c1.575,1.732 2.362,3.11 2.362,4.134c0,1.024 -1.654,1.535 -4.961,1.535l-187.087,0c-4.252,0 -7.559,0.551 -9.921,1.654l-4.488,-11.102c3.307,0.787 7.244,1.181 11.811,1.181l76.063,0l0,-66.378Z" style="fill:#1c1a19;fill-rule:nonzero;"/><path d="M2514.483,343.937c-1.732,-8.346 -3.622,-14.291 -5.669,-17.835c-2.047,-3.543 -6.299,-8.622 -12.756,-15.236l2.598,-3.78c12.913,2.835 22.677,5.709 29.291,8.622c6.614,2.913 9.921,6.654 9.921,11.22c0,2.362 -0.827,5.197 -2.48,8.504c-1.654,3.307 -4.37,6.142 -8.15,8.504l62.598,0l9.449,-8.031c0.63,-0.472 1.26,-0.709 1.89,-0.709c1.575,0 4.567,2.126 8.976,6.378c4.409,4.252 8.228,8.031 11.457,11.339c3.228,3.307 4.843,6.024 4.843,8.15c0,2.126 -1.732,3.189 -5.197,3.189c-8.504,0.157 -14.961,1.22 -19.37,3.189c-4.409,1.969 -11.181,7.047 -20.315,15.236l-4.961,-2.362c6.299,-9.291 11.417,-18.898 15.354,-28.819l-141.496,0c0.315,13.701 -1.732,23.622 -6.142,29.764c-4.409,6.142 -9.764,9.213 -16.063,9.213c-3.465,0 -6.299,-0.866 -8.504,-2.598c-2.205,-1.732 -3.307,-3.504 -3.307,-5.315c0,-1.811 1.969,-4.606 5.906,-8.386c8.031,-7.717 13.465,-14.449 16.299,-20.197c2.835,-5.748 4.567,-12.323 5.197,-19.724l5.669,0c0.472,3.307 0.709,6.535 0.709,9.685l64.252,0Zm15.827,101.811l0,50.315c0,9.606 -0.315,15.984 -0.945,19.134c-0.63,3.15 -1.85,5.866 -3.661,8.15c-1.811,2.283 -5.984,4.724 -12.52,7.323c-6.535,2.598 -10.512,3.898 -11.929,3.898c-1.417,0 -2.283,-1.102 -2.598,-3.307c-0.63,-5.197 -3.622,-9.764 -8.976,-13.701c-5.354,-3.937 -13.071,-7.638 -23.15,-11.102l0,-4.724c16.693,2.992 27.323,4.488 31.89,4.488c4.567,0 7.362,-0.866 8.386,-2.598c1.024,-1.732 1.535,-5.118 1.535,-10.157l0,-47.717l-87.165,0c-4.252,0 -7.559,0.551 -9.921,1.654l-4.252,-10.866c3.307,0.787 7.244,1.181 11.811,1.181l89.528,0c0,-10.079 -0.315,-18.11 -0.945,-24.094c8.819,1.575 15.354,3.386 19.606,5.433c6.299,-7.087 13.701,-16.535 22.205,-28.346l-86.457,0c-4.252,0 -7.559,0.551 -9.921,1.654l-4.252,-9.921c3.307,0.787 7.244,1.181 11.811,1.181l92.598,0l7.795,-7.559c1.26,-1.26 2.283,-1.89 3.071,-1.89c1.26,0 5.433,3.11 12.52,9.331c7.087,6.22 10.63,10 10.63,11.339c0,1.339 -1.024,2.008 -3.071,2.008l-4.961,-0.472c-3.622,0 -8.386,1.811 -14.291,5.433c-5.906,3.622 -17.362,11.732 -34.37,24.331l0,11.575l59.055,0l10.866,-15.827c1.26,-1.732 2.402,-2.598 3.425,-2.598c1.024,0 2.559,0.827 4.606,2.48c2.047,1.654 5.118,4.449 9.213,8.386c4.094,3.937 7.008,6.929 8.74,8.976c1.732,2.047 2.598,3.661 2.598,4.843c0,1.181 -1.496,1.772 -4.488,1.772l-94.016,0Z" style="fill:#1c1a19;fill-rule:nonzero;"/><path d="M1996.553,197.598c0,-1.654 -0.197,-2.776 -0.591,-3.366c-0.394,-0.591 -1.063,-0.965 -2.008,-1.122l-5.906,-0.709l0,-2.598c1.496,0.157 3.681,0.276 6.555,0.354c2.874,0.079 6.004,0.118 9.39,0.118c3.386,0 6.516,-0.039 9.39,-0.118c2.874,-0.079 5.02,-0.197 6.437,-0.354l0,2.598l-8.031,1.181c-1.024,0.157 -1.693,0.512 -2.008,1.063c-0.315,0.551 -0.472,1.575 -0.472,3.071l0,57.52c0,1.732 0.177,2.913 0.531,3.543c0.354,0.63 1.24,1.102 2.657,1.417l8.74,1.654l0,2.598c-1.969,-0.157 -4.469,-0.276 -7.5,-0.354c-3.031,-0.079 -6.161,-0.118 -9.39,-0.118c-3.15,0 -6.28,0.039 -9.39,0.118c-3.11,0.079 -5.689,0.197 -7.736,0.354l0,-2.598l6.969,-1.181c0.945,-0.157 1.575,-0.63 1.89,-1.417c0.315,-0.787 0.472,-2.126 0.472,-4.016l0,-26.102l-38.858,0l0,26.102c0,1.969 0.157,3.327 0.472,4.075c0.315,0.748 0.984,1.201 2.008,1.358l6.969,1.181l0,2.598c-2.047,-0.157 -4.626,-0.276 -7.736,-0.354c-3.11,-0.079 -6.28,-0.118 -9.508,-0.118c-3.15,0 -6.24,0.039 -9.272,0.118c-3.031,0.079 -5.531,0.197 -7.5,0.354l0,-2.598l8.74,-1.654c1.26,-0.236 2.087,-0.709 2.48,-1.417c0.394,-0.709 0.591,-1.89 0.591,-3.543l0,-57.638c0,-1.654 -0.197,-2.776 -0.591,-3.366c-0.394,-0.591 -1.063,-0.965 -2.008,-1.122l-5.906,-0.709l0,-2.598c1.496,0.157 3.701,0.276 6.614,0.354c2.913,0.079 6.142,0.118 9.685,0.118c3.543,0 6.752,-0.039 9.626,-0.118c2.874,-0.079 5.02,-0.197 6.437,-0.354l0,2.598l-8.622,1.181c-1.024,0.157 -1.693,0.531 -2.008,1.122c-0.315,0.591 -0.472,1.594 -0.472,3.012l0,26.811l38.858,0l0,-26.929Z" style="fill:#1c1a19;fill-rule:nonzero;"/><path d="M2052.183,265.512c-3.228,0 -6.024,-0.571 -8.386,-1.713c-2.362,-1.142 -4.311,-2.697 -5.846,-4.665c-1.535,-1.969 -2.677,-4.291 -3.425,-6.969c-0.748,-2.677 -1.122,-5.551 -1.122,-8.622c0,-4.173 0.669,-7.854 2.008,-11.043c1.339,-3.189 3.091,-5.886 5.256,-8.091c2.165,-2.205 4.685,-3.858 7.559,-4.961c2.874,-1.102 5.846,-1.654 8.917,-1.654c1.89,0 3.583,0.157 5.079,0.472c1.496,0.315 2.795,0.669 3.898,1.063c1.26,0.394 2.402,0.866 3.425,1.417l7.205,-3.898l1.063,0.354c0,6.142 0.02,12.224 0.059,18.248c0.039,6.024 0.059,12.106 0.059,18.248c0,3.15 1.339,4.646 4.016,4.488c0.63,0 1.142,-0.098 1.535,-0.295c0.394,-0.197 0.748,-0.374 1.063,-0.531c0.315,-0.236 0.63,-0.512 0.945,-0.827l0.827,1.181c-0.63,1.496 -1.417,2.795 -2.362,3.898c-0.866,1.024 -1.929,1.929 -3.189,2.717c-1.26,0.787 -2.835,1.181 -4.724,1.181c-3.071,0 -5.276,-0.945 -6.614,-2.835c-1.339,-1.89 -2.008,-4.331 -2.008,-7.323l0,-3.071c-0.472,1.654 -1.102,3.287 -1.89,4.902c-0.787,1.614 -1.791,3.031 -3.012,4.252c-1.22,1.22 -2.677,2.205 -4.37,2.953c-1.693,0.748 -3.681,1.122 -5.965,1.122Zm15.236,-26.693c0,-2.126 -0.138,-4.173 -0.413,-6.142c-0.276,-1.969 -0.807,-3.72 -1.594,-5.256c-0.787,-1.535 -1.85,-2.776 -3.189,-3.72c-1.339,-0.945 -3.11,-1.417 -5.315,-1.417c-1.339,0 -2.756,0.315 -4.252,0.945c-1.496,0.63 -2.874,1.654 -4.134,3.071c-1.26,1.417 -2.283,3.307 -3.071,5.669c-0.787,2.362 -1.181,5.236 -1.181,8.622c0,2.52 0.256,4.902 0.768,7.146c0.512,2.244 1.26,4.193 2.244,5.846c0.984,1.654 2.205,2.972 3.661,3.957c1.457,0.984 3.13,1.476 5.02,1.476c1.732,0 3.307,-0.512 4.724,-1.535c1.417,-1.024 2.618,-2.382 3.602,-4.075c0.984,-1.693 1.752,-3.681 2.303,-5.965c0.551,-2.283 0.827,-4.724 0.827,-7.323l0,-1.299Z" style="fill:#1c1a19;fill-rule:nonzero;"/><path d="M2154.939,264.331c-4.094,-0.236 -8.465,-0.354 -13.11,-0.354c-4.646,0 -9.016,0.118 -13.11,0.354l0,-2.48l5.079,-0.945c1.732,-0.236 2.598,-1.772 2.598,-4.606l0,-19.961c0,-1.89 -0.098,-3.602 -0.295,-5.138c-0.197,-1.535 -0.591,-2.815 -1.181,-3.839c-0.591,-1.024 -1.437,-1.811 -2.539,-2.362c-1.102,-0.551 -2.559,-0.827 -4.37,-0.827c-2.126,0 -4.272,0.591 -6.437,1.772c-2.165,1.181 -4.154,2.717 -5.965,4.606l0,27.047c0,1.26 0.945,2.126 2.835,2.598l4.843,1.654l0,2.48c-1.339,-0.157 -2.697,-0.256 -4.075,-0.295c-1.378,-0.039 -3.287,-0.059 -5.728,-0.059l-3.78,0c-2.598,0 -5.079,0.02 -7.441,0.059c-2.362,0.039 -4.213,0.138 -5.551,0.295l0,-2.48l5.551,-1.181c1.575,-0.394 2.362,-1.575 2.362,-3.543l0,-23.386c0,-2.441 -0.492,-4.094 -1.476,-4.961c-0.984,-0.866 -2.736,-1.496 -5.256,-1.89l0,-2.126c1.26,-0.315 2.618,-0.728 4.075,-1.24c1.457,-0.512 2.874,-1.181 4.252,-2.008c1.378,-0.827 2.677,-1.791 3.898,-2.894c1.22,-1.102 2.185,-2.402 2.894,-3.898l2.598,0l0,11.102c2.598,-2.756 5.453,-4.941 8.563,-6.555c3.11,-1.614 6.043,-2.421 8.799,-2.421c4.567,0 8.13,1.339 10.689,4.016c2.559,2.677 3.839,6.732 3.839,12.165l0,22.913c0,1.496 0.197,2.618 0.591,3.366c0.394,0.748 1.181,1.28 2.362,1.594l4.488,0.945l0,2.48Z" style="fill:#1c1a19;fill-rule:nonzero;"/><path d="M2209.034,248.74l-2.835,15.591c-3.543,-0.157 -7.283,-0.256 -11.22,-0.295c-3.937,-0.039 -7.913,-0.059 -11.929,-0.059c-7.953,0 -13.976,0.118 -18.071,0.354l0,-1.654l29.055,-40.276l-10.748,0.354c-2.047,0 -3.819,0.098 -5.315,0.295c-1.496,0.197 -2.835,0.591 -4.016,1.181c-1.181,0.591 -2.283,1.457 -3.307,2.598c-1.024,1.142 -2.126,2.657 -3.307,4.547l-1.417,0l5.906,-18.189l2.244,0c-0.394,1.417 -0.591,2.598 -0.591,3.543c0,0.945 0.394,1.654 1.181,2.126c0.787,0.472 2.717,0.669 5.787,0.591l27.402,-0.472l0,2.48l-27.638,38.504l5.551,0c3.543,0 6.378,-0.02 8.504,-0.059c2.126,-0.039 3.898,-0.374 5.315,-1.004c1.417,-0.63 2.598,-1.713 3.543,-3.248c0.945,-1.535 2.008,-3.839 3.189,-6.909l2.717,0Z" style="fill:#1c1a19;fill-rule:nonzero;"/><path d="M2234.664,191.811c1.811,0 3.366,0.65 4.665,1.949c1.299,1.299 1.949,2.854 1.949,4.665c0,1.575 -0.669,3.012 -2.008,4.311c-1.339,1.299 -2.913,1.949 -4.724,1.949c-1.811,0 -3.307,-0.61 -4.488,-1.831c-1.181,-1.22 -1.772,-2.697 -1.772,-4.429c0,-1.811 0.63,-3.366 1.89,-4.665c1.26,-1.299 2.756,-1.949 4.488,-1.949Zm12.402,72.638c-1.26,-0.157 -3.071,-0.276 -5.433,-0.354c-2.362,-0.079 -5.118,-0.118 -8.268,-0.118c-3.15,0 -5.906,0.039 -8.268,0.118c-2.362,0.079 -4.173,0.197 -5.433,0.354l0,-2.598l5.315,-1.181c2.441,-0.472 3.661,-1.929 3.661,-4.37l0,-22.205c0,-1.89 -0.472,-3.268 -1.417,-4.134c-0.945,-0.866 -2.835,-1.614 -5.669,-2.244l0,-2.362c1.417,-0.315 2.874,-0.768 4.37,-1.358c1.496,-0.591 2.953,-1.26 4.37,-2.008c1.417,-0.748 2.717,-1.555 3.898,-2.421c1.181,-0.866 2.126,-1.811 2.835,-2.835c0.472,0 2.205,0.118 2.598,0.118l0,39.803c0,1.181 0.177,2.067 0.531,2.657c0.354,0.591 1.043,1.004 2.067,1.24l4.843,1.299l0,2.598Z" style="fill:#1c1a19;fill-rule:nonzero;"/><path d="M2344.152,233.15l-6.378,0.827c-1.339,0.236 -2.264,0.571 -2.776,1.004c-0.512,0.433 -0.768,1.201 -0.768,2.303l0,13.11c0,2.205 -0.039,3.917 -0.118,5.138c-0.079,1.22 -0.354,2.205 -0.827,2.953c-0.472,0.748 -1.181,1.358 -2.126,1.831c-0.945,0.472 -2.244,1.024 -3.898,1.654c-1.575,0.63 -3.327,1.181 -5.256,1.654c-1.929,0.472 -3.976,0.866 -6.142,1.181c-2.165,0.315 -4.39,0.571 -6.673,0.768c-2.283,0.197 -4.528,0.295 -6.732,0.295c-6.063,0 -11.713,-0.846 -16.949,-2.539c-5.236,-1.693 -9.783,-4.134 -13.642,-7.323c-3.858,-3.189 -6.89,-7.067 -9.094,-11.634c-2.205,-4.567 -3.307,-9.764 -3.307,-15.591c0,-6.535 1.22,-12.283 3.661,-17.244c2.441,-4.961 5.748,-9.114 9.921,-12.461c4.173,-3.346 9.055,-5.866 14.646,-7.559c5.591,-1.693 11.535,-2.539 17.835,-2.539c10.472,0 19.213,1.89 26.22,5.669l0.945,17.598l-2.362,0.354c-1.181,-2.913 -2.559,-5.591 -4.134,-8.031c-1.575,-2.441 -3.346,-4.528 -5.315,-6.26c-1.969,-1.732 -4.173,-3.071 -6.614,-4.016c-2.441,-0.945 -5.197,-1.417 -8.268,-1.417c-5.197,0 -9.764,0.827 -13.701,2.48c-3.937,1.654 -7.224,3.996 -9.862,7.028c-2.638,3.031 -4.646,6.654 -6.024,10.866c-1.378,4.213 -2.067,8.917 -2.067,14.114c0,4.646 0.728,9.075 2.185,13.287c1.457,4.213 3.524,7.913 6.201,11.102c2.677,3.189 5.945,5.709 9.803,7.559c3.858,1.85 8.189,2.776 12.992,2.776c5.906,0 10.039,-1.122 12.402,-3.366c2.362,-2.244 3.543,-5.177 3.543,-8.799l0,-12.638c0,-1.26 -0.295,-2.087 -0.886,-2.48c-0.591,-0.394 -1.516,-0.669 -2.776,-0.827l-9.567,-0.827l0,-3.071c6.142,0.315 12.126,0.472 17.953,0.472c5.827,0 11.811,-0.157 17.953,-0.472l0,3.071Z" style="fill:#1c1a19;fill-rule:nonzero;"/><path d="M2398.128,235.512l-30.827,0c-0.157,0.787 -0.256,1.378 -0.295,1.772c-0.039,0.394 -0.059,0.984 -0.059,1.772c0,2.756 0.394,5.276 1.181,7.559c0.787,2.283 1.89,4.252 3.307,5.906c1.417,1.654 3.13,2.933 5.138,3.839c2.008,0.906 4.272,1.358 6.791,1.358c2.756,0 5.295,-0.453 7.618,-1.358c2.323,-0.906 4.783,-2.618 7.382,-5.138l0.472,2.244c-1.102,1.732 -2.343,3.346 -3.72,4.843c-1.378,1.496 -2.933,2.815 -4.665,3.957c-1.732,1.142 -3.701,2.028 -5.906,2.657c-2.205,0.63 -4.685,0.945 -7.441,0.945c-3.15,0 -6.024,-0.591 -8.622,-1.772c-2.598,-1.181 -4.843,-2.854 -6.732,-5.02c-1.89,-2.165 -3.366,-4.744 -4.429,-7.736c-1.063,-2.992 -1.594,-6.26 -1.594,-9.803c0,-3.622 0.571,-6.929 1.713,-9.921c1.142,-2.992 2.736,-5.591 4.783,-7.795c2.047,-2.205 4.528,-3.917 7.441,-5.138c2.913,-1.22 6.142,-1.831 9.685,-1.831c3.071,0 5.748,0.472 8.031,1.417c2.283,0.945 4.193,2.264 5.728,3.957c1.535,1.693 2.717,3.681 3.543,5.965c0.827,2.283 1.319,4.724 1.476,7.323Zm-30.236,-3.661l13.937,0c1.575,0 2.776,-0.197 3.602,-0.591c0.827,-0.394 1.122,-1.378 0.886,-2.953c-0.236,-2.205 -0.886,-4.114 -1.949,-5.728c-1.063,-1.614 -2.854,-2.421 -5.374,-2.421c-2.835,0 -5.197,1.004 -7.087,3.012c-1.89,2.008 -3.228,4.902 -4.016,8.681Z" style="fill:#1c1a19;fill-rule:nonzero;"/><path d="M2468.876,264.331c-4.094,-0.236 -8.465,-0.354 -13.11,-0.354c-4.646,0 -9.016,0.118 -13.11,0.354l0,-2.48l5.079,-0.945c1.732,-0.236 2.598,-1.772 2.598,-4.606l0,-19.961c0,-1.89 -0.098,-3.602 -0.295,-5.138c-0.197,-1.535 -0.591,-2.815 -1.181,-3.839c-0.591,-1.024 -1.437,-1.811 -2.539,-2.362c-1.102,-0.551 -2.559,-0.827 -4.37,-0.827c-2.126,0 -4.272,0.591 -6.437,1.772c-2.165,1.181 -4.154,2.717 -5.965,4.606l0,27.047c0,1.26 0.945,2.126 2.835,2.598l4.843,1.654l0,2.48c-1.339,-0.157 -2.697,-0.256 -4.075,-0.295c-1.378,-0.039 -3.287,-0.059 -5.728,-0.059l-3.78,0c-2.598,0 -5.079,0.02 -7.441,0.059c-2.362,0.039 -4.213,0.138 -5.551,0.295l0,-2.48l5.551,-1.181c1.575,-0.394 2.362,-1.575 2.362,-3.543l0,-23.386c0,-2.441 -0.492,-4.094 -1.476,-4.961c-0.984,-0.866 -2.736,-1.496 -5.256,-1.89l0,-2.126c1.26,-0.315 2.618,-0.728 4.075,-1.24c1.457,-0.512 2.874,-1.181 4.252,-2.008c1.378,-0.827 2.677,-1.791 3.898,-2.894c1.22,-1.102 2.185,-2.402 2.894,-3.898l2.598,0l0,11.102c2.598,-2.756 5.453,-4.941 8.563,-6.555c3.11,-1.614 6.043,-2.421 8.799,-2.421c4.567,0 8.13,1.339 10.689,4.016c2.559,2.677 3.839,6.732 3.839,12.165l0,22.913c0,1.496 0.197,2.618 0.591,3.366c0.394,0.748 1.181,1.28 2.362,1.594l4.488,0.945l0,2.48Z" style="fill:#1c1a19;fill-rule:nonzero;"/><g><g><path d="M1583.785,188.976l0,78.74l-78.74,0c0,0 0,-31.925 -0,-55.118c0,-13.046 10.576,-23.622 23.622,-23.622c23.194,0 55.118,0 55.118,0Z" style="fill:#fff;"/><path d="M1717.643,188.976c13.046,0 23.622,10.576 23.622,23.622c0,23.194 0,55.118 0,55.118l-78.74,0l0,-78.74l55.118,0Z" style="fill:#fff;"/><path d="M1741.265,346.457c-0,0 -0,31.925 -0,55.118c-0,13.046 -10.576,23.622 -23.622,23.622l-55.118,-0l0,-78.74l78.74,0Z" style="fill:#fff;"/><path d="M1583.785,346.457l0,78.74c0,0 -31.925,0 -55.118,0c-13.046,-0 -23.622,-10.576 -23.622,-23.622c0,-23.194 0,-55.118 -0,-55.118l78.74,0Z" style="fill:#fff;"/><rect x="1583.785" y="188.976" width="78.74" height="78.74" style="fill:#1d1a19;"/><rect x="1583.785" y="346.457" width="78.74" height="78.74" style="fill:#1d1a19;"/><rect x="1583.785" y="267.717" width="78.74" height="78.74" style="fill:#fff;"/><rect x="1505.045" y="267.717" width="78.74" height="78.74" style="fill:#1d1a19;"/><rect x="1662.525" y="267.717" width="78.74" height="78.74" style="fill:#1d1a19;"/></g><path d="M1717.643,188.976c13.046,0 23.622,10.576 23.622,23.622l0,188.976c-0,13.046 -10.576,23.622 -23.622,23.622l-188.976,0c-13.046,-0 -23.622,-10.576 -23.622,-23.622c0,-45.26 0,-143.716 -0,-188.976c0,-13.046 10.576,-23.622 23.622,-23.622c45.26,0 143.716,0 188.976,0Z" style="fill:none;stroke:#1c1a19;stroke-width:8.86px;"/></g><g><path d="M1835.754,307.087c13.046,0 23.622,10.576 23.622,23.622c0,45.26 -0,143.716 0,188.976c-0,13.046 -10.576,23.622 -23.622,23.622l-188.976,0c-13.046,-0 -23.622,-10.576 -23.622,-23.622l0,-188.976c0,-13.046 10.576,-23.622 23.622,-23.622l188.976,0Z" style="fill:#fff;stroke:#1c1a19;stroke-width:8.86px;stroke-miterlimit:3;"/><path d="M1738.868,371.374c-1.213,-5.843 -2.535,-10.004 -3.969,-12.484c-1.433,-2.48 -4.409,-6.035 -8.929,-10.665l1.819,-2.646c9.039,1.984 15.874,3.996 20.504,6.035c4.63,2.039 6.945,4.657 6.945,7.854c0,1.654 -0.579,3.638 -1.736,5.953c-1.157,2.315 -3.059,4.299 -5.705,5.953l43.819,0l6.614,-5.622c0.441,-0.331 0.882,-0.496 1.323,-0.496c1.102,0 3.197,1.488 6.283,4.465c3.087,2.976 5.76,5.622 8.02,7.937c2.26,2.315 3.39,4.217 3.39,5.705c0,1.488 -1.213,2.232 -3.638,2.232c-5.953,0.11 -10.472,0.854 -13.559,2.232c-3.087,1.378 -7.827,4.933 -14.22,10.665l-3.472,-1.654c4.409,-6.504 7.992,-13.228 10.748,-20.173l-99.047,0c0.22,9.591 -1.213,16.535 -4.299,20.835c-3.087,4.299 -6.835,6.449 -11.244,6.449c-2.425,0 -4.409,-0.606 -5.953,-1.819c-1.543,-1.213 -2.315,-2.453 -2.315,-3.72c0,-1.268 1.378,-3.224 4.134,-5.87c5.622,-5.402 9.425,-10.114 11.409,-14.138c1.984,-4.024 3.197,-8.626 3.638,-13.807l3.969,0c0.331,2.315 0.496,4.575 0.496,6.78l44.976,0Zm11.079,71.268l0,35.22c0,6.724 -0.22,11.189 -0.661,13.394c-0.441,2.205 -1.295,4.106 -2.563,5.705c-1.268,1.598 -4.189,3.307 -8.764,5.126c-4.575,1.819 -7.358,2.728 -8.35,2.728c-0.992,0 -1.598,-0.772 -1.819,-2.315c-0.441,-3.638 -2.535,-6.835 -6.283,-9.591c-3.748,-2.756 -9.15,-5.346 -16.205,-7.772l0,-3.307c11.685,2.094 19.126,3.142 22.323,3.142c3.197,0 5.154,-0.606 5.87,-1.819c0.717,-1.213 1.075,-3.583 1.075,-7.11l0,-33.402l-61.016,0c-2.976,0 -5.291,0.386 -6.945,1.157l-2.976,-7.606c2.315,0.551 5.071,0.827 8.268,0.827l62.669,0c0,-7.055 -0.22,-12.677 -0.661,-16.866c6.173,1.102 10.748,2.37 13.724,3.803c4.409,-4.961 9.591,-11.575 15.543,-19.843l-60.52,0c-2.976,0 -5.291,0.386 -6.945,1.157l-2.976,-6.945c2.315,0.551 5.071,0.827 8.268,0.827l64.819,0l5.457,-5.291c0.882,-0.882 1.598,-1.323 2.15,-1.323c0.882,0 3.803,2.177 8.764,6.531c4.961,4.354 7.441,7 7.441,7.937c0,0.937 -0.717,1.406 -2.15,1.406l-3.472,-0.331c-2.535,-0 -5.87,1.268 -10.004,3.803c-4.134,2.535 -12.154,8.213 -24.059,17.031l0,8.102l41.339,0l7.606,-11.079c0.882,-1.213 1.681,-1.819 2.398,-1.819c0.717,0 1.791,0.579 3.224,1.736c1.433,1.157 3.583,3.114 6.449,5.87c2.866,2.756 4.906,4.85 6.118,6.283c1.213,1.433 1.819,2.563 1.819,3.39c0,0.827 -1.047,1.24 -3.142,1.24l-65.811,0Z" style="fill:#1c1a19;fill-rule:nonzero;"/></g></g></g></svg>