<?xml version="1.0" encoding="UTF-8" standalone="no"?><!DOCTYPE svg PUBLIC "-//W3C//DTD SVG 1.1//EN" "http://www.w3.org/Graphics/SVG/1.1/DTD/svg11.dtd"><svg width="100%" height="100%" viewBox="0 0 4134 355" version="1.1" xmlns="http://www.w3.org/2000/svg" xmlns:xlink="http://www.w3.org/1999/xlink" xml:space="preserve" xmlns:serif="http://www.serif.com/" style="fill-rule:evenodd;clip-rule:evenodd;stroke-linejoin:round;stroke-miterlimit:2;"><path d="M4074.803,0c15.662,-0 30.683,6.222 41.758,17.297c11.075,11.075 17.297,26.096 17.297,41.758l0,236.22c-0,15.662 -6.222,30.683 -17.297,41.758c-11.075,11.075 -26.096,17.297 -41.758,17.297c-466.355,0 -3549.393,0 -4015.748,0c-15.662,0 -30.683,-6.222 -41.758,-17.297c-11.075,-11.075 -17.297,-26.096 -17.297,-41.758c0,-65.539 -0,-170.682 0,-236.22c0,-15.662 6.222,-30.683 17.297,-41.758c11.075,-11.075 26.096,-17.297 41.758,-17.297c466.355,-0 3549.393,-0 4015.748,-0Z" style="fill:#edece6;"/><path d="M367.021,149.31l0,19.274l1.35,0c2.076,0 3.772,-0.311 5.087,-0.934c1.315,-0.623 2.428,-1.672 3.339,-3.149c0.911,-1.476 1.505,-3.472 1.782,-5.986l1.211,0l0,23.564l-1.211,0c-0.438,-4.452 -1.632,-7.388 -3.581,-8.806c-1.949,-1.419 -4.158,-2.128 -6.626,-2.128l-1.35,0l0,14.36c0,2.399 0.133,3.899 0.398,4.498c0.265,0.6 0.784,1.125 1.557,1.574c0.773,0.45 1.817,0.675 3.132,0.675l1.557,0l0,1.28l-24.533,0l0,-1.28l1.557,0c1.361,0 2.457,-0.242 3.287,-0.727c0.6,-0.323 1.061,-0.877 1.384,-1.661c0.254,-0.554 0.381,-2.007 0.381,-4.36l0,-30.866c0,-2.399 -0.127,-3.899 -0.381,-4.498c-0.254,-0.6 -0.767,-1.125 -1.54,-1.574c-0.773,-0.45 -1.817,-0.675 -3.132,-0.675l-1.557,0l0,-1.28l39.585,0l0,13.46l-1.419,0c-0.323,-3.16 -1.148,-5.502 -2.474,-7.024c-1.326,-1.523 -3.247,-2.595 -5.761,-3.218c-1.384,-0.346 -3.945,-0.519 -7.682,-0.519l-4.36,0Z" style="fill:#1d1a19;fill-rule:nonzero;"/><path d="M412.018,160.21c2.814,0 5.433,0.727 7.855,2.18c2.422,1.453 4.262,3.518 5.519,6.194c1.257,2.676 1.886,5.606 1.886,8.789c0,4.591 -1.165,8.432 -3.495,11.523c-2.814,3.737 -6.701,5.606 -11.661,5.606c-4.867,0 -8.616,-1.707 -11.246,-5.121c-2.63,-3.414 -3.945,-7.37 -3.945,-11.869c0,-4.637 1.344,-8.679 4.031,-12.128c2.687,-3.449 6.373,-5.173 11.056,-5.173Zm0.138,2.457c-1.176,0 -2.186,0.444 -3.028,1.332c-0.842,0.888 -1.396,2.641 -1.661,5.26c-0.265,2.618 -0.398,6.257 -0.398,10.917c0,2.468 0.161,4.775 0.484,6.921c0.254,1.638 0.796,2.884 1.626,3.737c0.83,0.854 1.776,1.28 2.837,1.28c1.038,0 1.903,-0.288 2.595,-0.865c0.9,-0.784 1.499,-1.88 1.799,-3.287c0.461,-2.191 0.692,-6.621 0.692,-13.287c0,-3.922 -0.219,-6.615 -0.657,-8.08c-0.438,-1.465 -1.084,-2.532 -1.938,-3.201c-0.6,-0.484 -1.384,-0.727 -2.353,-0.727Z" style="fill:#1d1a19;fill-rule:nonzero;"/><path d="M448.953,161.179l0,4.187c1.661,-1.799 3.253,-3.108 4.775,-3.927c1.523,-0.819 3.16,-1.228 4.914,-1.228c2.099,0 3.841,0.582 5.225,1.747c1.384,1.165 2.307,2.612 2.768,4.343c0.369,1.315 0.554,3.841 0.554,7.578l0,12.595c0,2.491 0.225,4.043 0.675,4.654c0.45,0.611 1.39,0.998 2.82,1.159l0,1.246l-16.367,0l0,-1.246c1.223,-0.161 2.099,-0.669 2.63,-1.523c0.369,-0.577 0.554,-2.007 0.554,-4.291l0,-14.395c0,-2.653 -0.104,-4.325 -0.311,-5.017c-0.208,-0.692 -0.559,-1.228 -1.055,-1.609c-0.496,-0.381 -1.044,-0.571 -1.644,-0.571c-1.984,0 -3.829,1.419 -5.536,4.256l0,17.336c0,2.422 0.225,3.956 0.675,4.602c0.45,0.646 1.286,1.05 2.509,1.211l0,1.246l-16.367,0l0,-1.246c1.361,-0.138 2.33,-0.577 2.907,-1.315c0.392,-0.508 0.588,-2.007 0.588,-4.498l0,-18.27c0,-2.445 -0.225,-3.968 -0.675,-4.568c-0.45,-0.6 -1.39,-0.992 -2.82,-1.176l0,-1.28l13.184,0Z" style="fill:#1d1a19;fill-rule:nonzero;"/><path d="M491.528,149.345l0,11.834l7.682,0l0,3.426l-7.682,0l0,19.966c0,1.869 0.087,3.074 0.26,3.616c0.173,0.542 0.479,0.98 0.917,1.315c0.438,0.334 0.842,0.502 1.211,0.502c1.499,0 2.918,-1.142 4.256,-3.426l1.038,0.761c-1.869,4.429 -4.902,6.644 -9.1,6.644c-2.053,0 -3.789,-0.571 -5.208,-1.713c-1.419,-1.142 -2.324,-2.416 -2.716,-3.824c-0.231,-0.784 -0.346,-2.907 -0.346,-6.367l0,-17.474l-4.222,0l0,-1.211c2.907,-2.053 5.381,-4.21 7.422,-6.471c2.042,-2.261 3.824,-4.787 5.346,-7.578l1.142,0Z" style="fill:#1d1a19;fill-rule:nonzero;"/><path d="M550.276,180.176l-16.575,0l-1.972,4.568c-0.646,1.523 -0.969,2.78 -0.969,3.772c0,1.315 0.531,2.284 1.592,2.907c0.623,0.369 2.157,0.646 4.602,0.83l0,1.28l-15.606,0l0,-1.28c1.684,-0.254 3.068,-0.952 4.152,-2.093c1.084,-1.142 2.422,-3.501 4.014,-7.076l16.782,-37.44l0.657,0l16.921,38.478c1.615,3.645 2.941,5.94 3.979,6.886c0.784,0.715 1.892,1.13 3.322,1.246l0,1.28l-22.699,0l0,-1.28l0.934,0c1.822,0 3.103,-0.254 3.841,-0.761c0.508,-0.369 0.761,-0.9 0.761,-1.592c0,-0.415 -0.069,-0.842 -0.208,-1.28c-0.046,-0.208 -0.392,-1.073 -1.038,-2.595l-2.491,-5.848Zm-1.176,-2.561l-6.99,-16.159l-7.197,16.159l14.187,0Z" style="fill:#1d1a19;fill-rule:nonzero;"/><path d="M591.121,161.179l0,4.187c1.661,-1.799 3.253,-3.108 4.775,-3.927c1.523,-0.819 3.16,-1.228 4.914,-1.228c2.099,0 3.841,0.582 5.225,1.747c1.384,1.165 2.307,2.612 2.768,4.343c0.369,1.315 0.554,3.841 0.554,7.578l0,12.595c0,2.491 0.225,4.043 0.675,4.654c0.45,0.611 1.39,0.998 2.82,1.159l0,1.246l-16.367,0l0,-1.246c1.223,-0.161 2.099,-0.669 2.63,-1.523c0.369,-0.577 0.554,-2.007 0.554,-4.291l0,-14.395c0,-2.653 -0.104,-4.325 -0.311,-5.017c-0.208,-0.692 -0.559,-1.228 -1.055,-1.609c-0.496,-0.381 -1.044,-0.571 -1.644,-0.571c-1.984,0 -3.829,1.419 -5.536,4.256l0,17.336c0,2.422 0.225,3.956 0.675,4.602c0.45,0.646 1.286,1.05 2.509,1.211l0,1.246l-16.367,0l0,-1.246c1.361,-0.138 2.33,-0.577 2.907,-1.315c0.392,-0.508 0.588,-2.007 0.588,-4.498l0,-18.27c0,-2.445 -0.225,-3.968 -0.675,-4.568c-0.45,-0.6 -1.39,-0.992 -2.82,-1.176l0,-1.28l13.184,0Z" style="fill:#1d1a19;fill-rule:nonzero;"/><path d="M638.713,188.757c-3.945,3.483 -7.486,5.225 -10.623,5.225c-1.845,0 -3.38,-0.606 -4.602,-1.817c-1.223,-1.211 -1.834,-2.728 -1.834,-4.55c0,-2.468 1.061,-4.689 3.183,-6.661c2.122,-1.972 6.748,-4.596 13.876,-7.872l0,-3.253c0,-2.445 -0.133,-3.985 -0.398,-4.619c-0.265,-0.634 -0.767,-1.188 -1.505,-1.661c-0.738,-0.473 -1.569,-0.709 -2.491,-0.709c-1.499,0 -2.734,0.334 -3.702,1.003c-0.6,0.415 -0.9,0.9 -0.9,1.453c0,0.484 0.323,1.084 0.969,1.799c0.877,0.992 1.315,1.949 1.315,2.872c0,1.13 -0.421,2.093 -1.263,2.889c-0.842,0.796 -1.944,1.194 -3.305,1.194c-1.453,0 -2.67,-0.438 -3.651,-1.315c-0.98,-0.877 -1.471,-1.903 -1.471,-3.08c0,-1.661 0.657,-3.247 1.972,-4.758c1.315,-1.511 3.149,-2.67 5.502,-3.478c2.353,-0.807 4.798,-1.211 7.336,-1.211c3.068,0 5.496,0.652 7.284,1.955c1.788,1.303 2.947,2.716 3.478,4.239c0.323,0.969 0.484,3.195 0.484,6.678l0,12.561c0,1.476 0.058,2.405 0.173,2.786c0.115,0.381 0.288,0.663 0.519,0.848c0.231,0.185 0.496,0.277 0.796,0.277c0.6,0 1.211,-0.427 1.834,-1.28l1.038,0.83c-1.153,1.707 -2.347,2.947 -3.581,3.72c-1.234,0.773 -2.636,1.159 -4.204,1.159c-1.845,0 -3.287,-0.433 -4.325,-1.298c-1.038,-0.865 -1.672,-2.174 -1.903,-3.927Zm0,-2.526l0,-10.831c-2.791,1.638 -4.867,3.391 -6.228,5.26c-0.9,1.246 -1.35,2.503 -1.35,3.772c0,1.061 0.381,1.995 1.142,2.803c0.577,0.623 1.384,0.934 2.422,0.934c1.153,0 2.491,-0.646 4.014,-1.938Z" style="fill:#1d1a19;fill-rule:nonzero;"/><path d="M672.499,146.611l0,40.208c0,2.284 0.265,3.743 0.796,4.377c0.531,0.634 1.569,0.998 3.114,1.09l0,1.246l-17.474,0l0,-1.246c1.43,-0.046 2.491,-0.461 3.183,-1.246c0.461,-0.531 0.692,-1.938 0.692,-4.222l0,-33.495c0,-2.261 -0.265,-3.708 -0.796,-4.343c-0.531,-0.634 -1.557,-0.998 -3.08,-1.09l0,-1.28l13.564,0Z" style="fill:#1d1a19;fill-rule:nonzero;"/><path d="M697.911,194.847l-10.45,-23.98c-1.569,-3.622 -2.728,-5.848 -3.478,-6.678c-0.75,-0.83 -1.655,-1.407 -2.716,-1.73l0,-1.28l17.197,0l0,1.28c-1.13,0.046 -1.926,0.265 -2.388,0.657c-0.461,0.392 -0.692,0.865 -0.692,1.419c0,0.877 0.577,2.607 1.73,5.19l5.536,12.665l3.772,-9.793c1.361,-3.483 2.042,-5.906 2.042,-7.267c0,-0.854 -0.283,-1.534 -0.848,-2.042c-0.565,-0.508 -1.563,-0.784 -2.993,-0.83l0,-1.28l10.831,0l0,1.28c-1.061,0.115 -1.926,0.525 -2.595,1.228c-0.669,0.704 -1.788,3.097 -3.356,7.18l-9.239,23.98c-2.33,5.998 -4.06,9.689 -5.19,11.073c-1.592,1.938 -3.587,2.907 -5.986,2.907c-1.915,0 -3.466,-0.548 -4.654,-1.644c-1.188,-1.096 -1.782,-2.416 -1.782,-3.962c0,-1.338 0.409,-2.445 1.228,-3.322c0.819,-0.877 1.828,-1.315 3.028,-1.315c1.153,0 2.082,0.369 2.786,1.107c0.704,0.738 1.067,1.88 1.09,3.426c0.023,0.877 0.127,1.442 0.311,1.696c0.185,0.254 0.45,0.381 0.796,0.381c0.554,0 1.142,-0.334 1.765,-1.003c0.923,-0.969 2.007,-3.183 3.253,-6.644l1.003,-2.699Z" style="fill:#1d1a19;fill-rule:nonzero;"/><path d="M742.493,160.279l0.519,11.038l-1.176,0c-1.407,-3.276 -2.866,-5.513 -4.377,-6.713c-1.511,-1.2 -3.016,-1.799 -4.516,-1.799c-0.946,0 -1.753,0.317 -2.422,0.952c-0.669,0.634 -1.003,1.367 -1.003,2.197c0,0.623 0.231,1.223 0.692,1.799c0.738,0.946 2.803,2.566 6.194,4.862c3.391,2.295 5.623,4.245 6.696,5.848c1.073,1.603 1.609,3.397 1.609,5.381c0,1.799 -0.45,3.564 -1.35,5.294c-0.9,1.73 -2.168,3.057 -3.806,3.979c-1.638,0.923 -3.449,1.384 -5.433,1.384c-1.546,0 -3.61,-0.484 -6.194,-1.453c-0.692,-0.254 -1.165,-0.381 -1.419,-0.381c-0.761,0 -1.396,0.577 -1.903,1.73l-1.142,0l-0.554,-11.626l1.176,0c1.038,3.045 2.463,5.329 4.273,6.851c1.811,1.523 3.524,2.284 5.138,2.284c1.107,0 2.013,-0.34 2.716,-1.021c0.704,-0.681 1.055,-1.505 1.055,-2.474c0,-1.107 -0.346,-2.065 -1.038,-2.872c-0.692,-0.807 -2.238,-2.03 -4.637,-3.668c-3.529,-2.445 -5.813,-4.314 -6.851,-5.606c-1.523,-1.892 -2.284,-3.979 -2.284,-6.263c0,-2.491 0.859,-4.746 2.578,-6.765c1.719,-2.018 4.204,-3.028 7.457,-3.028c1.753,0 3.449,0.427 5.087,1.28c0.623,0.346 1.13,0.519 1.523,0.519c0.415,0 0.75,-0.087 1.003,-0.26c0.254,-0.173 0.657,-0.663 1.211,-1.471l1.176,0Z" style="fill:#1d1a19;fill-rule:nonzero;"/><path d="M760.951,145.504c1.499,0 2.768,0.525 3.806,1.574c1.038,1.05 1.557,2.313 1.557,3.789c0,1.476 -0.525,2.734 -1.574,3.772c-1.05,1.038 -2.313,1.557 -3.789,1.557c-1.476,0 -2.734,-0.519 -3.772,-1.557c-1.038,-1.038 -1.557,-2.295 -1.557,-3.772c0,-1.476 0.519,-2.739 1.557,-3.789c1.038,-1.05 2.295,-1.574 3.772,-1.574Zm4.844,15.675l0,25.641c0,2.284 0.265,3.743 0.796,4.377c0.531,0.634 1.569,0.998 3.114,1.09l0,1.246l-17.474,0l0,-1.246c1.43,-0.046 2.491,-0.461 3.183,-1.246c0.461,-0.531 0.692,-1.938 0.692,-4.222l0,-18.893c0,-2.284 -0.265,-3.743 -0.796,-4.377c-0.531,-0.634 -1.557,-0.998 -3.08,-1.09l0,-1.28l13.564,0Z" style="fill:#1d1a19;fill-rule:nonzero;"/><path d="M796.847,160.279l0.519,11.038l-1.176,0c-1.407,-3.276 -2.866,-5.513 -4.377,-6.713c-1.511,-1.2 -3.016,-1.799 -4.516,-1.799c-0.946,0 -1.753,0.317 -2.422,0.952c-0.669,0.634 -1.003,1.367 -1.003,2.197c0,0.623 0.231,1.223 0.692,1.799c0.738,0.946 2.803,2.566 6.194,4.862c3.391,2.295 5.623,4.245 6.696,5.848c1.073,1.603 1.609,3.397 1.609,5.381c0,1.799 -0.45,3.564 -1.35,5.294c-0.9,1.73 -2.168,3.057 -3.806,3.979c-1.638,0.923 -3.449,1.384 -5.433,1.384c-1.546,0 -3.61,-0.484 -6.194,-1.453c-0.692,-0.254 -1.165,-0.381 -1.419,-0.381c-0.761,0 -1.396,0.577 -1.903,1.73l-1.142,0l-0.554,-11.626l1.176,0c1.038,3.045 2.463,5.329 4.273,6.851c1.811,1.523 3.524,2.284 5.138,2.284c1.107,0 2.013,-0.34 2.716,-1.021c0.704,-0.681 1.055,-1.505 1.055,-2.474c0,-1.107 -0.346,-2.065 -1.038,-2.872c-0.692,-0.807 -2.238,-2.03 -4.637,-3.668c-3.529,-2.445 -5.813,-4.314 -6.851,-5.606c-1.523,-1.892 -2.284,-3.979 -2.284,-6.263c0,-2.491 0.859,-4.746 2.578,-6.765c1.719,-2.018 4.204,-3.028 7.457,-3.028c1.753,0 3.449,0.427 5.087,1.28c0.623,0.346 1.13,0.519 1.523,0.519c0.415,0 0.75,-0.087 1.003,-0.26c0.254,-0.173 0.657,-0.663 1.211,-1.471l1.176,0Z" style="fill:#1d1a19;fill-rule:nonzero;"/><path d="M880.198,163.221c3.068,3.345 5.721,5.888 7.959,7.63c2.238,1.742 4.348,3.039 6.332,3.893l0,1.557c-2.284,1.107 -4.498,2.52 -6.644,4.239c-2.145,1.719 -4.706,4.239 -7.682,7.561l-2.664,0c2.168,-4.637 4.441,-8.201 6.817,-10.692l-55.191,0l0,-3.495l55.191,0c-1.753,-2.238 -2.976,-3.899 -3.668,-4.983c-0.692,-1.084 -1.719,-2.987 -3.08,-5.709l2.63,0Z" style="fill:#1d1a19;fill-rule:nonzero;"/><path d="M922.995,193.532l0,-1.28l1.557,0c1.361,0 2.405,-0.213 3.132,-0.64c0.727,-0.427 1.263,-1.009 1.609,-1.747c0.208,-0.484 0.311,-1.938 0.311,-4.36l0,-30.866c0,-2.399 -0.127,-3.899 -0.381,-4.498c-0.254,-0.6 -0.767,-1.125 -1.54,-1.574c-0.773,-0.45 -1.817,-0.675 -3.132,-0.675l-1.557,0l0,-1.28l21.004,0c5.606,0 10.115,0.761 13.53,2.284c4.175,1.869 7.342,4.694 9.498,8.478c2.157,3.783 3.235,8.062 3.235,12.838c0,3.299 -0.531,6.338 -1.592,9.118c-1.061,2.78 -2.434,5.075 -4.118,6.886c-1.684,1.811 -3.628,3.264 -5.831,4.36c-2.203,1.096 -4.896,1.944 -8.08,2.543c-1.407,0.277 -3.622,0.415 -6.644,0.415l-21.004,0Zm17.89,-44.257l0,36.61c0,1.938 0.092,3.126 0.277,3.564c0.185,0.438 0.496,0.773 0.934,1.003c0.623,0.346 1.523,0.519 2.699,0.519c3.852,0 6.794,-1.315 8.824,-3.945c2.768,-3.553 4.152,-9.066 4.152,-16.54c0,-6.021 -0.946,-10.831 -2.837,-14.429c-1.499,-2.814 -3.426,-4.729 -5.779,-5.744c-1.661,-0.715 -4.418,-1.061 -8.27,-1.038Z" style="fill:#1d1a19;fill-rule:nonzero;"/><path d="M997.023,188.757c-3.945,3.483 -7.486,5.225 -10.623,5.225c-1.845,0 -3.38,-0.606 -4.602,-1.817c-1.223,-1.211 -1.834,-2.728 -1.834,-4.55c0,-2.468 1.061,-4.689 3.183,-6.661c2.122,-1.972 6.748,-4.596 13.876,-7.872l0,-3.253c0,-2.445 -0.133,-3.985 -0.398,-4.619c-0.265,-0.634 -0.767,-1.188 -1.505,-1.661c-0.738,-0.473 -1.569,-0.709 -2.491,-0.709c-1.499,0 -2.734,0.334 -3.702,1.003c-0.6,0.415 -0.9,0.9 -0.9,1.453c0,0.484 0.323,1.084 0.969,1.799c0.877,0.992 1.315,1.949 1.315,2.872c0,1.13 -0.421,2.093 -1.263,2.889c-0.842,0.796 -1.944,1.194 -3.305,1.194c-1.453,0 -2.67,-0.438 -3.651,-1.315c-0.98,-0.877 -1.471,-1.903 -1.471,-3.08c0,-1.661 0.657,-3.247 1.972,-4.758c1.315,-1.511 3.149,-2.67 5.502,-3.478c2.353,-0.807 4.798,-1.211 7.336,-1.211c3.068,0 5.496,0.652 7.284,1.955c1.788,1.303 2.947,2.716 3.478,4.239c0.323,0.969 0.484,3.195 0.484,6.678l0,12.561c0,1.476 0.058,2.405 0.173,2.786c0.115,0.381 0.288,0.663 0.519,0.848c0.231,0.185 0.496,0.277 0.796,0.277c0.6,0 1.211,-0.427 1.834,-1.28l1.038,0.83c-1.153,1.707 -2.347,2.947 -3.581,3.72c-1.234,0.773 -2.636,1.159 -4.204,1.159c-1.845,0 -3.287,-0.433 -4.325,-1.298c-1.038,-0.865 -1.672,-2.174 -1.903,-3.927Zm0,-2.526l0,-10.831c-2.791,1.638 -4.867,3.391 -6.228,5.26c-0.9,1.246 -1.35,2.503 -1.35,3.772c0,1.061 0.381,1.995 1.142,2.803c0.577,0.623 1.384,0.934 2.422,0.934c1.153,0 2.491,-0.646 4.014,-1.938Z" style="fill:#1d1a19;fill-rule:nonzero;"/><path d="M1030.982,149.345l0,11.834l7.682,0l0,3.426l-7.682,0l0,19.966c0,1.869 0.087,3.074 0.26,3.616c0.173,0.542 0.479,0.98 0.917,1.315c0.438,0.334 0.842,0.502 1.211,0.502c1.499,0 2.918,-1.142 4.256,-3.426l1.038,0.761c-1.869,4.429 -4.902,6.644 -9.1,6.644c-2.053,0 -3.789,-0.571 -5.208,-1.713c-1.419,-1.142 -2.324,-2.416 -2.716,-3.824c-0.231,-0.784 -0.346,-2.907 -0.346,-6.367l0,-17.474l-4.222,0l0,-1.211c2.907,-2.053 5.381,-4.21 7.422,-6.471c2.042,-2.261 3.824,-4.787 5.346,-7.578l1.142,0Z" style="fill:#1d1a19;fill-rule:nonzero;"/><path d="M1063.142,188.757c-3.945,3.483 -7.486,5.225 -10.623,5.225c-1.845,0 -3.38,-0.606 -4.602,-1.817c-1.223,-1.211 -1.834,-2.728 -1.834,-4.55c0,-2.468 1.061,-4.689 3.183,-6.661c2.122,-1.972 6.748,-4.596 13.876,-7.872l0,-3.253c0,-2.445 -0.133,-3.985 -0.398,-4.619c-0.265,-0.634 -0.767,-1.188 -1.505,-1.661c-0.738,-0.473 -1.569,-0.709 -2.491,-0.709c-1.499,0 -2.734,0.334 -3.702,1.003c-0.6,0.415 -0.9,0.9 -0.9,1.453c0,0.484 0.323,1.084 0.969,1.799c0.877,0.992 1.315,1.949 1.315,2.872c0,1.13 -0.421,2.093 -1.263,2.889c-0.842,0.796 -1.944,1.194 -3.305,1.194c-1.453,0 -2.67,-0.438 -3.651,-1.315c-0.98,-0.877 -1.471,-1.903 -1.471,-3.08c0,-1.661 0.657,-3.247 1.972,-4.758c1.315,-1.511 3.149,-2.67 5.502,-3.478c2.353,-0.807 4.798,-1.211 7.336,-1.211c3.068,0 5.496,0.652 7.284,1.955c1.788,1.303 2.947,2.716 3.478,4.239c0.323,0.969 0.484,3.195 0.484,6.678l0,12.561c0,1.476 0.058,2.405 0.173,2.786c0.115,0.381 0.288,0.663 0.519,0.848c0.231,0.185 0.496,0.277 0.796,0.277c0.6,0 1.211,-0.427 1.834,-1.28l1.038,0.83c-1.153,1.707 -2.347,2.947 -3.581,3.72c-1.234,0.773 -2.636,1.159 -4.204,1.159c-1.845,0 -3.287,-0.433 -4.325,-1.298c-1.038,-0.865 -1.672,-2.174 -1.903,-3.927Zm0,-2.526l0,-10.831c-2.791,1.638 -4.867,3.391 -6.228,5.26c-0.9,1.246 -1.35,2.503 -1.35,3.772c0,1.061 0.381,1.995 1.142,2.803c0.577,0.623 1.384,0.934 2.422,0.934c1.153,0 2.491,-0.646 4.014,-1.938Z" style="fill:#1d1a19;fill-rule:nonzero;"/><path d="M1104.714,160.279l0.519,11.038l-1.176,0c-1.407,-3.276 -2.866,-5.513 -4.377,-6.713c-1.511,-1.2 -3.016,-1.799 -4.516,-1.799c-0.946,0 -1.753,0.317 -2.422,0.952c-0.669,0.634 -1.003,1.367 -1.003,2.197c0,0.623 0.231,1.223 0.692,1.799c0.738,0.946 2.803,2.566 6.194,4.862c3.391,2.295 5.623,4.245 6.696,5.848c1.073,1.603 1.609,3.397 1.609,5.381c0,1.799 -0.45,3.564 -1.35,5.294c-0.9,1.73 -2.168,3.057 -3.806,3.979c-1.638,0.923 -3.449,1.384 -5.433,1.384c-1.546,0 -3.61,-0.484 -6.194,-1.453c-0.692,-0.254 -1.165,-0.381 -1.419,-0.381c-0.761,0 -1.396,0.577 -1.903,1.73l-1.142,0l-0.554,-11.626l1.176,0c1.038,3.045 2.463,5.329 4.273,6.851c1.811,1.523 3.524,2.284 5.138,2.284c1.107,0 2.013,-0.34 2.716,-1.021c0.704,-0.681 1.055,-1.505 1.055,-2.474c0,-1.107 -0.346,-2.065 -1.038,-2.872c-0.692,-0.807 -2.238,-2.03 -4.637,-3.668c-3.529,-2.445 -5.813,-4.314 -6.851,-5.606c-1.523,-1.892 -2.284,-3.979 -2.284,-6.263c0,-2.491 0.859,-4.746 2.578,-6.765c1.719,-2.018 4.204,-3.028 7.457,-3.028c1.753,0 3.449,0.427 5.087,1.28c0.623,0.346 1.13,0.519 1.523,0.519c0.415,0 0.75,-0.087 1.003,-0.26c0.254,-0.173 0.657,-0.663 1.211,-1.471l1.176,0Z" style="fill:#1d1a19;fill-rule:nonzero;"/><path d="M1142.79,176.196l-17.751,0c0.208,4.291 1.35,7.682 3.426,10.173c1.592,1.915 3.506,2.872 5.744,2.872c1.384,0 2.641,-0.386 3.772,-1.159c1.13,-0.773 2.341,-2.163 3.633,-4.17l1.176,0.761c-1.753,3.576 -3.691,6.107 -5.813,7.595c-2.122,1.488 -4.579,2.232 -7.37,2.232c-4.798,0 -8.432,-1.845 -10.9,-5.536c-1.984,-2.976 -2.976,-6.667 -2.976,-11.073c0,-5.398 1.459,-9.694 4.377,-12.889c2.918,-3.195 6.338,-4.792 10.26,-4.792c3.276,0 6.119,1.344 8.53,4.031c2.411,2.687 3.708,6.673 3.893,11.955Zm-8.512,-2.318c0,-3.714 -0.202,-6.263 -0.606,-7.647c-0.404,-1.384 -1.032,-2.434 -1.886,-3.149c-0.484,-0.415 -1.13,-0.623 -1.938,-0.623c-1.2,0 -2.18,0.588 -2.941,1.765c-1.361,2.053 -2.042,4.867 -2.042,8.443l0,1.211l9.412,0Z" style="fill:#1d1a19;fill-rule:nonzero;"/><path d="M1163.22,149.345l0,11.834l7.682,0l0,3.426l-7.682,0l0,19.966c0,1.869 0.087,3.074 0.26,3.616c0.173,0.542 0.479,0.98 0.917,1.315c0.438,0.334 0.842,0.502 1.211,0.502c1.499,0 2.918,-1.142 4.256,-3.426l1.038,0.761c-1.869,4.429 -4.902,6.644 -9.1,6.644c-2.053,0 -3.789,-0.571 -5.208,-1.713c-1.419,-1.142 -2.324,-2.416 -2.716,-3.824c-0.231,-0.784 -0.346,-2.907 -0.346,-6.367l0,-17.474l-4.222,0l0,-1.211c2.907,-2.053 5.381,-4.21 7.422,-6.471c2.042,-2.261 3.824,-4.787 5.346,-7.578l1.142,0Z" style="fill:#1d1a19;fill-rule:nonzero;"/><path d="M1243.698,145.539l0,16.263l-1.35,0c-1.015,-4.245 -2.907,-7.497 -5.675,-9.758c-2.768,-2.261 -5.906,-3.391 -9.412,-3.391c-2.93,0 -5.617,0.842 -8.062,2.526c-2.445,1.684 -4.233,3.887 -5.363,6.609c-1.453,3.483 -2.18,7.359 -2.18,11.626c0,4.198 0.531,8.022 1.592,11.471c1.061,3.449 2.722,6.055 4.983,7.82c2.261,1.765 5.19,2.647 8.789,2.647c2.953,0 5.658,-0.646 8.114,-1.938c2.457,-1.292 5.046,-3.518 7.768,-6.678l0,4.049c-2.63,2.745 -5.369,4.735 -8.218,5.969c-2.849,1.234 -6.177,1.851 -9.983,1.851c-5.006,0 -9.452,-1.003 -13.339,-3.01c-3.887,-2.007 -6.886,-4.891 -8.997,-8.651c-2.111,-3.76 -3.166,-7.763 -3.166,-12.007c0,-4.475 1.171,-8.72 3.512,-12.734c2.341,-4.014 5.502,-7.128 9.481,-9.343c3.979,-2.215 8.207,-3.322 12.682,-3.322c3.299,0 6.782,0.715 10.45,2.145c2.122,0.83 3.472,1.246 4.049,1.246c0.738,0 1.378,-0.271 1.92,-0.813c0.542,-0.542 0.894,-1.401 1.055,-2.578l1.35,0Z" style="fill:#1d1a19;fill-rule:nonzero;"/><path d="M1268.765,160.21c2.814,0 5.433,0.727 7.855,2.18c2.422,1.453 4.262,3.518 5.519,6.194c1.257,2.676 1.886,5.606 1.886,8.789c0,4.591 -1.165,8.432 -3.495,11.523c-2.814,3.737 -6.701,5.606 -11.661,5.606c-4.867,0 -8.616,-1.707 -11.246,-5.121c-2.63,-3.414 -3.945,-7.37 -3.945,-11.869c0,-4.637 1.344,-8.679 4.031,-12.128c2.687,-3.449 6.373,-5.173 11.056,-5.173Zm0.138,2.457c-1.176,0 -2.186,0.444 -3.028,1.332c-0.842,0.888 -1.396,2.641 -1.661,5.26c-0.265,2.618 -0.398,6.257 -0.398,10.917c0,2.468 0.161,4.775 0.484,6.921c0.254,1.638 0.796,2.884 1.626,3.737c0.83,0.854 1.776,1.28 2.837,1.28c1.038,0 1.903,-0.288 2.595,-0.865c0.9,-0.784 1.499,-1.88 1.799,-3.287c0.461,-2.191 0.692,-6.621 0.692,-13.287c0,-3.922 -0.219,-6.615 -0.657,-8.08c-0.438,-1.465 -1.084,-2.532 -1.938,-3.201c-0.6,-0.484 -1.384,-0.727 -2.353,-0.727Z" style="fill:#1d1a19;fill-rule:nonzero;"/><path d="M1305.699,161.179l0,4.187c1.661,-1.799 3.253,-3.108 4.775,-3.927c1.523,-0.819 3.16,-1.228 4.914,-1.228c2.099,0 3.841,0.582 5.225,1.747c1.384,1.165 2.307,2.612 2.768,4.343c0.369,1.315 0.554,3.841 0.554,7.578l0,12.595c0,2.491 0.225,4.043 0.675,4.654c0.45,0.611 1.39,0.998 2.82,1.159l0,1.246l-16.367,0l0,-1.246c1.223,-0.161 2.099,-0.669 2.63,-1.523c0.369,-0.577 0.554,-2.007 0.554,-4.291l0,-14.395c0,-2.653 -0.104,-4.325 -0.311,-5.017c-0.208,-0.692 -0.559,-1.228 -1.055,-1.609c-0.496,-0.381 -1.044,-0.571 -1.644,-0.571c-1.984,0 -3.829,1.419 -5.536,4.256l0,17.336c0,2.422 0.225,3.956 0.675,4.602c0.45,0.646 1.286,1.05 2.509,1.211l0,1.246l-16.367,0l0,-1.246c1.361,-0.138 2.33,-0.577 2.907,-1.315c0.392,-0.508 0.588,-2.007 0.588,-4.498l0,-18.27c0,-2.445 -0.225,-3.968 -0.675,-4.568c-0.45,-0.6 -1.39,-0.992 -2.82,-1.176l0,-1.28l13.184,0Z" style="fill:#1d1a19;fill-rule:nonzero;"/><path d="M1355.887,160.279l0.519,11.038l-1.176,0c-1.407,-3.276 -2.866,-5.513 -4.377,-6.713c-1.511,-1.2 -3.016,-1.799 -4.516,-1.799c-0.946,0 -1.753,0.317 -2.422,0.952c-0.669,0.634 -1.003,1.367 -1.003,2.197c0,0.623 0.231,1.223 0.692,1.799c0.738,0.946 2.803,2.566 6.194,4.862c3.391,2.295 5.623,4.245 6.696,5.848c1.073,1.603 1.609,3.397 1.609,5.381c0,1.799 -0.45,3.564 -1.35,5.294c-0.9,1.73 -2.168,3.057 -3.806,3.979c-1.638,0.923 -3.449,1.384 -5.433,1.384c-1.546,0 -3.61,-0.484 -6.194,-1.453c-0.692,-0.254 -1.165,-0.381 -1.419,-0.381c-0.761,0 -1.396,0.577 -1.903,1.73l-1.142,0l-0.554,-11.626l1.176,0c1.038,3.045 2.463,5.329 4.273,6.851c1.811,1.523 3.524,2.284 5.138,2.284c1.107,0 2.013,-0.34 2.716,-1.021c0.704,-0.681 1.055,-1.505 1.055,-2.474c0,-1.107 -0.346,-2.065 -1.038,-2.872c-0.692,-0.807 -2.238,-2.03 -4.637,-3.668c-3.529,-2.445 -5.813,-4.314 -6.851,-5.606c-1.523,-1.892 -2.284,-3.979 -2.284,-6.263c0,-2.491 0.859,-4.746 2.578,-6.765c1.719,-2.018 4.204,-3.028 7.457,-3.028c1.753,0 3.449,0.427 5.087,1.28c0.623,0.346 1.13,0.519 1.523,0.519c0.415,0 0.75,-0.087 1.003,-0.26c0.254,-0.173 0.657,-0.663 1.211,-1.471l1.176,0Z" style="fill:#1d1a19;fill-rule:nonzero;"/><path d="M1379.396,149.345l0,11.834l7.682,0l0,3.426l-7.682,0l0,19.966c0,1.869 0.087,3.074 0.26,3.616c0.173,0.542 0.479,0.98 0.917,1.315c0.438,0.334 0.842,0.502 1.211,0.502c1.499,0 2.918,-1.142 4.256,-3.426l1.038,0.761c-1.869,4.429 -4.902,6.644 -9.1,6.644c-2.053,0 -3.789,-0.571 -5.208,-1.713c-1.419,-1.142 -2.324,-2.416 -2.716,-3.824c-0.231,-0.784 -0.346,-2.907 -0.346,-6.367l0,-17.474l-4.222,0l0,-1.211c2.907,-2.053 5.381,-4.21 7.422,-6.471c2.042,-2.261 3.824,-4.787 5.346,-7.578l1.142,0Z" style="fill:#1d1a19;fill-rule:nonzero;"/><path d="M1407.127,161.179l0,7.336c2.145,-3.345 4.025,-5.565 5.64,-6.661c1.615,-1.096 3.172,-1.644 4.671,-1.644c1.292,0 2.324,0.398 3.097,1.194c0.773,0.796 1.159,1.92 1.159,3.374c0,1.546 -0.375,2.745 -1.125,3.599c-0.75,0.854 -1.655,1.28 -2.716,1.28c-1.223,0 -2.284,-0.392 -3.183,-1.176c-0.9,-0.784 -1.43,-1.223 -1.592,-1.315c-0.231,-0.138 -0.496,-0.208 -0.796,-0.208c-0.669,0 -1.303,0.254 -1.903,0.761c-0.946,0.784 -1.661,1.903 -2.145,3.356c-0.738,2.238 -1.107,4.706 -1.107,7.405l0,7.44l0.035,1.938c0,1.315 0.081,2.157 0.242,2.526c0.277,0.623 0.686,1.078 1.228,1.367c0.542,0.288 1.459,0.467 2.751,0.536l0,1.246l-17.474,0l0,-1.246c1.407,-0.115 2.359,-0.502 2.855,-1.159c0.496,-0.657 0.744,-2.393 0.744,-5.208l0,-17.89c0,-1.845 -0.092,-3.022 -0.277,-3.529c-0.231,-0.646 -0.565,-1.119 -1.003,-1.419c-0.438,-0.3 -1.211,-0.508 -2.318,-0.623l0,-1.28l13.218,0Z" style="fill:#1d1a19;fill-rule:nonzero;"/><path d="M1459.944,161.179l0,25.329c0,2.468 0.231,4.008 0.692,4.619c0.461,0.611 1.396,0.998 2.803,1.159l0,1.246l-13.184,0l0,-4.325c-1.546,1.845 -3.091,3.189 -4.637,4.031c-1.546,0.842 -3.276,1.263 -5.19,1.263c-1.822,0 -3.443,-0.559 -4.862,-1.678c-1.419,-1.119 -2.37,-2.428 -2.855,-3.927c-0.484,-1.499 -0.727,-4.118 -0.727,-7.855l0,-12.838c0,-2.445 -0.225,-3.968 -0.675,-4.568c-0.45,-0.6 -1.39,-0.992 -2.82,-1.176l0,-1.28l13.184,0l0,22.111c0,2.307 0.11,3.795 0.329,4.464c0.219,0.669 0.565,1.176 1.038,1.523c0.473,0.346 1.021,0.519 1.644,0.519c0.83,0 1.58,-0.219 2.249,-0.657c0.923,-0.6 2.03,-1.811 3.322,-3.633l0,-17.301c0,-2.445 -0.225,-3.968 -0.675,-4.568c-0.45,-0.6 -1.39,-0.992 -2.82,-1.176l0,-1.28l13.184,0Z" style="fill:#1d1a19;fill-rule:nonzero;"/><path d="M1498.055,185.193l1.073,0.83c-1.523,2.86 -3.42,4.989 -5.692,6.384c-2.272,1.396 -4.689,2.093 -7.249,2.093c-4.314,0 -7.763,-1.626 -10.346,-4.879c-2.584,-3.253 -3.875,-7.163 -3.875,-11.73c0,-4.406 1.176,-8.282 3.529,-11.626c2.837,-4.037 6.748,-6.055 11.73,-6.055c3.345,0 6.004,0.842 7.976,2.526c1.972,1.684 2.959,3.564 2.959,5.64c0,1.315 -0.398,2.365 -1.194,3.149c-0.796,0.784 -1.84,1.176 -3.132,1.176c-1.361,0 -2.486,-0.45 -3.374,-1.35c-0.888,-0.9 -1.436,-2.503 -1.644,-4.81c-0.138,-1.453 -0.473,-2.468 -1.003,-3.045c-0.531,-0.577 -1.153,-0.865 -1.869,-0.865c-1.107,0 -2.053,0.588 -2.837,1.765c-1.2,1.776 -1.799,4.498 -1.799,8.166c0,3.045 0.484,5.957 1.453,8.737c0.969,2.78 2.295,4.85 3.979,6.211c1.269,0.992 2.768,1.488 4.498,1.488c1.13,0 2.203,-0.265 3.218,-0.796c1.015,-0.531 2.215,-1.534 3.599,-3.01Z" style="fill:#1d1a19;fill-rule:nonzero;"/><path d="M1519.488,149.345l0,11.834l7.682,0l0,3.426l-7.682,0l0,19.966c0,1.869 0.087,3.074 0.26,3.616c0.173,0.542 0.479,0.98 0.917,1.315c0.438,0.334 0.842,0.502 1.211,0.502c1.499,0 2.918,-1.142 4.256,-3.426l1.038,0.761c-1.869,4.429 -4.902,6.644 -9.1,6.644c-2.053,0 -3.789,-0.571 -5.208,-1.713c-1.419,-1.142 -2.324,-2.416 -2.716,-3.824c-0.231,-0.784 -0.346,-2.907 -0.346,-6.367l0,-17.474l-4.222,0l0,-1.211c2.907,-2.053 5.381,-4.21 7.422,-6.471c2.042,-2.261 3.824,-4.787 5.346,-7.578l1.142,0Z" style="fill:#1d1a19;fill-rule:nonzero;"/><path d="M1541.578,145.504c1.499,0 2.768,0.525 3.806,1.574c1.038,1.05 1.557,2.313 1.557,3.789c0,1.476 -0.525,2.734 -1.574,3.772c-1.05,1.038 -2.313,1.557 -3.789,1.557c-1.476,0 -2.734,-0.519 -3.772,-1.557c-1.038,-1.038 -1.557,-2.295 -1.557,-3.772c0,-1.476 0.519,-2.739 1.557,-3.789c1.038,-1.05 2.295,-1.574 3.772,-1.574Zm4.844,15.675l0,25.641c0,2.284 0.265,3.743 0.796,4.377c0.531,0.634 1.569,0.998 3.114,1.09l0,1.246l-17.474,0l0,-1.246c1.43,-0.046 2.491,-0.461 3.183,-1.246c0.461,-0.531 0.692,-1.938 0.692,-4.222l0,-18.893c0,-2.284 -0.265,-3.743 -0.796,-4.377c-0.531,-0.634 -1.557,-0.998 -3.08,-1.09l0,-1.28l13.564,0Z" style="fill:#1d1a19;fill-rule:nonzero;"/><path d="M1572.285,160.21c2.814,0 5.433,0.727 7.855,2.18c2.422,1.453 4.262,3.518 5.519,6.194c1.257,2.676 1.886,5.606 1.886,8.789c0,4.591 -1.165,8.432 -3.495,11.523c-2.814,3.737 -6.701,5.606 -11.661,5.606c-4.867,0 -8.616,-1.707 -11.246,-5.121c-2.63,-3.414 -3.945,-7.37 -3.945,-11.869c0,-4.637 1.344,-8.679 4.031,-12.128c2.687,-3.449 6.373,-5.173 11.056,-5.173Zm0.138,2.457c-1.176,0 -2.186,0.444 -3.028,1.332c-0.842,0.888 -1.396,2.641 -1.661,5.26c-0.265,2.618 -0.398,6.257 -0.398,10.917c0,2.468 0.161,4.775 0.484,6.921c0.254,1.638 0.796,2.884 1.626,3.737c0.83,0.854 1.776,1.28 2.837,1.28c1.038,0 1.903,-0.288 2.595,-0.865c0.9,-0.784 1.499,-1.88 1.799,-3.287c0.461,-2.191 0.692,-6.621 0.692,-13.287c0,-3.922 -0.219,-6.615 -0.657,-8.08c-0.438,-1.465 -1.084,-2.532 -1.938,-3.201c-0.6,-0.484 -1.384,-0.727 -2.353,-0.727Z" style="fill:#1d1a19;fill-rule:nonzero;"/><path d="M1609.22,161.179l0,4.187c1.661,-1.799 3.253,-3.108 4.775,-3.927c1.523,-0.819 3.16,-1.228 4.914,-1.228c2.099,0 3.841,0.582 5.225,1.747c1.384,1.165 2.307,2.612 2.768,4.343c0.369,1.315 0.554,3.841 0.554,7.578l0,12.595c0,2.491 0.225,4.043 0.675,4.654c0.45,0.611 1.39,0.998 2.82,1.159l0,1.246l-16.367,0l0,-1.246c1.223,-0.161 2.099,-0.669 2.63,-1.523c0.369,-0.577 0.554,-2.007 0.554,-4.291l0,-14.395c0,-2.653 -0.104,-4.325 -0.311,-5.017c-0.208,-0.692 -0.559,-1.228 -1.055,-1.609c-0.496,-0.381 -1.044,-0.571 -1.644,-0.571c-1.984,0 -3.829,1.419 -5.536,4.256l0,17.336c0,2.422 0.225,3.956 0.675,4.602c0.45,0.646 1.286,1.05 2.509,1.211l0,1.246l-16.367,0l0,-1.246c1.361,-0.138 2.33,-0.577 2.907,-1.315c0.392,-0.508 0.588,-2.007 0.588,-4.498l0,-18.27c0,-2.445 -0.225,-3.968 -0.675,-4.568c-0.45,-0.6 -1.39,-0.992 -2.82,-1.176l0,-1.28l13.184,0Z" style="fill:#1d1a19;fill-rule:nonzero;"/><path d="M1711.636,163.221c3.068,3.345 5.721,5.888 7.959,7.63c2.238,1.742 4.348,3.039 6.332,3.893l0,1.557c-2.284,1.107 -4.498,2.52 -6.644,4.239c-2.145,1.719 -4.706,4.239 -7.682,7.561l-2.664,0c2.168,-4.637 4.441,-8.201 6.817,-10.692l-55.191,0l0,-3.495l55.191,0c-1.753,-2.238 -2.976,-3.899 -3.668,-4.983c-0.692,-1.084 -1.719,-2.987 -3.08,-5.709l2.63,0Z" style="fill:#1d1a19;fill-rule:nonzero;"/><path d="M1787.271,177.546l12.734,-30.935l19.101,0l0,1.28l-1.523,0c-1.384,0 -2.491,0.242 -3.322,0.727c-0.577,0.323 -1.038,0.865 -1.384,1.626c-0.254,0.554 -0.381,1.995 -0.381,4.325l0,30.935c0,2.399 0.127,3.899 0.381,4.498c0.254,0.6 0.773,1.125 1.557,1.574c0.784,0.45 1.834,0.675 3.149,0.675l1.523,0l0,1.28l-24.499,0l0,-1.28l1.523,0c1.384,0 2.491,-0.242 3.322,-0.727c0.577,-0.323 1.038,-0.877 1.384,-1.661c0.254,-0.554 0.381,-2.007 0.381,-4.36l0,-34.776l-17.993,42.803l-0.83,0l-18.27,-42.492l0,33.045c0,2.307 0.058,3.726 0.173,4.256c0.3,1.153 0.952,2.093 1.955,2.82c1.003,0.727 2.578,1.09 4.723,1.09l0,1.28l-16.056,0l0,-1.28l0.484,0c1.038,0.023 2.007,-0.144 2.907,-0.502c0.9,-0.358 1.58,-0.836 2.042,-1.436c0.461,-0.6 0.819,-1.442 1.073,-2.526c0.046,-0.254 0.069,-1.43 0.069,-3.529l0,-29.689c0,-2.376 -0.127,-3.858 -0.381,-4.446c-0.254,-0.588 -0.773,-1.107 -1.557,-1.557c-0.784,-0.45 -1.834,-0.675 -3.149,-0.675l-1.488,0l0,-1.28l19.17,0l13.184,30.935Z" style="fill:#1d1a19;fill-rule:nonzero;"/><path d="M1841.576,160.21c2.814,0 5.433,0.727 7.855,2.18c2.422,1.453 4.262,3.518 5.519,6.194c1.257,2.676 1.886,5.606 1.886,8.789c0,4.591 -1.165,8.432 -3.495,11.523c-2.814,3.737 -6.701,5.606 -11.661,5.606c-4.867,0 -8.616,-1.707 -11.246,-5.121c-2.63,-3.414 -3.945,-7.37 -3.945,-11.869c0,-4.637 1.344,-8.679 4.031,-12.128c2.687,-3.449 6.373,-5.173 11.056,-5.173Zm0.138,2.457c-1.176,0 -2.186,0.444 -3.028,1.332c-0.842,0.888 -1.396,2.641 -1.661,5.26c-0.265,2.618 -0.398,6.257 -0.398,10.917c0,2.468 0.161,4.775 0.484,6.921c0.254,1.638 0.796,2.884 1.626,3.737c0.83,0.854 1.776,1.28 2.837,1.28c1.038,0 1.903,-0.288 2.595,-0.865c0.9,-0.784 1.499,-1.88 1.799,-3.287c0.461,-2.191 0.692,-6.621 0.692,-13.287c0,-3.922 -0.219,-6.615 -0.657,-8.08c-0.438,-1.465 -1.084,-2.532 -1.938,-3.201c-0.6,-0.484 -1.384,-0.727 -2.353,-0.727Z" style="fill:#1d1a19;fill-rule:nonzero;"/><path d="M1896.747,146.611l0,37.232c0,2.514 0.069,4.002 0.208,4.464c0.185,0.761 0.536,1.326 1.055,1.696c0.519,0.369 1.424,0.6 2.716,0.692l0,1.142l-13.668,2.664l0,-5.121c-1.638,1.984 -3.097,3.333 -4.377,4.049c-1.28,0.715 -2.728,1.073 -4.343,1.073c-4.129,0 -7.393,-1.845 -9.793,-5.536c-1.938,-2.999 -2.907,-6.678 -2.907,-11.038c0,-3.483 0.6,-6.603 1.799,-9.36c1.2,-2.757 2.843,-4.839 4.931,-6.246c2.088,-1.407 4.331,-2.111 6.73,-2.111c1.546,0 2.918,0.3 4.118,0.9c1.2,0.6 2.48,1.649 3.841,3.149l0,-9.758c0,-2.468 -0.104,-3.956 -0.311,-4.464c-0.277,-0.669 -0.692,-1.165 -1.246,-1.488c-0.554,-0.323 -1.592,-0.484 -3.114,-0.484l0,-1.453l14.36,0Zm-9.689,21.938c-1.707,-3.276 -3.795,-4.914 -6.263,-4.914c-0.854,0 -1.557,0.231 -2.111,0.692c-0.854,0.715 -1.551,1.972 -2.093,3.772c-0.542,1.799 -0.813,4.556 -0.813,8.27c0,4.083 0.3,7.105 0.9,9.066c0.6,1.961 1.419,3.38 2.457,4.256c0.531,0.438 1.257,0.657 2.18,0.657c2.03,0 3.945,-1.592 5.744,-4.775l0,-17.024Z" style="fill:#1d1a19;fill-rule:nonzero;"/><path d="M1935.654,176.196l-17.751,0c0.208,4.291 1.35,7.682 3.426,10.173c1.592,1.915 3.506,2.872 5.744,2.872c1.384,0 2.641,-0.386 3.772,-1.159c1.13,-0.773 2.341,-2.163 3.633,-4.17l1.176,0.761c-1.753,3.576 -3.691,6.107 -5.813,7.595c-2.122,1.488 -4.579,2.232 -7.37,2.232c-4.798,0 -8.432,-1.845 -10.9,-5.536c-1.984,-2.976 -2.976,-6.667 -2.976,-11.073c0,-5.398 1.459,-9.694 4.377,-12.889c2.918,-3.195 6.338,-4.792 10.26,-4.792c3.276,0 6.119,1.344 8.53,4.031c2.411,2.687 3.708,6.673 3.893,11.955Zm-8.512,-2.318c0,-3.714 -0.202,-6.263 -0.606,-7.647c-0.404,-1.384 -1.032,-2.434 -1.886,-3.149c-0.484,-0.415 -1.13,-0.623 -1.938,-0.623c-1.2,0 -2.18,0.588 -2.941,1.765c-1.361,2.053 -2.042,4.867 -2.042,8.443l0,1.211l9.412,0Z" style="fill:#1d1a19;fill-rule:nonzero;"/><path d="M1955.91,146.611l0,40.208c0,2.284 0.265,3.743 0.796,4.377c0.531,0.634 1.569,0.998 3.114,1.09l0,1.246l-17.474,0l0,-1.246c1.43,-0.046 2.491,-0.461 3.183,-1.246c0.461,-0.531 0.692,-1.938 0.692,-4.222l0,-33.495c0,-2.261 -0.265,-3.708 -0.796,-4.343c-0.531,-0.634 -1.557,-0.998 -3.08,-1.09l0,-1.28l13.564,0Z" style="fill:#1d1a19;fill-rule:nonzero;"/><path d="M2028.776,146.611l0,12.699l-1.246,0c-0.738,-2.93 -1.557,-5.035 -2.457,-6.315c-0.9,-1.28 -2.134,-2.301 -3.702,-3.062c-0.877,-0.415 -2.411,-0.623 -4.602,-0.623l-3.495,0l0,36.194c0,2.399 0.133,3.899 0.398,4.498c0.265,0.6 0.784,1.125 1.557,1.574c0.773,0.45 1.828,0.675 3.166,0.675l1.557,0l0,1.28l-24.568,0l0,-1.28l1.557,0c1.361,0 2.457,-0.242 3.287,-0.727c0.6,-0.323 1.073,-0.877 1.419,-1.661c0.254,-0.554 0.381,-2.007 0.381,-4.36l0,-36.194l-3.391,0c-3.16,0 -5.456,0.669 -6.886,2.007c-2.007,1.869 -3.276,4.533 -3.806,7.993l-1.315,0l0,-12.699l42.146,0Z" style="fill:#1d1a19;fill-rule:nonzero;"/><path d="M2045.434,161.179l0,7.336c2.145,-3.345 4.025,-5.565 5.64,-6.661c1.615,-1.096 3.172,-1.644 4.671,-1.644c1.292,0 2.324,0.398 3.097,1.194c0.773,0.796 1.159,1.92 1.159,3.374c0,1.546 -0.375,2.745 -1.125,3.599c-0.75,0.854 -1.655,1.28 -2.716,1.28c-1.223,0 -2.284,-0.392 -3.183,-1.176c-0.9,-0.784 -1.43,-1.223 -1.592,-1.315c-0.231,-0.138 -0.496,-0.208 -0.796,-0.208c-0.669,0 -1.303,0.254 -1.903,0.761c-0.946,0.784 -1.661,1.903 -2.145,3.356c-0.738,2.238 -1.107,4.706 -1.107,7.405l0,7.44l0.035,1.938c0,1.315 0.081,2.157 0.242,2.526c0.277,0.623 0.686,1.078 1.228,1.367c0.542,0.288 1.459,0.467 2.751,0.536l0,1.246l-17.474,0l0,-1.246c1.407,-0.115 2.359,-0.502 2.855,-1.159c0.496,-0.657 0.744,-2.393 0.744,-5.208l0,-17.89c0,-1.845 -0.092,-3.022 -0.277,-3.529c-0.231,-0.646 -0.565,-1.119 -1.003,-1.419c-0.438,-0.3 -1.211,-0.508 -2.318,-0.623l0,-1.28l13.218,0Z" style="fill:#1d1a19;fill-rule:nonzero;"/><path d="M2084.86,188.757c-3.945,3.483 -7.486,5.225 -10.623,5.225c-1.845,0 -3.38,-0.606 -4.602,-1.817c-1.223,-1.211 -1.834,-2.728 -1.834,-4.55c0,-2.468 1.061,-4.689 3.183,-6.661c2.122,-1.972 6.748,-4.596 13.876,-7.872l0,-3.253c0,-2.445 -0.133,-3.985 -0.398,-4.619c-0.265,-0.634 -0.767,-1.188 -1.505,-1.661c-0.738,-0.473 -1.569,-0.709 -2.491,-0.709c-1.499,0 -2.734,0.334 -3.702,1.003c-0.6,0.415 -0.9,0.9 -0.9,1.453c0,0.484 0.323,1.084 0.969,1.799c0.877,0.992 1.315,1.949 1.315,2.872c0,1.13 -0.421,2.093 -1.263,2.889c-0.842,0.796 -1.944,1.194 -3.305,1.194c-1.453,0 -2.67,-0.438 -3.651,-1.315c-0.98,-0.877 -1.471,-1.903 -1.471,-3.08c0,-1.661 0.657,-3.247 1.972,-4.758c1.315,-1.511 3.149,-2.67 5.502,-3.478c2.353,-0.807 4.798,-1.211 7.336,-1.211c3.068,0 5.496,0.652 7.284,1.955c1.788,1.303 2.947,2.716 3.478,4.239c0.323,0.969 0.484,3.195 0.484,6.678l0,12.561c0,1.476 0.058,2.405 0.173,2.786c0.115,0.381 0.288,0.663 0.519,0.848c0.231,0.185 0.496,0.277 0.796,0.277c0.6,0 1.211,-0.427 1.834,-1.28l1.038,0.83c-1.153,1.707 -2.347,2.947 -3.581,3.72c-1.234,0.773 -2.636,1.159 -4.204,1.159c-1.845,0 -3.287,-0.433 -4.325,-1.298c-1.038,-0.865 -1.672,-2.174 -1.903,-3.927Zm0,-2.526l0,-10.831c-2.791,1.638 -4.867,3.391 -6.228,5.26c-0.9,1.246 -1.35,2.503 -1.35,3.772c0,1.061 0.381,1.995 1.142,2.803c0.577,0.623 1.384,0.934 2.422,0.934c1.153,0 2.491,-0.646 4.014,-1.938Z" style="fill:#1d1a19;fill-rule:nonzero;"/><path d="M2113.767,145.504c1.499,0 2.768,0.525 3.806,1.574c1.038,1.05 1.557,2.313 1.557,3.789c0,1.476 -0.525,2.734 -1.574,3.772c-1.05,1.038 -2.313,1.557 -3.789,1.557c-1.476,0 -2.734,-0.519 -3.772,-1.557c-1.038,-1.038 -1.557,-2.295 -1.557,-3.772c0,-1.476 0.519,-2.739 1.557,-3.789c1.038,-1.05 2.295,-1.574 3.772,-1.574Zm4.844,15.675l0,25.641c0,2.284 0.265,3.743 0.796,4.377c0.531,0.634 1.569,0.998 3.114,1.09l0,1.246l-17.474,0l0,-1.246c1.43,-0.046 2.491,-0.461 3.183,-1.246c0.461,-0.531 0.692,-1.938 0.692,-4.222l0,-18.893c0,-2.284 -0.265,-3.743 -0.796,-4.377c-0.531,-0.634 -1.557,-0.998 -3.08,-1.09l0,-1.28l13.564,0Z" style="fill:#1d1a19;fill-rule:nonzero;"/><path d="M2142.432,161.179l0,4.187c1.661,-1.799 3.253,-3.108 4.775,-3.927c1.523,-0.819 3.16,-1.228 4.914,-1.228c2.099,0 3.841,0.582 5.225,1.747c1.384,1.165 2.307,2.612 2.768,4.343c0.369,1.315 0.554,3.841 0.554,7.578l0,12.595c0,2.491 0.225,4.043 0.675,4.654c0.45,0.611 1.39,0.998 2.82,1.159l0,1.246l-16.367,0l0,-1.246c1.223,-0.161 2.099,-0.669 2.63,-1.523c0.369,-0.577 0.554,-2.007 0.554,-4.291l0,-14.395c0,-2.653 -0.104,-4.325 -0.311,-5.017c-0.208,-0.692 -0.559,-1.228 -1.055,-1.609c-0.496,-0.381 -1.044,-0.571 -1.644,-0.571c-1.984,0 -3.829,1.419 -5.536,4.256l0,17.336c0,2.422 0.225,3.956 0.675,4.602c0.45,0.646 1.286,1.05 2.509,1.211l0,1.246l-16.367,0l0,-1.246c1.361,-0.138 2.33,-0.577 2.907,-1.315c0.392,-0.508 0.588,-2.007 0.588,-4.498l0,-18.27c0,-2.445 -0.225,-3.968 -0.675,-4.568c-0.45,-0.6 -1.39,-0.992 -2.82,-1.176l0,-1.28l13.184,0Z" style="fill:#1d1a19;fill-rule:nonzero;"/><path d="M2179.955,145.504c1.499,0 2.768,0.525 3.806,1.574c1.038,1.05 1.557,2.313 1.557,3.789c0,1.476 -0.525,2.734 -1.574,3.772c-1.05,1.038 -2.313,1.557 -3.789,1.557c-1.476,0 -2.734,-0.519 -3.772,-1.557c-1.038,-1.038 -1.557,-2.295 -1.557,-3.772c0,-1.476 0.519,-2.739 1.557,-3.789c1.038,-1.05 2.295,-1.574 3.772,-1.574Zm4.844,15.675l0,25.641c0,2.284 0.265,3.743 0.796,4.377c0.531,0.634 1.569,0.998 3.114,1.09l0,1.246l-17.474,0l0,-1.246c1.43,-0.046 2.491,-0.461 3.183,-1.246c0.461,-0.531 0.692,-1.938 0.692,-4.222l0,-18.893c0,-2.284 -0.265,-3.743 -0.796,-4.377c-0.531,-0.634 -1.557,-0.998 -3.08,-1.09l0,-1.28l13.564,0Z" style="fill:#1d1a19;fill-rule:nonzero;"/><path d="M2208.62,161.179l0,4.187c1.661,-1.799 3.253,-3.108 4.775,-3.927c1.523,-0.819 3.16,-1.228 4.914,-1.228c2.099,0 3.841,0.582 5.225,1.747c1.384,1.165 2.307,2.612 2.768,4.343c0.369,1.315 0.554,3.841 0.554,7.578l0,12.595c0,2.491 0.225,4.043 0.675,4.654c0.45,0.611 1.39,0.998 2.82,1.159l0,1.246l-16.367,0l0,-1.246c1.223,-0.161 2.099,-0.669 2.63,-1.523c0.369,-0.577 0.554,-2.007 0.554,-4.291l0,-14.395c0,-2.653 -0.104,-4.325 -0.311,-5.017c-0.208,-0.692 -0.559,-1.228 -1.055,-1.609c-0.496,-0.381 -1.044,-0.571 -1.644,-0.571c-1.984,0 -3.829,1.419 -5.536,4.256l0,17.336c0,2.422 0.225,3.956 0.675,4.602c0.45,0.646 1.286,1.05 2.509,1.211l0,1.246l-16.367,0l0,-1.246c1.361,-0.138 2.33,-0.577 2.907,-1.315c0.392,-0.508 0.588,-2.007 0.588,-4.498l0,-18.27c0,-2.445 -0.225,-3.968 -0.675,-4.568c-0.45,-0.6 -1.39,-0.992 -2.82,-1.176l0,-1.28l13.184,0Z" style="fill:#1d1a19;fill-rule:nonzero;"/><path d="M2259.119,161.56l10.9,0l0,3.806l-6.194,0c1.13,1.13 1.915,2.157 2.353,3.08c0.554,1.246 0.83,2.549 0.83,3.91c0,2.307 -0.64,4.308 -1.92,6.004c-1.28,1.696 -3.022,3.022 -5.225,3.979c-2.203,0.957 -4.158,1.436 -5.865,1.436c-0.138,0 -1.523,-0.058 -4.152,-0.173c-1.038,0 -1.909,0.34 -2.612,1.021c-0.704,0.681 -1.055,1.494 -1.055,2.439c0,0.83 0.317,1.511 0.952,2.042c0.634,0.531 1.667,0.796 3.097,0.796l5.986,-0.069c4.844,0 8.178,0.531 10,1.592c2.607,1.476 3.91,3.749 3.91,6.817c0,1.961 -0.6,3.743 -1.799,5.346c-1.2,1.603 -2.78,2.786 -4.741,3.547c-2.976,1.13 -6.401,1.696 -10.277,1.696c-2.907,0 -5.559,-0.283 -7.959,-0.848c-2.399,-0.565 -4.118,-1.35 -5.156,-2.353c-1.038,-1.003 -1.557,-2.059 -1.557,-3.166c0,-1.061 0.398,-2.013 1.194,-2.855c0.796,-0.842 2.278,-1.551 4.446,-2.128c-2.999,-1.476 -4.498,-3.529 -4.498,-6.159c0,-1.592 0.611,-3.137 1.834,-4.637c1.223,-1.499 3.16,-2.803 5.813,-3.91c-3.091,-1.13 -5.329,-2.618 -6.713,-4.464c-1.384,-1.845 -2.076,-3.979 -2.076,-6.401c0,-3.16 1.292,-5.9 3.875,-8.218c2.584,-2.318 5.906,-3.478 9.966,-3.478c2.145,0 4.36,0.45 6.644,1.35Zm-5.986,0.796c-1.338,0 -2.468,0.675 -3.391,2.024c-0.923,1.35 -1.384,4.147 -1.384,8.391c0,3.437 0.456,5.796 1.367,7.076c0.911,1.28 1.99,1.92 3.235,1.92c1.384,0 2.538,-0.634 3.46,-1.903c0.923,-1.269 1.384,-3.737 1.384,-7.405c0,-4.129 -0.519,-6.944 -1.557,-8.443c-0.738,-1.107 -1.776,-1.661 -3.114,-1.661Zm-2.042,35.952c-2.353,0 -3.91,0.196 -4.671,0.588c-1.315,0.715 -1.972,1.684 -1.972,2.907c0,1.176 0.681,2.243 2.042,3.201c1.361,0.957 3.922,1.436 7.682,1.436c3.207,0 5.727,-0.427 7.561,-1.28c1.834,-0.854 2.751,-2.053 2.751,-3.599c0,-0.577 -0.173,-1.061 -0.519,-1.453c-0.623,-0.692 -1.563,-1.165 -2.82,-1.419c-1.257,-0.254 -4.608,-0.381 -10.052,-0.381Z" style="fill:#1d1a19;fill-rule:nonzero;"/><path d="M2350.013,163.221c3.068,3.345 5.721,5.888 7.959,7.63c2.238,1.742 4.348,3.039 6.332,3.893l0,1.557c-2.284,1.107 -4.498,2.52 -6.644,4.239c-2.145,1.719 -4.706,4.239 -7.682,7.561l-2.664,0c2.168,-4.637 4.441,-8.201 6.817,-10.692l-55.191,0l0,-3.495l55.191,0c-1.753,-2.238 -2.976,-3.899 -3.668,-4.983c-0.692,-1.084 -1.719,-2.987 -3.08,-5.709l2.63,0Z" style="fill:#1d1a19;fill-rule:nonzero;"/><path d="M2440.769,145.539l0,16.54l-1.28,0c-1.546,-4.521 -3.864,-7.959 -6.955,-10.312c-3.091,-2.353 -6.471,-3.529 -10.139,-3.529c-3.506,0 -6.425,0.986 -8.754,2.959c-2.33,1.972 -3.979,4.723 -4.948,8.253c-0.969,3.529 -1.453,7.151 -1.453,10.865c0,4.498 0.531,8.443 1.592,11.834c1.061,3.391 2.774,5.882 5.138,7.474c2.365,1.592 5.173,2.388 8.426,2.388c1.13,0 2.29,-0.121 3.478,-0.363c1.188,-0.242 2.405,-0.594 3.651,-1.055l0,-9.758c0,-1.845 -0.127,-3.039 -0.381,-3.581c-0.254,-0.542 -0.779,-1.032 -1.574,-1.471c-0.796,-0.438 -1.759,-0.657 -2.889,-0.657l-1.211,0l0,-1.28l22.803,0l0,1.28c-1.73,0.115 -2.935,0.352 -3.616,0.709c-0.681,0.358 -1.205,0.952 -1.574,1.782c-0.208,0.438 -0.311,1.511 -0.311,3.218l0,9.758c-2.999,1.338 -6.119,2.347 -9.36,3.028c-3.241,0.681 -6.603,1.021 -10.087,1.021c-4.452,0 -8.149,-0.606 -11.09,-1.817c-2.941,-1.211 -5.536,-2.803 -7.786,-4.775c-2.249,-1.972 -4.008,-4.193 -5.277,-6.661c-1.615,-3.183 -2.422,-6.748 -2.422,-10.692c0,-7.059 2.48,-13.022 7.44,-17.89c4.96,-4.867 11.2,-7.301 18.72,-7.301c2.33,0 4.429,0.185 6.298,0.554c1.015,0.185 2.659,0.709 4.931,1.574c2.272,0.865 3.616,1.298 4.031,1.298c0.646,0 1.246,-0.236 1.799,-0.709c0.554,-0.473 1.061,-1.367 1.523,-2.682l1.28,0Z" style="fill:#1d1a19;fill-rule:nonzero;"/><path d="M2465.593,146.611l0,40.208c0,2.284 0.265,3.743 0.796,4.377c0.531,0.634 1.569,0.998 3.114,1.09l0,1.246l-17.474,0l0,-1.246c1.43,-0.046 2.491,-0.461 3.183,-1.246c0.461,-0.531 0.692,-1.938 0.692,-4.222l0,-33.495c0,-2.261 -0.265,-3.708 -0.796,-4.343c-0.531,-0.634 -1.557,-0.998 -3.08,-1.09l0,-1.28l13.564,0Z" style="fill:#1d1a19;fill-rule:nonzero;"/><path d="M2491.005,194.847l-10.45,-23.98c-1.569,-3.622 -2.728,-5.848 -3.478,-6.678c-0.75,-0.83 -1.655,-1.407 -2.716,-1.73l0,-1.28l17.197,0l0,1.28c-1.13,0.046 -1.926,0.265 -2.388,0.657c-0.461,0.392 -0.692,0.865 -0.692,1.419c0,0.877 0.577,2.607 1.73,5.19l5.536,12.665l3.772,-9.793c1.361,-3.483 2.042,-5.906 2.042,-7.267c0,-0.854 -0.283,-1.534 -0.848,-2.042c-0.565,-0.508 -1.563,-0.784 -2.993,-0.83l0,-1.28l10.831,0l0,1.28c-1.061,0.115 -1.926,0.525 -2.595,1.228c-0.669,0.704 -1.788,3.097 -3.356,7.18l-9.239,23.98c-2.33,5.998 -4.06,9.689 -5.19,11.073c-1.592,1.938 -3.587,2.907 -5.986,2.907c-1.915,0 -3.466,-0.548 -4.654,-1.644c-1.188,-1.096 -1.782,-2.416 -1.782,-3.962c0,-1.338 0.409,-2.445 1.228,-3.322c0.819,-0.877 1.828,-1.315 3.028,-1.315c1.153,0 2.082,0.369 2.786,1.107c0.704,0.738 1.067,1.88 1.09,3.426c0.023,0.877 0.127,1.442 0.311,1.696c0.185,0.254 0.45,0.381 0.796,0.381c0.554,0 1.142,-0.334 1.765,-1.003c0.923,-0.969 2.007,-3.183 3.253,-6.644l1.003,-2.699Z" style="fill:#1d1a19;fill-rule:nonzero;"/><path d="M2527.663,190.245l0,12.042c0,1.661 0.133,2.791 0.398,3.391c0.265,0.6 0.675,1.038 1.228,1.315c0.554,0.277 1.638,0.415 3.253,0.415l0,1.28l-18.443,0l0,-1.28c1.43,-0.046 2.491,-0.45 3.183,-1.211c0.461,-0.531 0.692,-1.903 0.692,-4.118l0,-34.153c0,-2.284 -0.265,-3.743 -0.796,-4.377c-0.531,-0.634 -1.557,-0.998 -3.08,-1.09l0,-1.28l13.564,0l0,4.256c1.13,-1.661 2.284,-2.86 3.46,-3.599c1.684,-1.084 3.518,-1.626 5.502,-1.626c2.376,0 4.539,0.75 6.488,2.249c1.949,1.499 3.431,3.57 4.446,6.211c1.015,2.641 1.523,5.485 1.523,8.53c0,3.276 -0.525,6.269 -1.574,8.979c-1.05,2.711 -2.572,4.775 -4.568,6.194c-1.995,1.419 -4.216,2.128 -6.661,2.128c-1.776,0 -3.437,-0.392 -4.983,-1.176c-1.153,-0.6 -2.365,-1.626 -3.633,-3.08Zm0,-3.495c1.984,2.814 4.106,4.222 6.367,4.222c1.246,0 2.272,-0.657 3.08,-1.972c1.2,-1.938 1.799,-5.629 1.799,-11.073c0,-5.583 -0.657,-9.4 -1.972,-11.453c-0.877,-1.361 -2.053,-2.042 -3.529,-2.042c-2.33,0 -4.245,1.684 -5.744,5.052l0,17.267Z" style="fill:#1d1a19;fill-rule:nonzero;"/><path d="M2571.311,146.611l0,18.72c1.776,-1.869 3.403,-3.189 4.879,-3.962c1.476,-0.773 3.01,-1.159 4.602,-1.159c2.03,0 3.766,0.577 5.208,1.73c1.442,1.153 2.399,2.509 2.872,4.066c0.473,1.557 0.709,4.181 0.709,7.872l0,12.63c0,2.468 0.231,4.008 0.692,4.619c0.461,0.611 1.396,0.998 2.803,1.159l0,1.246l-16.402,0l0,-1.246c1.153,-0.161 2.018,-0.623 2.595,-1.384c0.415,-0.6 0.623,-2.065 0.623,-4.395l0,-14.429c0,-2.676 -0.104,-4.354 -0.311,-5.035c-0.208,-0.681 -0.559,-1.211 -1.055,-1.592c-0.496,-0.381 -1.055,-0.571 -1.678,-0.571c-0.923,0 -1.822,0.317 -2.699,0.952c-0.877,0.634 -1.822,1.747 -2.837,3.339l0,17.336c0,2.307 0.173,3.749 0.519,4.325c0.438,0.784 1.338,1.269 2.699,1.453l0,1.246l-16.402,0l0,-1.246c1.361,-0.138 2.33,-0.577 2.907,-1.315c0.392,-0.508 0.588,-1.995 0.588,-4.464l0,-32.872c0,-2.445 -0.225,-3.968 -0.675,-4.568c-0.45,-0.6 -1.39,-0.992 -2.82,-1.176l0,-1.28l13.184,0Z" style="fill:#1d1a19;fill-rule:nonzero;"/><path d="M2668.814,145.539l0,16.54l-1.28,0c-1.546,-4.521 -3.864,-7.959 -6.955,-10.312c-3.091,-2.353 -6.471,-3.529 -10.139,-3.529c-3.506,0 -6.425,0.986 -8.754,2.959c-2.33,1.972 -3.979,4.723 -4.948,8.253c-0.969,3.529 -1.453,7.151 -1.453,10.865c0,4.498 0.531,8.443 1.592,11.834c1.061,3.391 2.774,5.882 5.138,7.474c2.365,1.592 5.173,2.388 8.426,2.388c1.13,0 2.29,-0.121 3.478,-0.363c1.188,-0.242 2.405,-0.594 3.651,-1.055l0,-9.758c0,-1.845 -0.127,-3.039 -0.381,-3.581c-0.254,-0.542 -0.779,-1.032 -1.574,-1.471c-0.796,-0.438 -1.759,-0.657 -2.889,-0.657l-1.211,0l0,-1.28l22.803,0l0,1.28c-1.73,0.115 -2.935,0.352 -3.616,0.709c-0.681,0.358 -1.205,0.952 -1.574,1.782c-0.208,0.438 -0.311,1.511 -0.311,3.218l0,9.758c-2.999,1.338 -6.119,2.347 -9.36,3.028c-3.241,0.681 -6.603,1.021 -10.087,1.021c-4.452,0 -8.149,-0.606 -11.09,-1.817c-2.941,-1.211 -5.536,-2.803 -7.786,-4.775c-2.249,-1.972 -4.008,-4.193 -5.277,-6.661c-1.615,-3.183 -2.422,-6.748 -2.422,-10.692c0,-7.059 2.48,-13.022 7.44,-17.89c4.96,-4.867 11.2,-7.301 18.72,-7.301c2.33,0 4.429,0.185 6.298,0.554c1.015,0.185 2.659,0.709 4.931,1.574c2.272,0.865 3.616,1.298 4.031,1.298c0.646,0 1.246,-0.236 1.799,-0.709c0.554,-0.473 1.061,-1.367 1.523,-2.682l1.28,0Z" style="fill:#1d1a19;fill-rule:nonzero;"/><path d="M2708.378,176.196l-17.751,0c0.208,4.291 1.35,7.682 3.426,10.173c1.592,1.915 3.506,2.872 5.744,2.872c1.384,0 2.641,-0.386 3.772,-1.159c1.13,-0.773 2.341,-2.163 3.633,-4.17l1.176,0.761c-1.753,3.576 -3.691,6.107 -5.813,7.595c-2.122,1.488 -4.579,2.232 -7.37,2.232c-4.798,0 -8.432,-1.845 -10.9,-5.536c-1.984,-2.976 -2.976,-6.667 -2.976,-11.073c0,-5.398 1.459,-9.694 4.377,-12.889c2.918,-3.195 6.338,-4.792 10.26,-4.792c3.276,0 6.119,1.344 8.53,4.031c2.411,2.687 3.708,6.673 3.893,11.955Zm-8.512,-2.318c0,-3.714 -0.202,-6.263 -0.606,-7.647c-0.404,-1.384 -1.032,-2.434 -1.886,-3.149c-0.484,-0.415 -1.13,-0.623 -1.938,-0.623c-1.2,0 -2.18,0.588 -2.941,1.765c-1.361,2.053 -2.042,4.867 -2.042,8.443l0,1.211l9.412,0Z" style="fill:#1d1a19;fill-rule:nonzero;"/><path d="M2729.188,161.179l0,4.187c1.661,-1.799 3.253,-3.108 4.775,-3.927c1.523,-0.819 3.16,-1.228 4.914,-1.228c2.099,0 3.841,0.582 5.225,1.747c1.384,1.165 2.307,2.612 2.768,4.343c0.369,1.315 0.554,3.841 0.554,7.578l0,12.595c0,2.491 0.225,4.043 0.675,4.654c0.45,0.611 1.39,0.998 2.82,1.159l0,1.246l-16.367,0l0,-1.246c1.223,-0.161 2.099,-0.669 2.63,-1.523c0.369,-0.577 0.554,-2.007 0.554,-4.291l0,-14.395c0,-2.653 -0.104,-4.325 -0.311,-5.017c-0.208,-0.692 -0.559,-1.228 -1.055,-1.609c-0.496,-0.381 -1.044,-0.571 -1.644,-0.571c-1.984,0 -3.829,1.419 -5.536,4.256l0,17.336c0,2.422 0.225,3.956 0.675,4.602c0.45,0.646 1.286,1.05 2.509,1.211l0,1.246l-16.367,0l0,-1.246c1.361,-0.138 2.33,-0.577 2.907,-1.315c0.392,-0.508 0.588,-2.007 0.588,-4.498l0,-18.27c0,-2.445 -0.225,-3.968 -0.675,-4.568c-0.45,-0.6 -1.39,-0.992 -2.82,-1.176l0,-1.28l13.184,0Z" style="fill:#1d1a19;fill-rule:nonzero;"/><path d="M2786.331,176.196l-17.751,0c0.208,4.291 1.35,7.682 3.426,10.173c1.592,1.915 3.506,2.872 5.744,2.872c1.384,0 2.641,-0.386 3.772,-1.159c1.13,-0.773 2.341,-2.163 3.633,-4.17l1.176,0.761c-1.753,3.576 -3.691,6.107 -5.813,7.595c-2.122,1.488 -4.579,2.232 -7.37,2.232c-4.798,0 -8.432,-1.845 -10.9,-5.536c-1.984,-2.976 -2.976,-6.667 -2.976,-11.073c0,-5.398 1.459,-9.694 4.377,-12.889c2.918,-3.195 6.338,-4.792 10.26,-4.792c3.276,0 6.119,1.344 8.53,4.031c2.411,2.687 3.708,6.673 3.893,11.955Zm-8.512,-2.318c0,-3.714 -0.202,-6.263 -0.606,-7.647c-0.404,-1.384 -1.032,-2.434 -1.886,-3.149c-0.484,-0.415 -1.13,-0.623 -1.938,-0.623c-1.2,0 -2.18,0.588 -2.941,1.765c-1.361,2.053 -2.042,4.867 -2.042,8.443l0,1.211l9.412,0Z" style="fill:#1d1a19;fill-rule:nonzero;"/><path d="M2807.349,161.179l0,7.336c2.145,-3.345 4.025,-5.565 5.64,-6.661c1.615,-1.096 3.172,-1.644 4.671,-1.644c1.292,0 2.324,0.398 3.097,1.194c0.773,0.796 1.159,1.92 1.159,3.374c0,1.546 -0.375,2.745 -1.125,3.599c-0.75,0.854 -1.655,1.28 -2.716,1.28c-1.223,0 -2.284,-0.392 -3.183,-1.176c-0.9,-0.784 -1.43,-1.223 -1.592,-1.315c-0.231,-0.138 -0.496,-0.208 -0.796,-0.208c-0.669,0 -1.303,0.254 -1.903,0.761c-0.946,0.784 -1.661,1.903 -2.145,3.356c-0.738,2.238 -1.107,4.706 -1.107,7.405l0,7.44l0.035,1.938c0,1.315 0.081,2.157 0.242,2.526c0.277,0.623 0.686,1.078 1.228,1.367c0.542,0.288 1.459,0.467 2.751,0.536l0,1.246l-17.474,0l0,-1.246c1.407,-0.115 2.359,-0.502 2.855,-1.159c0.496,-0.657 0.744,-2.393 0.744,-5.208l0,-17.89c0,-1.845 -0.092,-3.022 -0.277,-3.529c-0.231,-0.646 -0.565,-1.119 -1.003,-1.419c-0.438,-0.3 -1.211,-0.508 -2.318,-0.623l0,-1.28l13.218,0Z" style="fill:#1d1a19;fill-rule:nonzero;"/><path d="M2846.775,188.757c-3.945,3.483 -7.486,5.225 -10.623,5.225c-1.845,0 -3.38,-0.606 -4.602,-1.817c-1.223,-1.211 -1.834,-2.728 -1.834,-4.55c0,-2.468 1.061,-4.689 3.183,-6.661c2.122,-1.972 6.748,-4.596 13.876,-7.872l0,-3.253c0,-2.445 -0.133,-3.985 -0.398,-4.619c-0.265,-0.634 -0.767,-1.188 -1.505,-1.661c-0.738,-0.473 -1.569,-0.709 -2.491,-0.709c-1.499,0 -2.734,0.334 -3.702,1.003c-0.6,0.415 -0.9,0.9 -0.9,1.453c0,0.484 0.323,1.084 0.969,1.799c0.877,0.992 1.315,1.949 1.315,2.872c0,1.13 -0.421,2.093 -1.263,2.889c-0.842,0.796 -1.944,1.194 -3.305,1.194c-1.453,0 -2.67,-0.438 -3.651,-1.315c-0.98,-0.877 -1.471,-1.903 -1.471,-3.08c0,-1.661 0.657,-3.247 1.972,-4.758c1.315,-1.511 3.149,-2.67 5.502,-3.478c2.353,-0.807 4.798,-1.211 7.336,-1.211c3.068,0 5.496,0.652 7.284,1.955c1.788,1.303 2.947,2.716 3.478,4.239c0.323,0.969 0.484,3.195 0.484,6.678l0,12.561c0,1.476 0.058,2.405 0.173,2.786c0.115,0.381 0.288,0.663 0.519,0.848c0.231,0.185 0.496,0.277 0.796,0.277c0.6,0 1.211,-0.427 1.834,-1.28l1.038,0.83c-1.153,1.707 -2.347,2.947 -3.581,3.72c-1.234,0.773 -2.636,1.159 -4.204,1.159c-1.845,0 -3.287,-0.433 -4.325,-1.298c-1.038,-0.865 -1.672,-2.174 -1.903,-3.927Zm0,-2.526l0,-10.831c-2.791,1.638 -4.867,3.391 -6.228,5.26c-0.9,1.246 -1.35,2.503 -1.35,3.772c0,1.061 0.381,1.995 1.142,2.803c0.577,0.623 1.384,0.934 2.422,0.934c1.153,0 2.491,-0.646 4.014,-1.938Z" style="fill:#1d1a19;fill-rule:nonzero;"/><path d="M2880.734,149.345l0,11.834l7.682,0l0,3.426l-7.682,0l0,19.966c0,1.869 0.087,3.074 0.26,3.616c0.173,0.542 0.479,0.98 0.917,1.315c0.438,0.334 0.842,0.502 1.211,0.502c1.499,0 2.918,-1.142 4.256,-3.426l1.038,0.761c-1.869,4.429 -4.902,6.644 -9.1,6.644c-2.053,0 -3.789,-0.571 -5.208,-1.713c-1.419,-1.142 -2.324,-2.416 -2.716,-3.824c-0.231,-0.784 -0.346,-2.907 -0.346,-6.367l0,-17.474l-4.222,0l0,-1.211c2.907,-2.053 5.381,-4.21 7.422,-6.471c2.042,-2.261 3.824,-4.787 5.346,-7.578l1.142,0Z" style="fill:#1d1a19;fill-rule:nonzero;"/><path d="M2902.824,145.504c1.499,0 2.768,0.525 3.806,1.574c1.038,1.05 1.557,2.313 1.557,3.789c0,1.476 -0.525,2.734 -1.574,3.772c-1.05,1.038 -2.313,1.557 -3.789,1.557c-1.476,0 -2.734,-0.519 -3.772,-1.557c-1.038,-1.038 -1.557,-2.295 -1.557,-3.772c0,-1.476 0.519,-2.739 1.557,-3.789c1.038,-1.05 2.295,-1.574 3.772,-1.574Zm4.844,15.675l0,25.641c0,2.284 0.265,3.743 0.796,4.377c0.531,0.634 1.569,0.998 3.114,1.09l0,1.246l-17.474,0l0,-1.246c1.43,-0.046 2.491,-0.461 3.183,-1.246c0.461,-0.531 0.692,-1.938 0.692,-4.222l0,-18.893c0,-2.284 -0.265,-3.743 -0.796,-4.377c-0.531,-0.634 -1.557,-0.998 -3.08,-1.09l0,-1.28l13.564,0Z" style="fill:#1d1a19;fill-rule:nonzero;"/><path d="M2933.531,160.21c2.814,0 5.433,0.727 7.855,2.18c2.422,1.453 4.262,3.518 5.519,6.194c1.257,2.676 1.886,5.606 1.886,8.789c0,4.591 -1.165,8.432 -3.495,11.523c-2.814,3.737 -6.701,5.606 -11.661,5.606c-4.867,0 -8.616,-1.707 -11.246,-5.121c-2.63,-3.414 -3.945,-7.37 -3.945,-11.869c0,-4.637 1.344,-8.679 4.031,-12.128c2.687,-3.449 6.373,-5.173 11.056,-5.173Zm0.138,2.457c-1.176,0 -2.186,0.444 -3.028,1.332c-0.842,0.888 -1.396,2.641 -1.661,5.26c-0.265,2.618 -0.398,6.257 -0.398,10.917c0,2.468 0.161,4.775 0.484,6.921c0.254,1.638 0.796,2.884 1.626,3.737c0.83,0.854 1.776,1.28 2.837,1.28c1.038,0 1.903,-0.288 2.595,-0.865c0.9,-0.784 1.499,-1.88 1.799,-3.287c0.461,-2.191 0.692,-6.621 0.692,-13.287c0,-3.922 -0.219,-6.615 -0.657,-8.08c-0.438,-1.465 -1.084,-2.532 -1.938,-3.201c-0.6,-0.484 -1.384,-0.727 -2.353,-0.727Z" style="fill:#1d1a19;fill-rule:nonzero;"/><path d="M2970.466,161.179l0,4.187c1.661,-1.799 3.253,-3.108 4.775,-3.927c1.523,-0.819 3.16,-1.228 4.914,-1.228c2.099,0 3.841,0.582 5.225,1.747c1.384,1.165 2.307,2.612 2.768,4.343c0.369,1.315 0.554,3.841 0.554,7.578l0,12.595c0,2.491 0.225,4.043 0.675,4.654c0.45,0.611 1.39,0.998 2.82,1.159l0,1.246l-16.367,0l0,-1.246c1.223,-0.161 2.099,-0.669 2.63,-1.523c0.369,-0.577 0.554,-2.007 0.554,-4.291l0,-14.395c0,-2.653 -0.104,-4.325 -0.311,-5.017c-0.208,-0.692 -0.559,-1.228 -1.055,-1.609c-0.496,-0.381 -1.044,-0.571 -1.644,-0.571c-1.984,0 -3.829,1.419 -5.536,4.256l0,17.336c0,2.422 0.225,3.956 0.675,4.602c0.45,0.646 1.286,1.05 2.509,1.211l0,1.246l-16.367,0l0,-1.246c1.361,-0.138 2.33,-0.577 2.907,-1.315c0.392,-0.508 0.588,-2.007 0.588,-4.498l0,-18.27c0,-2.445 -0.225,-3.968 -0.675,-4.568c-0.45,-0.6 -1.39,-0.992 -2.82,-1.176l0,-1.28l13.184,0Z" style="fill:#1d1a19;fill-rule:nonzero;"/><path d="M3072.882,163.221c3.068,3.345 5.721,5.888 7.959,7.63c2.238,1.742 4.348,3.039 6.332,3.893l0,1.557c-2.284,1.107 -4.498,2.52 -6.644,4.239c-2.145,1.719 -4.706,4.239 -7.682,7.561l-2.664,0c2.168,-4.637 4.441,-8.201 6.817,-10.692l-55.191,0l0,-3.495l55.191,0c-1.753,-2.238 -2.976,-3.899 -3.668,-4.983c-0.692,-1.084 -1.719,-2.987 -3.08,-5.709l2.63,0Z" style="fill:#1d1a19;fill-rule:nonzero;"/><path d="M3163.638,145.539l0,16.54l-1.28,0c-1.546,-4.521 -3.864,-7.959 -6.955,-10.312c-3.091,-2.353 -6.471,-3.529 -10.139,-3.529c-3.506,0 -6.425,0.986 -8.754,2.959c-2.33,1.972 -3.979,4.723 -4.948,8.253c-0.969,3.529 -1.453,7.151 -1.453,10.865c0,4.498 0.531,8.443 1.592,11.834c1.061,3.391 2.774,5.882 5.138,7.474c2.365,1.592 5.173,2.388 8.426,2.388c1.13,0 2.29,-0.121 3.478,-0.363c1.188,-0.242 2.405,-0.594 3.651,-1.055l0,-9.758c0,-1.845 -0.127,-3.039 -0.381,-3.581c-0.254,-0.542 -0.779,-1.032 -1.574,-1.471c-0.796,-0.438 -1.759,-0.657 -2.889,-0.657l-1.211,0l0,-1.28l22.803,0l0,1.28c-1.73,0.115 -2.935,0.352 -3.616,0.709c-0.681,0.358 -1.205,0.952 -1.574,1.782c-0.208,0.438 -0.311,1.511 -0.311,3.218l0,9.758c-2.999,1.338 -6.119,2.347 -9.36,3.028c-3.241,0.681 -6.603,1.021 -10.087,1.021c-4.452,0 -8.149,-0.606 -11.09,-1.817c-2.941,-1.211 -5.536,-2.803 -7.786,-4.775c-2.249,-1.972 -4.008,-4.193 -5.277,-6.661c-1.615,-3.183 -2.422,-6.748 -2.422,-10.692c0,-7.059 2.48,-13.022 7.44,-17.89c4.96,-4.867 11.2,-7.301 18.72,-7.301c2.33,0 4.429,0.185 6.298,0.554c1.015,0.185 2.659,0.709 4.931,1.574c2.272,0.865 3.616,1.298 4.031,1.298c0.646,0 1.246,-0.236 1.799,-0.709c0.554,-0.473 1.061,-1.367 1.523,-2.682l1.28,0Z" style="fill:#1d1a19;fill-rule:nonzero;"/><path d="M3188.462,146.611l0,40.208c0,2.284 0.265,3.743 0.796,4.377c0.531,0.634 1.569,0.998 3.114,1.09l0,1.246l-17.474,0l0,-1.246c1.43,-0.046 2.491,-0.461 3.183,-1.246c0.461,-0.531 0.692,-1.938 0.692,-4.222l0,-33.495c0,-2.261 -0.265,-3.708 -0.796,-4.343c-0.531,-0.634 -1.557,-0.998 -3.08,-1.09l0,-1.28l13.564,0Z" style="fill:#1d1a19;fill-rule:nonzero;"/><path d="M3213.874,194.847l-10.45,-23.98c-1.569,-3.622 -2.728,-5.848 -3.478,-6.678c-0.75,-0.83 -1.655,-1.407 -2.716,-1.73l0,-1.28l17.197,0l0,1.28c-1.13,0.046 -1.926,0.265 -2.388,0.657c-0.461,0.392 -0.692,0.865 -0.692,1.419c0,0.877 0.577,2.607 1.73,5.19l5.536,12.665l3.772,-9.793c1.361,-3.483 2.042,-5.906 2.042,-7.267c0,-0.854 -0.283,-1.534 -0.848,-2.042c-0.565,-0.508 -1.563,-0.784 -2.993,-0.83l0,-1.28l10.831,0l0,1.28c-1.061,0.115 -1.926,0.525 -2.595,1.228c-0.669,0.704 -1.788,3.097 -3.356,7.18l-9.239,23.98c-2.33,5.998 -4.06,9.689 -5.19,11.073c-1.592,1.938 -3.587,2.907 -5.986,2.907c-1.915,0 -3.466,-0.548 -4.654,-1.644c-1.188,-1.096 -1.782,-2.416 -1.782,-3.962c0,-1.338 0.409,-2.445 1.228,-3.322c0.819,-0.877 1.828,-1.315 3.028,-1.315c1.153,0 2.082,0.369 2.786,1.107c0.704,0.738 1.067,1.88 1.09,3.426c0.023,0.877 0.127,1.442 0.311,1.696c0.185,0.254 0.45,0.381 0.796,0.381c0.554,0 1.142,-0.334 1.765,-1.003c0.923,-0.969 2.007,-3.183 3.253,-6.644l1.003,-2.699Z" style="fill:#1d1a19;fill-rule:nonzero;"/><path d="M3250.532,190.245l0,12.042c0,1.661 0.133,2.791 0.398,3.391c0.265,0.6 0.675,1.038 1.228,1.315c0.554,0.277 1.638,0.415 3.253,0.415l0,1.28l-18.443,0l0,-1.28c1.43,-0.046 2.491,-0.45 3.183,-1.211c0.461,-0.531 0.692,-1.903 0.692,-4.118l0,-34.153c0,-2.284 -0.265,-3.743 -0.796,-4.377c-0.531,-0.634 -1.557,-0.998 -3.08,-1.09l0,-1.28l13.564,0l0,4.256c1.13,-1.661 2.284,-2.86 3.46,-3.599c1.684,-1.084 3.518,-1.626 5.502,-1.626c2.376,0 4.539,0.75 6.488,2.249c1.949,1.499 3.431,3.57 4.446,6.211c1.015,2.641 1.523,5.485 1.523,8.53c0,3.276 -0.525,6.269 -1.574,8.979c-1.05,2.711 -2.572,4.775 -4.568,6.194c-1.995,1.419 -4.216,2.128 -6.661,2.128c-1.776,0 -3.437,-0.392 -4.983,-1.176c-1.153,-0.6 -2.365,-1.626 -3.633,-3.08Zm0,-3.495c1.984,2.814 4.106,4.222 6.367,4.222c1.246,0 2.272,-0.657 3.08,-1.972c1.2,-1.938 1.799,-5.629 1.799,-11.073c0,-5.583 -0.657,-9.4 -1.972,-11.453c-0.877,-1.361 -2.053,-2.042 -3.529,-2.042c-2.33,0 -4.245,1.684 -5.744,5.052l0,17.267Z" style="fill:#1d1a19;fill-rule:nonzero;"/><path d="M3294.18,146.611l0,18.72c1.776,-1.869 3.403,-3.189 4.879,-3.962c1.476,-0.773 3.01,-1.159 4.602,-1.159c2.03,0 3.766,0.577 5.208,1.73c1.442,1.153 2.399,2.509 2.872,4.066c0.473,1.557 0.709,4.181 0.709,7.872l0,12.63c0,2.468 0.231,4.008 0.692,4.619c0.461,0.611 1.396,0.998 2.803,1.159l0,1.246l-16.402,0l0,-1.246c1.153,-0.161 2.018,-0.623 2.595,-1.384c0.415,-0.6 0.623,-2.065 0.623,-4.395l0,-14.429c0,-2.676 -0.104,-4.354 -0.311,-5.035c-0.208,-0.681 -0.559,-1.211 -1.055,-1.592c-0.496,-0.381 -1.055,-0.571 -1.678,-0.571c-0.923,0 -1.822,0.317 -2.699,0.952c-0.877,0.634 -1.822,1.747 -2.837,3.339l0,17.336c0,2.307 0.173,3.749 0.519,4.325c0.438,0.784 1.338,1.269 2.699,1.453l0,1.246l-16.402,0l0,-1.246c1.361,-0.138 2.33,-0.577 2.907,-1.315c0.392,-0.508 0.588,-1.995 0.588,-4.464l0,-32.872c0,-2.445 -0.225,-3.968 -0.675,-4.568c-0.45,-0.6 -1.39,-0.992 -2.82,-1.176l0,-1.28l13.184,0Z" style="fill:#1d1a19;fill-rule:nonzero;"/><path d="M3391.96,146.611l0,1.28c-1.707,0.277 -3.23,1.188 -4.568,2.734c-0.969,1.153 -2.411,3.864 -4.325,8.132l-16.159,35.848l-1.142,0l-16.09,-37.302c-1.938,-4.498 -3.235,-7.14 -3.893,-7.924c-0.657,-0.784 -1.897,-1.28 -3.72,-1.488l0,-1.28l22.492,0l0,1.28l-0.761,0c-2.03,0 -3.414,0.254 -4.152,0.761c-0.531,0.346 -0.796,0.854 -0.796,1.523c0,0.415 0.092,0.905 0.277,1.471c0.185,0.565 0.807,2.082 1.869,4.55l10,23.357l9.273,-20.796c1.107,-2.514 1.788,-4.198 2.042,-5.052c0.254,-0.854 0.381,-1.58 0.381,-2.18c0,-0.692 -0.185,-1.303 -0.554,-1.834c-0.369,-0.531 -0.911,-0.934 -1.626,-1.211c-0.992,-0.392 -2.307,-0.588 -3.945,-0.588l0,-1.28l15.398,0Z" style="fill:#1d1a19;fill-rule:nonzero;"/><path d="M3419.517,176.196l-17.751,0c0.208,4.291 1.35,7.682 3.426,10.173c1.592,1.915 3.506,2.872 5.744,2.872c1.384,0 2.641,-0.386 3.772,-1.159c1.13,-0.773 2.341,-2.163 3.633,-4.17l1.176,0.761c-1.753,3.576 -3.691,6.107 -5.813,7.595c-2.122,1.488 -4.579,2.232 -7.37,2.232c-4.798,0 -8.432,-1.845 -10.9,-5.536c-1.984,-2.976 -2.976,-6.667 -2.976,-11.073c0,-5.398 1.459,-9.694 4.377,-12.889c2.918,-3.195 6.338,-4.792 10.26,-4.792c3.276,0 6.119,1.344 8.53,4.031c2.411,2.687 3.708,6.673 3.893,11.955Zm-8.512,-2.318c0,-3.714 -0.202,-6.263 -0.606,-7.647c-0.404,-1.384 -1.032,-2.434 -1.886,-3.149c-0.484,-0.415 -1.13,-0.623 -1.938,-0.623c-1.2,0 -2.18,0.588 -2.941,1.765c-1.361,2.053 -2.042,4.867 -2.042,8.443l0,1.211l9.412,0Z" style="fill:#1d1a19;fill-rule:nonzero;"/><path d="M3453.511,185.193l1.073,0.83c-1.523,2.86 -3.42,4.989 -5.692,6.384c-2.272,1.396 -4.689,2.093 -7.249,2.093c-4.314,0 -7.763,-1.626 -10.346,-4.879c-2.584,-3.253 -3.875,-7.163 -3.875,-11.73c0,-4.406 1.176,-8.282 3.529,-11.626c2.837,-4.037 6.748,-6.055 11.73,-6.055c3.345,0 6.004,0.842 7.976,2.526c1.972,1.684 2.959,3.564 2.959,5.64c0,1.315 -0.398,2.365 -1.194,3.149c-0.796,0.784 -1.84,1.176 -3.132,1.176c-1.361,0 -2.486,-0.45 -3.374,-1.35c-0.888,-0.9 -1.436,-2.503 -1.644,-4.81c-0.138,-1.453 -0.473,-2.468 -1.003,-3.045c-0.531,-0.577 -1.153,-0.865 -1.869,-0.865c-1.107,0 -2.053,0.588 -2.837,1.765c-1.2,1.776 -1.799,4.498 -1.799,8.166c0,3.045 0.484,5.957 1.453,8.737c0.969,2.78 2.295,4.85 3.979,6.211c1.269,0.992 2.768,1.488 4.498,1.488c1.13,0 2.203,-0.265 3.218,-0.796c1.015,-0.531 2.215,-1.534 3.599,-3.01Z" style="fill:#1d1a19;fill-rule:nonzero;"/><path d="M3474.944,149.345l0,11.834l7.682,0l0,3.426l-7.682,0l0,19.966c0,1.869 0.087,3.074 0.26,3.616c0.173,0.542 0.479,0.98 0.917,1.315c0.438,0.334 0.842,0.502 1.211,0.502c1.499,0 2.918,-1.142 4.256,-3.426l1.038,0.761c-1.869,4.429 -4.902,6.644 -9.1,6.644c-2.053,0 -3.789,-0.571 -5.208,-1.713c-1.419,-1.142 -2.324,-2.416 -2.716,-3.824c-0.231,-0.784 -0.346,-2.907 -0.346,-6.367l0,-17.474l-4.222,0l0,-1.211c2.907,-2.053 5.381,-4.21 7.422,-6.471c2.042,-2.261 3.824,-4.787 5.346,-7.578l1.142,0Z" style="fill:#1d1a19;fill-rule:nonzero;"/><path d="M3504.508,160.21c2.814,0 5.433,0.727 7.855,2.18c2.422,1.453 4.262,3.518 5.519,6.194c1.257,2.676 1.886,5.606 1.886,8.789c0,4.591 -1.165,8.432 -3.495,11.523c-2.814,3.737 -6.701,5.606 -11.661,5.606c-4.867,0 -8.616,-1.707 -11.246,-5.121c-2.63,-3.414 -3.945,-7.37 -3.945,-11.869c0,-4.637 1.344,-8.679 4.031,-12.128c2.687,-3.449 6.373,-5.173 11.056,-5.173Zm0.138,2.457c-1.176,0 -2.186,0.444 -3.028,1.332c-0.842,0.888 -1.396,2.641 -1.661,5.26c-0.265,2.618 -0.398,6.257 -0.398,10.917c0,2.468 0.161,4.775 0.484,6.921c0.254,1.638 0.796,2.884 1.626,3.737c0.83,0.854 1.776,1.28 2.837,1.28c1.038,0 1.903,-0.288 2.595,-0.865c0.9,-0.784 1.499,-1.88 1.799,-3.287c0.461,-2.191 0.692,-6.621 0.692,-13.287c0,-3.922 -0.219,-6.615 -0.657,-8.08c-0.438,-1.465 -1.084,-2.532 -1.938,-3.201c-0.6,-0.484 -1.384,-0.727 -2.353,-0.727Z" style="fill:#1d1a19;fill-rule:nonzero;"/><path d="M3541.651,161.179l0,7.336c2.145,-3.345 4.025,-5.565 5.64,-6.661c1.615,-1.096 3.172,-1.644 4.671,-1.644c1.292,0 2.324,0.398 3.097,1.194c0.773,0.796 1.159,1.92 1.159,3.374c0,1.546 -0.375,2.745 -1.125,3.599c-0.75,0.854 -1.655,1.28 -2.716,1.28c-1.223,0 -2.284,-0.392 -3.183,-1.176c-0.9,-0.784 -1.43,-1.223 -1.592,-1.315c-0.231,-0.138 -0.496,-0.208 -0.796,-0.208c-0.669,0 -1.303,0.254 -1.903,0.761c-0.946,0.784 -1.661,1.903 -2.145,3.356c-0.738,2.238 -1.107,4.706 -1.107,7.405l0,7.44l0.035,1.938c0,1.315 0.081,2.157 0.242,2.526c0.277,0.623 0.686,1.078 1.228,1.367c0.542,0.288 1.459,0.467 2.751,0.536l0,1.246l-17.474,0l0,-1.246c1.407,-0.115 2.359,-0.502 2.855,-1.159c0.496,-0.657 0.744,-2.393 0.744,-5.208l0,-17.89c0,-1.845 -0.092,-3.022 -0.277,-3.529c-0.231,-0.646 -0.565,-1.119 -1.003,-1.419c-0.438,-0.3 -1.211,-0.508 -2.318,-0.623l0,-1.28l13.218,0Z" style="fill:#1d1a19;fill-rule:nonzero;"/><path d="M3571.008,145.504c1.499,0 2.768,0.525 3.806,1.574c1.038,1.05 1.557,2.313 1.557,3.789c0,1.476 -0.525,2.734 -1.574,3.772c-1.05,1.038 -2.313,1.557 -3.789,1.557c-1.476,0 -2.734,-0.519 -3.772,-1.557c-1.038,-1.038 -1.557,-2.295 -1.557,-3.772c0,-1.476 0.519,-2.739 1.557,-3.789c1.038,-1.05 2.295,-1.574 3.772,-1.574Zm4.844,15.675l0,25.641c0,2.284 0.265,3.743 0.796,4.377c0.531,0.634 1.569,0.998 3.114,1.09l0,1.246l-17.474,0l0,-1.246c1.43,-0.046 2.491,-0.461 3.183,-1.246c0.461,-0.531 0.692,-1.938 0.692,-4.222l0,-18.893c0,-2.284 -0.265,-3.743 -0.796,-4.377c-0.531,-0.634 -1.557,-0.998 -3.08,-1.09l0,-1.28l13.564,0Z" style="fill:#1d1a19;fill-rule:nonzero;"/><path d="M3612.96,193.532l-28.167,0l0,-0.761l17.786,-29.481l-5.19,0c-2.238,0 -3.841,0.202 -4.81,0.606c-0.969,0.404 -1.753,1.05 -2.353,1.938c-0.6,0.888 -1.223,2.474 -1.869,4.758l-1.211,0l0,-9.412l27.232,0l0,0.934l-17.647,29.205l2.215,0c4.429,0 7.624,-0.634 9.585,-1.903c1.961,-1.269 3.437,-3.587 4.429,-6.955l0.969,0l-0.969,11.073Z" style="fill:#1d1a19;fill-rule:nonzero;"/><path d="M3639.306,188.757c-3.945,3.483 -7.486,5.225 -10.623,5.225c-1.845,0 -3.38,-0.606 -4.602,-1.817c-1.223,-1.211 -1.834,-2.728 -1.834,-4.55c0,-2.468 1.061,-4.689 3.183,-6.661c2.122,-1.972 6.748,-4.596 13.876,-7.872l0,-3.253c0,-2.445 -0.133,-3.985 -0.398,-4.619c-0.265,-0.634 -0.767,-1.188 -1.505,-1.661c-0.738,-0.473 -1.569,-0.709 -2.491,-0.709c-1.499,0 -2.734,0.334 -3.702,1.003c-0.6,0.415 -0.9,0.9 -0.9,1.453c0,0.484 0.323,1.084 0.969,1.799c0.877,0.992 1.315,1.949 1.315,2.872c0,1.13 -0.421,2.093 -1.263,2.889c-0.842,0.796 -1.944,1.194 -3.305,1.194c-1.453,0 -2.67,-0.438 -3.651,-1.315c-0.98,-0.877 -1.471,-1.903 -1.471,-3.08c0,-1.661 0.657,-3.247 1.972,-4.758c1.315,-1.511 3.149,-2.67 5.502,-3.478c2.353,-0.807 4.798,-1.211 7.336,-1.211c3.068,0 5.496,0.652 7.284,1.955c1.788,1.303 2.947,2.716 3.478,4.239c0.323,0.969 0.484,3.195 0.484,6.678l0,12.561c0,1.476 0.058,2.405 0.173,2.786c0.115,0.381 0.288,0.663 0.519,0.848c0.231,0.185 0.496,0.277 0.796,0.277c0.6,0 1.211,-0.427 1.834,-1.28l1.038,0.83c-1.153,1.707 -2.347,2.947 -3.581,3.72c-1.234,0.773 -2.636,1.159 -4.204,1.159c-1.845,0 -3.287,-0.433 -4.325,-1.298c-1.038,-0.865 -1.672,-2.174 -1.903,-3.927Zm0,-2.526l0,-10.831c-2.791,1.638 -4.867,3.391 -6.228,5.26c-0.9,1.246 -1.35,2.503 -1.35,3.772c0,1.061 0.381,1.995 1.142,2.803c0.577,0.623 1.384,0.934 2.422,0.934c1.153,0 2.491,-0.646 4.014,-1.938Z" style="fill:#1d1a19;fill-rule:nonzero;"/><path d="M3673.265,149.345l0,11.834l7.682,0l0,3.426l-7.682,0l0,19.966c0,1.869 0.087,3.074 0.26,3.616c0.173,0.542 0.479,0.98 0.917,1.315c0.438,0.334 0.842,0.502 1.211,0.502c1.499,0 2.918,-1.142 4.256,-3.426l1.038,0.761c-1.869,4.429 -4.902,6.644 -9.1,6.644c-2.053,0 -3.789,-0.571 -5.208,-1.713c-1.419,-1.142 -2.324,-2.416 -2.716,-3.824c-0.231,-0.784 -0.346,-2.907 -0.346,-6.367l0,-17.474l-4.222,0l0,-1.211c2.907,-2.053 5.381,-4.21 7.422,-6.471c2.042,-2.261 3.824,-4.787 5.346,-7.578l1.142,0Z" style="fill:#1d1a19;fill-rule:nonzero;"/><path d="M3695.356,145.504c1.499,0 2.768,0.525 3.806,1.574c1.038,1.05 1.557,2.313 1.557,3.789c0,1.476 -0.525,2.734 -1.574,3.772c-1.05,1.038 -2.313,1.557 -3.789,1.557c-1.476,0 -2.734,-0.519 -3.772,-1.557c-1.038,-1.038 -1.557,-2.295 -1.557,-3.772c0,-1.476 0.519,-2.739 1.557,-3.789c1.038,-1.05 2.295,-1.574 3.772,-1.574Zm4.844,15.675l0,25.641c0,2.284 0.265,3.743 0.796,4.377c0.531,0.634 1.569,0.998 3.114,1.09l0,1.246l-17.474,0l0,-1.246c1.43,-0.046 2.491,-0.461 3.183,-1.246c0.461,-0.531 0.692,-1.938 0.692,-4.222l0,-18.893c0,-2.284 -0.265,-3.743 -0.796,-4.377c-0.531,-0.634 -1.557,-0.998 -3.08,-1.09l0,-1.28l13.564,0Z" style="fill:#1d1a19;fill-rule:nonzero;"/><path d="M3726.062,160.21c2.814,0 5.433,0.727 7.855,2.18c2.422,1.453 4.262,3.518 5.519,6.194c1.257,2.676 1.886,5.606 1.886,8.789c0,4.591 -1.165,8.432 -3.495,11.523c-2.814,3.737 -6.701,5.606 -11.661,5.606c-4.867,0 -8.616,-1.707 -11.246,-5.121c-2.63,-3.414 -3.945,-7.37 -3.945,-11.869c0,-4.637 1.344,-8.679 4.031,-12.128c2.687,-3.449 6.373,-5.173 11.056,-5.173Zm0.138,2.457c-1.176,0 -2.186,0.444 -3.028,1.332c-0.842,0.888 -1.396,2.641 -1.661,5.26c-0.265,2.618 -0.398,6.257 -0.398,10.917c0,2.468 0.161,4.775 0.484,6.921c0.254,1.638 0.796,2.884 1.626,3.737c0.83,0.854 1.776,1.28 2.837,1.28c1.038,0 1.903,-0.288 2.595,-0.865c0.9,-0.784 1.499,-1.88 1.799,-3.287c0.461,-2.191 0.692,-6.621 0.692,-13.287c0,-3.922 -0.219,-6.615 -0.657,-8.08c-0.438,-1.465 -1.084,-2.532 -1.938,-3.201c-0.6,-0.484 -1.384,-0.727 -2.353,-0.727Z" style="fill:#1d1a19;fill-rule:nonzero;"/><path d="M3762.997,161.179l0,4.187c1.661,-1.799 3.253,-3.108 4.775,-3.927c1.523,-0.819 3.16,-1.228 4.914,-1.228c2.099,0 3.841,0.582 5.225,1.747c1.384,1.165 2.307,2.612 2.768,4.343c0.369,1.315 0.554,3.841 0.554,7.578l0,12.595c0,2.491 0.225,4.043 0.675,4.654c0.45,0.611 1.39,0.998 2.82,1.159l0,1.246l-16.367,0l0,-1.246c1.223,-0.161 2.099,-0.669 2.63,-1.523c0.369,-0.577 0.554,-2.007 0.554,-4.291l0,-14.395c0,-2.653 -0.104,-4.325 -0.311,-5.017c-0.208,-0.692 -0.559,-1.228 -1.055,-1.609c-0.496,-0.381 -1.044,-0.571 -1.644,-0.571c-1.984,0 -3.829,1.419 -5.536,4.256l0,17.336c0,2.422 0.225,3.956 0.675,4.602c0.45,0.646 1.286,1.05 2.509,1.211l0,1.246l-16.367,0l0,-1.246c1.361,-0.138 2.33,-0.577 2.907,-1.315c0.392,-0.508 0.588,-2.007 0.588,-4.498l0,-18.27c0,-2.445 -0.225,-3.968 -0.675,-4.568c-0.45,-0.6 -1.39,-0.992 -2.82,-1.176l0,-1.28l13.184,0Z" style="fill:#1d1a19;fill-rule:nonzero;"/></svg>